{"glyphs":{"0":{"ha":831,"x_min":51,"x_max":829,"o":"m 440 66 q 553 107 501 66 q 643 219 604 149 q 706 375 682 289 q 735 594 735 480 q 659 878 735 771 q 440 985 583 985 q 221 878 298 985 q 144 589 144 770 q 174 375 144 482 q 237 219 197 289 q 328 107 276 149 q 440 66 379 66 m 440 -28 q 285 23 355 -28 q 164 160 215 75 q 83 351 113 245 q 51 591 51 471 q 77 789 51 694 q 171 966 107 895 q 440 1080 272 1080 q 613 1042 541 1080 q 732 938 685 1004 q 803 789 779 873 q 829 595 829 696 q 797 351 829 469 q 716 160 768 245 q 595 23 665 75 q 440 -28 525 -28 z "},"1":{"ha":283,"x_min":-26,"x_max":229,"o":"m 136 -7 l 119 985 l -21 977 l -26 1070 q 162 1082 131 1082 q 198 1068 184 1082 q 212 1036 211 1055 l 229 -5 l 136 -7 z "},"2":{"ha":526,"x_min":-37,"x_max":522,"o":"m 500 -20 l 43 -20 q 11 -7 24 -20 q -4 26 -3 7 q 9 59 -4 45 q 326 448 220 275 q 429 731 429 614 q 324 911 429 845 q -37 1006 208 985 l -30 1099 q 522 731 522 1054 q 152 73 522 475 l 500 73 l 500 -20 z "},"3":{"ha":697,"x_min":-22,"x_max":702,"o":"m 363 -34 q 134 26 240 -34 q -22 193 38 82 l 61 237 q 271 72 132 107 q 363 60 317 60 q 542 111 473 60 q 608 222 608 159 q 503 361 608 308 q 167 420 386 420 q 138 431 150 420 q 120 467 120 445 q 128 494 120 481 q 158 513 138 509 q 447 625 349 553 q 543 769 543 695 q 515 843 543 806 q 85 1006 418 968 l 95 1099 q 597 890 483 1055 q 636 769 636 831 q 602 653 636 709 q 404 492 546 559 q 545 445 488 475 q 664 346 627 404 q 702 222 702 288 q 596 35 702 113 q 363 -34 502 -34 z "},"4":{"ha":673,"x_min":56,"x_max":622,"o":"m 528 -7 l 524 237 l 97 237 q 66 252 77 237 q 56 283 56 267 q 140 1040 56 297 l 233 1029 l 155 331 l 523 331 l 511 1034 l 604 1036 l 622 -5 l 528 -7 z "},"5":{"ha":710,"x_min":18,"x_max":724,"o":"m 387 -34 q 170 22 268 -34 q 18 184 77 76 l 100 228 q 218 104 146 144 q 387 60 296 60 q 559 130 488 60 q 630 296 630 201 q 503 529 630 440 q 115 631 374 618 q 83 646 96 632 q 71 680 71 660 q 110 995 71 699 q 125 1024 113 1013 q 156 1036 138 1036 l 613 1036 l 613 942 l 198 942 l 170 722 q 556 606 418 701 q 724 296 724 489 q 697 169 724 229 q 625 63 671 109 q 518 -8 578 18 q 387 -34 457 -34 z "},"6":{"ha":686,"x_min":53,"x_max":696,"o":"m 383 -51 q 182 33 267 -51 q 63 268 92 121 q 53 376 53 321 q 214 831 53 617 q 467 1057 309 956 l 517 977 q 192 606 279 826 q 496 541 382 597 q 696 258 696 441 q 667 129 696 190 q 602 37 643 77 q 505 -27 560 -3 q 383 -51 449 -51 m 383 43 q 505 78 452 43 q 583 169 557 114 q 603 256 603 210 q 438 465 603 391 q 163 513 338 509 q 146 377 146 441 q 155 285 146 329 q 246 100 178 168 q 383 43 304 43 z "},"7":{"ha":539,"x_min":-31,"x_max":557,"o":"m 112 -23 l 26 15 l 441 929 l -31 976 l -21 1069 l 515 1016 q 546 1000 535 1014 q 557 968 557 985 q 553 950 557 959 l 112 -23 z "},"8":{"ha":726,"x_min":37,"x_max":723,"o":"m 380 43 q 498 87 449 43 q 547 218 547 132 q 465 352 547 296 q 380 399 426 377 q 295 352 334 377 q 234 295 257 327 q 210 218 210 262 q 258 91 210 139 q 380 43 305 43 m 380 -51 q 189 26 267 -51 q 117 218 117 101 q 137 319 117 277 q 194 393 158 361 q 274 450 229 425 q 157 522 211 480 q 70 624 103 564 q 37 776 37 685 q 61 899 37 838 q 136 1006 85 959 q 380 1090 229 1090 q 623 1006 531 1090 q 699 899 674 959 q 723 776 723 838 q 690 624 723 685 q 603 522 656 564 q 486 450 549 480 q 623 319 585 394 q 643 218 643 277 q 564 20 643 90 q 380 -51 485 -51 m 380 503 q 550 603 496 556 q 629 776 629 671 q 612 862 629 820 q 561 936 595 904 q 380 996 494 996 q 199 936 265 996 q 147 862 164 904 q 130 776 130 820 q 210 603 130 671 q 380 503 264 556 z "},"9":{"ha":661,"x_min":26,"x_max":670,"o":"m 255 -44 l 205 36 q 530 408 444 187 q 227 472 340 416 q 66 610 114 528 q 26 753 26 679 q 55 884 26 822 q 121 977 79 936 q 218 1041 163 1017 q 339 1064 274 1064 q 541 980 456 1064 q 660 745 631 892 q 670 637 670 693 q 509 182 670 396 q 255 -44 414 58 m 560 500 q 576 636 576 572 q 568 728 576 684 q 477 913 545 846 q 339 970 419 970 q 218 935 271 970 q 140 844 166 899 q 119 754 119 802 q 285 549 119 621 q 560 500 385 505 z "}," ":{"ha":345,"x_min":0,"x_max":0,"o":""}," ":{"ha":345,"x_min":0,"x_max":0,"o":""},"!":{"ha":209,"x_min":34,"x_max":175,"o":"m 127 -6 l 34 -2 l 39 120 l 133 116 l 127 -6 m 139 262 l 45 267 l 81 1088 l 175 1084 l 139 262 z "},"\"":{"ha":348,"x_min":34,"x_max":314,"o":"m 127 774 l 34 775 l 43 1090 l 137 1089 l 127 774 m 304 774 l 211 775 l 220 1090 l 314 1089 l 304 774 z "},"#":{"ha":827,"x_min":34,"x_max":793,"o":"m 148 403 l 138 684 l 34 687 l 36 781 l 136 778 l 125 1085 l 219 1088 l 229 776 l 598 766 l 609 1090 l 702 1087 l 691 764 l 793 762 l 791 668 l 688 671 l 680 431 l 771 435 l 776 342 l 677 336 l 666 -3 l 573 0 l 584 332 l 245 314 l 255 -3 l 161 -5 l 151 309 l 56 304 l 52 397 l 148 403 m 233 682 l 241 408 l 587 426 l 595 673 l 233 682 z "},"$":{"ha":733,"x_min":34,"x_max":699,"o":"m 292 558 l 313 994 q 189 940 237 986 q 128 787 128 880 q 199 623 128 688 q 292 558 233 592 m 365 94 q 469 159 433 109 q 495 254 495 195 q 469 336 495 302 q 401 395 442 369 l 379 407 l 365 94 m 356 -92 l 262 -87 l 267 -4 q 89 87 153 11 l 161 147 q 271 90 201 100 l 288 455 q 211 496 249 474 q 122 564 162 525 q 58 656 82 602 q 34 787 34 711 q 56 905 34 848 q 124 1008 79 963 q 317 1089 199 1081 l 321 1175 l 415 1171 l 411 1084 q 560 1014 490 1068 q 699 814 647 946 l 612 781 q 406 989 543 953 l 385 511 q 516 425 472 466 q 589 254 589 359 q 503 55 589 124 q 360 -3 442 7 l 356 -92 z "},"%":{"ha":732,"x_min":34,"x_max":699,"o":"m 91 -9 l 42 18 l 642 1061 l 690 1033 l 91 -9 m 517 37 q 579 74 552 37 q 633 252 633 145 q 587 389 633 345 q 517 414 561 414 q 410 326 434 414 q 401 256 401 293 q 413 163 401 207 q 454 74 427 110 q 517 37 481 37 m 517 -28 q 388 57 440 -28 q 335 255 335 143 q 380 413 335 351 q 517 479 428 479 q 654 413 606 479 q 699 255 699 351 q 684 146 699 200 q 590 -5 655 41 q 517 -28 557 -28 m 216 637 q 278 674 251 637 q 332 852 332 745 q 286 989 332 945 q 216 1014 260 1014 q 109 926 133 1014 q 100 857 100 893 q 111 764 100 807 q 153 674 126 710 q 216 637 180 637 m 216 572 q 86 657 139 572 q 34 855 34 743 q 79 1013 34 951 q 216 1080 127 1080 q 353 1013 305 1080 q 397 855 397 950 q 382 746 397 800 q 289 595 354 642 q 216 572 256 572 z "},"&":{"ha":791,"x_min":34,"x_max":758,"o":"m 692 -58 q 561 56 624 -2 q 359 -7 457 -7 q 142 55 229 -7 q 43 254 43 124 q 59 348 43 307 q 102 424 75 389 q 164 487 129 458 q 34 802 34 673 q 113 1005 34 925 q 312 1090 196 1090 q 505 1019 430 1090 q 582 831 582 943 q 546 687 582 747 q 454 582 510 627 q 295 468 397 536 q 570 174 408 326 q 686 285 654 243 l 758 225 q 640 111 726 183 q 752 14 694 62 l 692 -58 m 359 87 q 488 123 420 87 q 220 411 332 271 q 137 254 137 338 q 169 158 137 195 q 252 104 201 121 q 359 87 303 87 m 239 543 l 282 572 q 381 644 334 607 q 458 727 428 682 q 488 831 488 772 q 440 950 488 904 q 312 996 393 996 q 180 941 235 996 q 127 802 127 888 q 239 543 127 703 z "},"'":{"ha":171,"x_min":34,"x_max":137,"o":"m 127 774 l 34 775 l 43 1090 l 137 1089 l 127 774 z "},"(":{"ha":393,"x_min":34,"x_max":359,"o":"m 288 -157 q 98 170 163 -13 q 34 543 34 353 q 97 901 34 727 q 290 1210 160 1074 l 357 1145 q 184 866 241 1023 q 127 543 127 709 q 186 202 127 369 q 359 -96 245 36 l 288 -157 z "},")":{"ha":393,"x_min":34,"x_max":359,"o":"m 104 -157 l 34 -96 q 207 202 148 36 q 265 543 265 369 q 209 866 265 709 q 35 1145 152 1023 l 102 1210 q 296 901 233 1074 q 359 543 359 727 q 294 170 359 353 q 104 -157 229 -13 z "},"*":{"ha":363,"x_min":34,"x_max":330,"o":"m 231 808 l 182 875 l 133 808 l 64 857 l 114 925 l 34 951 l 60 1031 l 140 1005 l 140 1088 l 224 1088 l 224 1005 l 304 1031 l 330 951 l 250 925 l 299 857 l 231 808 z "},"+":{"ha":573,"x_min":34,"x_max":539,"o":"m 334 479 l 334 273 l 239 273 l 239 479 l 34 479 l 34 572 l 239 572 l 239 779 l 334 779 l 334 572 l 539 572 l 539 479 l 334 479 z "},",":{"ha":251,"x_min":68,"x_max":183,"o":"m 68 -106 l 68 -68 q 140 -4 138 -68 l 68 -4 l 68 134 l 183 134 l 183 27 q 168 -55 183 -26 q 127 -95 153 -84 q 68 -106 101 -106 z "},"-":{"ha":389,"x_min":34,"x_max":355,"o":"m 355 325 l 34 325 l 34 419 l 355 419 l 355 325 z "},"­":{"ha":389,"x_min":34,"x_max":355,"o":"m 355 325 l 34 325 l 34 419 l 355 419 l 355 325 z "},".":{"ha":251,"x_min":68,"x_max":183,"o":"m 183 -4 l 68 -4 l 68 134 l 183 134 l 183 -4 z "},"/":{"ha":493,"x_min":34,"x_max":459,"o":"m 123 -9 l 34 19 l 370 1061 l 459 1032 l 123 -9 z "},":":{"ha":251,"x_min":68,"x_max":183,"o":"m 183 -4 l 68 -4 l 68 134 l 183 134 l 183 -4 m 183 703 l 68 703 l 68 842 l 183 842 l 183 703 z "},";":{"ha":251,"x_min":68,"x_max":183,"o":"m 68 -106 l 68 -68 q 140 -4 138 -68 l 68 -4 l 68 134 l 183 134 l 183 27 q 168 -55 183 -26 q 127 -95 153 -84 q 68 -106 101 -106 m 183 703 l 68 703 l 68 842 l 183 842 l 183 703 z "},"<":{"ha":604,"x_min":34,"x_max":570,"o":"m 536 298 q 64 482 104 466 q 37 509 45 489 q 34 526 34 516 q 64 568 34 557 l 536 753 l 570 665 l 210 526 l 570 386 l 536 298 z "},"=":{"ha":573,"x_min":34,"x_max":539,"o":"m 539 374 l 34 374 l 34 469 l 539 469 l 539 374 m 539 583 l 34 583 l 34 677 l 539 677 l 539 583 z "},">":{"ha":604,"x_min":34,"x_max":570,"o":"m 68 298 l 34 386 l 394 526 l 34 665 l 68 753 l 541 568 q 570 526 570 557 q 567 509 570 516 q 541 482 559 489 q 68 298 500 466 z "},"?":{"ha":722,"x_min":34,"x_max":688,"o":"m 315 264 l 315 420 q 346 465 315 454 q 521 579 460 509 q 594 758 594 664 q 579 837 594 799 q 510 924 558 889 q 330 974 444 974 q 72 910 222 974 l 34 996 q 330 1067 202 1067 q 564 1000 473 1067 q 666 872 635 948 q 688 758 688 817 q 604 532 688 639 q 409 390 535 446 l 411 265 l 315 264 m 321 -4 l 319 117 l 413 118 l 414 -3 l 321 -4 z "},"@":{"ha":1147,"x_min":34,"x_max":1114,"o":"m 574 -119 q 188 35 334 -119 q 72 224 111 118 q 34 443 34 331 q 73 656 34 554 q 188 838 111 759 q 574 987 335 987 q 961 836 816 987 q 1076 652 1038 756 q 1114 435 1114 547 q 1087 243 1114 323 q 1019 113 1061 163 q 928 38 977 62 q 832 14 879 14 q 739 45 779 14 q 690 135 699 77 q 551 119 613 119 q 353 172 431 119 q 245 370 245 244 q 283 516 245 446 q 393 640 320 587 q 690 735 503 722 l 690 778 l 783 778 l 783 176 q 802 108 783 131 q 848 85 820 85 q 911 109 877 85 q 977 176 946 132 q 1028 286 1008 221 q 1048 435 1048 351 q 1015 628 1048 535 q 914 791 981 720 q 574 922 788 922 q 235 791 362 922 q 134 632 168 723 q 100 443 100 542 q 133 248 100 343 q 235 81 167 153 q 574 -53 361 -53 q 683 -43 631 -53 l 695 -107 q 574 -119 637 -119 m 551 212 q 690 231 612 212 l 690 641 q 448 564 535 629 q 367 474 394 525 q 340 370 340 424 q 405 250 340 294 q 551 212 459 212 z "},"A":{"ha":762,"x_min":-23,"x_max":699,"o":"m 444 427 q 602 445 532 427 q 605 546 605 496 q 538 854 605 743 q 376 949 481 949 q 227 857 279 949 q 165 551 165 748 q 168 463 165 507 q 444 427 313 427 m 157 36 q 80 391 100 195 q -23 429 25 408 l 14 515 q 73 492 42 503 q 71 551 71 522 q 146 903 71 772 q 376 1042 225 1042 q 618 903 534 1042 q 699 546 699 769 q 680 271 699 414 q 629 37 663 142 l 540 66 q 595 347 578 185 q 444 333 526 333 q 177 365 317 333 q 245 67 199 199 l 157 36 z "},"B":{"ha":730,"x_min":56,"x_max":712,"o":"m 176 471 q 618 715 618 505 q 492 892 618 834 q 195 942 382 942 l 155 941 l 176 471 m 255 123 q 288 125 272 123 q 452 172 398 133 q 503 250 503 208 q 412 344 503 307 q 180 376 332 376 l 192 126 q 255 123 225 123 m 104 2 l 56 1054 l 149 1058 l 151 1035 l 195 1036 q 532 977 403 1036 q 712 713 712 895 q 455 427 712 511 q 596 253 596 367 q 505 94 596 160 q 293 31 432 41 q 250 30 273 30 q 196 32 224 30 l 197 6 l 104 2 z "},"C":{"ha":742,"x_min":28,"x_max":756,"o":"m 404 -3 q 130 153 231 -3 q 53 333 78 232 q 28 539 28 434 q 54 741 28 644 q 130 913 79 838 q 404 1065 233 1065 q 626 970 534 1065 q 756 720 720 872 l 665 698 q 559 904 635 826 q 404 970 495 970 q 207 860 282 970 q 143 714 164 798 q 121 539 121 631 q 143 359 121 446 q 208 205 164 271 q 404 92 282 92 q 576 172 506 92 l 646 110 q 536 26 599 56 q 404 -3 476 -3 z "},"D":{"ha":768,"x_min":64,"x_max":729,"o":"m 157 -37 l 64 -36 l 83 1017 l 176 1015 l 176 994 q 470 932 351 994 q 671 746 606 863 q 729 524 729 642 q 688 330 729 425 q 485 95 628 192 q 157 -15 355 7 l 157 -37 m 159 79 q 429 170 322 100 q 602 368 552 252 q 635 524 635 444 q 589 699 635 617 q 430 847 537 794 q 174 900 322 900 l 159 79 z "},"E":{"ha":627,"x_min":75,"x_max":621,"o":"m 168 4 l 75 4 l 75 1056 l 168 1056 l 168 1023 l 617 1044 l 621 951 l 168 929 l 168 487 l 557 469 l 553 375 l 168 393 l 168 132 l 617 154 l 621 60 l 168 39 l 168 4 z "},"F":{"ha":610,"x_min":74,"x_max":621,"o":"m 168 -20 l 74 -20 l 74 1032 l 168 1032 l 168 999 l 616 1021 l 621 927 l 168 905 l 168 463 l 557 445 l 553 351 l 168 370 l 168 -20 z "},"G":{"ha":768,"x_min":28,"x_max":756,"o":"m 640 -14 l 547 -5 l 550 33 l 536 26 q 404 -3 477 -3 q 130 153 232 -3 q 53 333 79 232 q 28 539 28 434 q 54 741 28 644 q 130 913 79 838 q 404 1065 233 1065 q 627 970 534 1065 q 756 720 720 872 l 665 698 q 560 904 635 826 q 404 970 496 970 q 208 860 283 970 q 143 714 165 798 q 122 539 122 631 q 143 359 122 446 q 208 205 165 271 q 404 92 282 92 q 562 157 496 92 l 581 359 l 372 372 l 378 465 l 696 446 l 691 353 l 675 353 l 640 -14 z "},"H":{"ha":760,"x_min":36,"x_max":724,"o":"m 172 389 l 174 -20 l 81 -20 l 79 397 l 36 400 l 44 494 l 79 491 l 75 1032 l 169 1033 l 172 483 l 573 450 l 631 1037 l 724 1028 l 623 -1 l 530 7 l 564 357 l 172 389 z "},"I":{"ha":290,"x_min":28,"x_max":264,"o":"m 91 902 l 28 902 l 28 996 l 247 996 l 247 902 l 184 902 l 201 41 l 264 41 l 264 -53 l 45 -53 l 45 41 l 107 41 l 91 902 z "},"J":{"ha":532,"x_min":-91,"x_max":522,"o":"m 125 -44 q 5 -13 62 -44 q -91 73 -52 18 l -15 127 q 48 70 12 90 q 125 50 85 50 q 280 132 228 50 q 340 409 340 227 l 340 930 l 118 941 l 122 1034 l 522 1015 l 518 922 l 433 926 l 433 409 q 358 81 433 200 q 125 -44 279 -44 z "},"K":{"ha":591,"x_min":69,"x_max":673,"o":"m 82 18 l 69 1057 l 163 1059 l 168 655 l 608 1091 l 673 1025 l 195 551 l 574 96 l 503 36 l 170 433 l 176 19 l 82 18 z "},"L":{"ha":473,"x_min":69,"x_max":503,"o":"m 82 18 l 69 1057 l 162 1059 l 174 134 l 496 154 l 503 60 l 175 39 l 175 19 l 82 18 z "},"M":{"ha":980,"x_min":47,"x_max":920,"o":"m 808 24 l 722 61 q 799 329 772 182 q 825 616 825 476 q 791 881 825 766 q 707 1005 762 979 q 676 1011 693 1011 q 576 913 615 1011 q 526 571 526 787 l 432 571 q 382 913 432 787 q 281 1011 343 1011 q 187 912 224 1011 q 141 558 141 785 q 178 174 141 369 l 86 157 q 47 558 47 361 q 100 945 47 802 q 281 1105 159 1105 q 479 921 417 1105 q 676 1105 542 1105 q 743 1090 711 1105 q 881 909 840 1046 q 920 616 920 780 q 891 311 920 468 q 808 24 862 155 z "},"N":{"ha":755,"x_min":71,"x_max":697,"o":"m 604 -1 l 587 320 l 165 890 l 170 56 l 77 55 l 71 1032 q 84 1066 71 1053 q 117 1079 98 1079 q 155 1061 141 1079 l 577 490 l 548 1032 l 642 1037 l 697 3 l 604 -1 z "},"O":{"ha":839,"x_min":30,"x_max":784,"o":"m 407 66 q 604 180 528 66 q 668 333 646 246 q 690 512 690 419 q 668 703 690 610 q 603 865 647 795 q 407 985 528 985 q 210 870 286 985 q 145 717 167 804 q 123 534 123 630 q 145 345 123 437 q 210 184 167 254 q 407 66 286 66 m 407 -28 q 132 134 234 -28 q 55 320 80 215 q 30 534 30 425 q 56 744 30 643 q 132 922 81 844 q 407 1080 235 1080 q 682 916 580 1080 q 759 728 733 834 q 784 512 784 623 q 758 306 784 406 q 681 128 732 206 q 407 -28 577 -28 z "},"P":{"ha":724,"x_min":56,"x_max":709,"o":"m 104 2 l 56 1054 l 149 1058 l 151 1035 l 195 1036 q 532 976 404 1036 q 709 714 709 895 q 559 472 709 556 q 180 378 424 396 l 197 6 l 104 2 m 176 471 q 616 715 616 505 q 493 891 616 835 q 196 942 383 942 l 155 941 l 176 471 z "},"Q":{"ha":838,"x_min":30,"x_max":784,"o":"m 713 -43 l 593 32 q 407 -28 513 -28 q 132 134 234 -28 q 55 320 81 215 q 30 534 30 425 q 56 744 30 643 q 132 922 81 844 q 407 1080 235 1080 q 683 916 580 1080 q 759 728 734 834 q 784 512 784 623 q 758 307 784 406 q 661 100 727 184 l 762 37 l 713 -43 m 407 66 q 504 87 460 66 l 326 199 l 375 279 l 581 150 q 669 333 640 220 q 690 512 690 419 q 669 703 690 610 q 604 865 647 795 q 407 985 528 985 q 210 870 286 985 q 146 717 168 804 q 124 534 124 630 q 145 345 124 437 q 210 184 167 254 q 407 66 286 66 z "},"R":{"ha":726,"x_min":56,"x_max":709,"o":"m 155 928 l 176 458 q 616 702 616 492 q 493 878 616 821 q 196 929 383 929 q 155 928 176 929 m 184 294 l 197 -7 l 104 -12 l 56 1041 l 149 1045 l 151 1022 q 195 1023 173 1023 q 532 963 404 1023 q 709 701 709 882 q 559 459 709 543 q 241 370 441 393 l 562 29 l 494 -35 l 184 294 z "},"S":{"ha":673,"x_min":29,"x_max":694,"o":"m 307 -7 q 181 17 242 -7 q 84 87 124 40 l 157 147 q 307 87 208 87 q 395 104 353 87 q 464 158 437 121 q 490 254 490 195 q 464 336 490 302 q 396 394 437 369 q 306 444 354 420 q 206 496 255 468 q 117 564 157 525 q 53 656 77 602 q 29 787 29 711 q 52 905 29 848 q 119 1008 74 963 q 342 1090 204 1090 q 555 1014 458 1090 q 694 814 642 946 l 607 781 q 421 983 544 940 q 342 996 382 996 q 184 940 242 996 q 123 787 123 880 q 195 623 123 688 q 348 527 243 578 q 436 480 394 505 q 511 425 478 456 q 584 254 584 359 q 498 55 584 124 q 307 -7 420 -7 z "},"T":{"ha":552,"x_min":-4,"x_max":633,"o":"m 262 -7 l 245 902 l -4 902 l -4 996 l 633 996 l 633 902 l 338 902 l 355 -5 l 262 -7 z "},"U":{"ha":766,"x_min":39,"x_max":707,"o":"m 363 5 q 120 142 204 5 q 39 496 39 273 q 64 760 39 627 q 132 1012 90 901 l 219 979 q 156 744 180 877 q 133 496 133 618 q 199 191 133 300 q 363 98 256 98 q 542 195 479 98 q 612 501 612 304 q 593 763 612 628 q 543 980 576 884 l 631 1011 q 686 777 668 905 q 707 501 707 633 q 620 143 707 277 q 363 5 530 5 z "},"V":{"ha":761,"x_min":47,"x_max":717,"o":"m 393 -24 q 362 -12 376 -24 q 103 413 182 156 q 47 774 47 593 q 60 943 47 858 l 153 929 q 141 772 141 850 q 193 441 141 606 q 391 91 255 239 q 587 499 530 261 q 623 810 623 655 q 599 1032 623 933 l 690 1055 q 717 805 717 943 q 677 477 717 644 q 428 -9 606 183 q 393 -24 414 -24 z "},"W":{"ha":981,"x_min":43,"x_max":916,"o":"m 681 -34 q 483 153 545 -34 q 286 -34 419 -34 q 220 -20 251 -34 q 81 162 123 24 q 43 455 43 290 q 72 760 43 603 q 154 1046 100 916 l 240 1010 q 163 742 190 889 q 137 455 137 595 q 171 190 137 304 q 256 66 201 92 q 286 60 269 60 q 403 196 363 60 q 437 500 437 315 l 530 500 q 581 158 530 284 q 681 60 620 60 q 775 158 739 60 q 822 512 822 285 q 784 897 822 699 l 876 913 q 916 512 916 709 q 863 125 916 269 q 681 -34 804 -34 z "},"X":{"ha":597,"x_min":-9,"x_max":618,"o":"m 117 4 l 35 49 l 265 465 l -9 1015 l 75 1056 l 320 564 l 537 956 l 618 911 l 370 463 l 578 47 l 494 5 l 315 363 l 117 4 z "},"Y":{"ha":692,"x_min":40,"x_max":667,"o":"m 309 -7 l 300 376 q 115 512 182 395 q 40 865 40 643 q 44 973 40 917 l 138 967 q 134 865 134 916 q 195 559 134 667 q 345 467 248 467 q 507 562 450 467 q 574 869 574 672 q 565 1057 574 964 l 658 1066 q 667 869 667 965 q 587 513 667 646 q 393 376 516 395 l 402 -5 l 309 -7 z "},"Z":{"ha":524,"x_min":-30,"x_max":558,"o":"m 508 -20 l 52 -20 q 32 -16 41 -20 q 4 27 4 -2 q 9 46 4 37 l 441 960 l -30 1006 l -20 1099 l 516 1046 q 547 1030 536 1044 q 558 999 558 1016 q 554 979 558 989 l 125 73 l 508 73 l 508 -20 z "},"[":{"ha":340,"x_min":34,"x_max":307,"o":"m 307 -173 l 132 -173 q 99 -160 113 -173 q 84 -128 85 -148 q 34 1177 34 1137 q 48 1211 34 1197 q 81 1224 62 1224 l 307 1224 l 307 1131 l 130 1131 l 176 -79 l 307 -79 l 307 -173 z "},"\\":{"ha":493,"x_min":34,"x_max":459,"o":"m 370 -9 l 34 1032 l 123 1061 l 459 19 l 370 -9 z "},"]":{"ha":340,"x_min":34,"x_max":307,"o":"m 34 -173 l 34 -79 l 165 -79 l 211 1131 l 34 1131 l 34 1224 l 260 1224 q 293 1211 279 1224 q 307 1177 307 1197 q 256 -128 307 1137 q 242 -160 256 -148 q 208 -173 228 -173 l 34 -173 z "},"^":{"ha":338,"x_min":34,"x_max":304,"o":"m 235 762 l 169 917 l 103 762 l 34 791 l 135 1027 q 168 1050 144 1050 q 184 1047 176 1050 q 203 1027 198 1041 l 304 791 l 235 762 z "},"_":{"ha":573,"x_min":34,"x_max":539,"o":"m 539 -161 l 34 -161 l 34 -68 l 539 -68 l 539 -161 z "},"`":{"ha":292,"x_min":34,"x_max":258,"o":"m 218 859 l 34 995 l 73 1048 l 258 911 l 218 859 z "},"a":{"ha":621,"x_min":12,"x_max":549,"o":"m 549 90 l 455 90 l 455 134 q 316 119 378 119 q 118 171 197 119 q 12 370 12 244 q 48 516 12 446 q 158 640 85 586 q 455 735 268 721 l 455 778 l 549 778 l 549 90 m 316 212 q 455 231 377 212 l 455 641 q 213 564 300 629 q 132 474 159 524 q 105 370 105 424 q 170 249 105 293 q 316 212 224 212 z "},"b":{"ha":614,"x_min":45,"x_max":585,"o":"m 81 45 l 45 1013 l 139 1016 l 151 692 q 278 706 220 706 q 476 652 399 706 q 585 446 585 577 q 549 308 585 375 q 444 190 513 241 q 173 97 341 112 l 175 48 l 81 45 m 170 191 q 388 265 307 204 q 464 350 438 302 q 490 446 490 397 q 424 574 490 528 q 278 612 370 612 q 155 597 223 612 l 170 191 z "},"c":{"ha":651,"x_min":31,"x_max":654,"o":"m 353 -28 q 218 3 276 -28 q 119 87 159 35 q 53 222 75 146 q 31 378 31 298 q 53 529 31 456 q 119 659 75 602 q 353 772 208 772 q 542 701 463 772 q 654 513 623 628 l 564 488 q 480 631 541 577 q 353 678 428 678 q 261 657 301 678 q 193 601 220 636 q 141 499 159 557 q 124 378 124 441 q 141 252 124 313 q 193 144 159 191 q 353 65 253 65 q 494 121 437 65 l 559 55 q 353 -28 475 -28 z "},"d":{"ha":675,"x_min":14,"x_max":612,"o":"m 518 -21 l 516 45 q 383 32 444 32 q 142 101 237 32 q 14 350 14 195 q 51 501 14 430 q 492 734 157 707 l 482 1013 l 576 1016 l 612 -18 l 518 -21 m 383 125 q 513 140 441 125 l 495 641 q 135 460 218 617 q 108 350 108 408 q 197 178 108 242 q 383 125 267 125 z "},"e":{"ha":577,"x_min":22,"x_max":553,"o":"m 378 -2 q 227 24 291 -2 q 54 199 104 76 q 22 363 22 276 q 51 515 22 451 q 124 620 79 578 q 225 680 170 661 q 334 700 280 700 q 488 648 428 700 q 553 505 553 591 q 438 301 553 384 q 220 237 350 237 q 137 244 180 237 q 188 162 154 198 q 378 92 254 92 q 425 94 401 92 l 435 1 q 378 -2 404 -2 m 220 332 q 385 378 320 332 q 460 505 460 432 q 427 577 460 547 q 334 606 393 606 q 187 548 250 606 q 117 363 117 482 l 117 343 q 220 332 173 332 z "},"f":{"ha":352,"x_min":-2,"x_max":375,"o":"m 159 56 q 119 199 136 125 l 7 187 l -2 280 l 102 291 q 80 538 80 418 q 197 954 80 825 q 375 1033 268 1033 l 375 939 q 328 931 349 939 q 214 805 252 905 q 174 538 174 699 q 195 300 174 423 l 326 314 l 336 221 l 214 208 q 248 85 228 145 l 159 56 z "},"g":{"ha":635,"x_min":33,"x_max":614,"o":"m 314 180 q 445 241 395 180 q 502 421 502 313 q 445 614 502 538 q 314 678 395 678 q 183 616 233 678 q 127 434 127 545 q 184 243 127 318 q 314 180 233 180 m 149 -363 q 34 -359 94 -363 l 41 -266 q 152 -270 100 -270 q 349 -250 256 -270 q 491 -185 442 -229 q 520 -134 520 -158 q 507 -102 520 -118 q 427 -54 484 -73 q 278 -35 369 -35 q 245 -22 258 -35 q 231 12 231 -8 q 254 92 231 16 q 197 113 223 99 q 52 302 92 168 q 33 434 33 366 q 53 564 33 501 q 111 674 72 626 q 314 772 188 772 q 416 753 370 772 l 469 838 l 549 787 l 493 700 q 576 555 551 644 q 595 421 595 489 q 576 293 595 355 q 517 182 557 231 q 351 88 452 100 l 341 56 q 489 21 429 47 q 580 -43 549 -5 q 614 -133 614 -85 q 553 -254 614 -198 q 363 -342 492 -310 q 149 -363 273 -363 z "},"h":{"ha":686,"x_min":35,"x_max":641,"o":"m 147 694 q 151 698 149 696 q 357 802 226 802 q 419 795 390 802 q 597 648 542 769 q 641 396 641 549 q 602 63 641 248 l 511 82 q 547 396 547 256 q 511 608 547 529 q 357 708 469 708 q 224 641 273 708 q 161 429 168 562 l 180 79 l 87 74 l 35 1042 l 128 1047 l 147 694 z "},"i":{"ha":224,"x_min":41,"x_max":179,"o":"m 174 739 l 80 743 l 85 846 l 179 842 l 174 739 m 134 24 l 41 28 l 75 651 l 169 646 l 134 24 z "},"j":{"ha":263,"x_min":-75,"x_max":220,"o":"m -75 -359 l -75 -266 q -31 -259 -51 -266 q 85 -127 45 -233 q 126 158 126 -14 q 53 635 126 389 l 142 663 q 220 158 220 401 q 101 -281 220 -147 q -75 -359 31 -359 m 26 729 l 0 832 l 90 856 l 117 752 l 26 729 z "},"k":{"ha":596,"x_min":62,"x_max":633,"o":"m 75 18 l 62 1057 l 156 1058 l 163 489 l 578 789 l 633 714 l 199 399 l 540 101 l 478 31 l 165 304 l 169 19 l 75 18 z "},"l":{"ha":235,"x_min":62,"x_max":169,"o":"m 75 18 l 62 1057 l 156 1058 l 169 19 l 75 18 z "},"m":{"ha":813,"x_min":43,"x_max":767,"o":"m 675 22 l 591 64 q 652 239 631 143 q 673 427 673 336 q 650 591 673 520 q 561 677 621 677 q 487 618 515 677 q 448 397 448 538 l 355 397 q 316 618 355 538 q 242 677 288 677 q 173 618 199 677 q 137 389 137 537 q 167 136 137 264 l 75 115 q 43 389 43 254 q 87 657 43 557 q 242 772 138 772 q 401 657 349 772 q 561 772 455 772 q 635 754 602 772 q 739 621 707 715 q 767 427 767 534 q 743 218 767 326 q 675 22 720 111 z "},"n":{"ha":692,"x_min":44,"x_max":648,"o":"m 620 35 l 527 50 q 553 336 553 208 q 517 572 553 484 q 393 675 481 657 q 359 677 378 677 q 256 637 300 677 q 189 533 212 597 q 168 418 168 478 q 190 50 168 407 l 96 43 l 44 748 l 138 754 l 145 651 q 359 772 231 772 q 409 768 385 772 q 648 336 648 726 q 620 35 648 201 z "},"o":{"ha":702,"x_min":31,"x_max":666,"o":"m 348 65 q 438 86 399 65 q 505 142 477 106 q 555 243 538 185 q 572 362 572 300 q 555 490 572 428 q 504 598 538 551 q 348 678 445 678 q 191 601 251 678 q 124 378 124 514 q 141 252 124 313 q 192 144 158 191 q 348 65 251 65 m 348 -28 q 214 3 272 -28 q 117 88 157 35 q 52 223 73 147 q 31 378 31 298 q 53 529 31 456 q 117 659 75 602 q 348 772 205 772 q 481 740 424 772 q 579 654 539 708 q 644 518 623 595 q 666 362 666 442 q 644 213 666 286 q 578 84 622 140 q 348 -28 490 -28 z "},"p":{"ha":659,"x_min":58,"x_max":632,"o":"m 95 -237 l 58 799 l 152 802 l 154 751 q 304 770 237 770 q 517 712 433 770 q 632 494 632 633 q 593 346 632 418 q 481 220 555 274 q 176 119 357 127 l 188 -235 l 95 -237 m 172 212 q 426 295 326 220 q 509 388 481 336 q 538 494 538 439 q 465 635 538 584 q 304 676 405 676 q 157 656 239 676 l 172 212 z "},"q":{"ha":659,"x_min":23,"x_max":591,"o":"m 576 -216 l 483 -215 l 488 153 q 351 138 412 138 q 138 196 222 138 q 23 414 23 275 q 62 562 23 490 q 174 688 100 634 q 496 790 303 785 l 497 821 l 591 820 l 576 -216 m 351 232 q 489 250 412 232 l 495 695 q 353 673 417 693 q 146 521 205 627 q 117 414 117 469 q 191 273 117 324 q 351 232 250 232 z "},"r":{"ha":427,"x_min":55,"x_max":426,"o":"m 79 50 l 55 765 l 149 768 l 152 677 q 281 747 216 747 q 393 681 351 747 q 426 539 426 629 l 332 539 q 313 632 332 602 q 281 654 299 654 q 223 617 258 654 q 157 507 188 581 l 173 52 l 79 50 z "},"s":{"ha":578,"x_min":26,"x_max":589,"o":"m 262 -7 q 75 64 143 -7 l 143 128 q 262 87 182 87 q 372 119 332 87 q 406 196 406 146 q 385 248 406 227 q 331 287 364 270 q 260 321 298 304 q 175 361 217 340 q 100 412 134 382 q 46 483 66 441 q 26 584 26 524 q 45 676 26 631 q 104 755 64 721 q 292 817 176 817 q 383 803 338 817 q 589 610 521 761 l 503 572 q 416 683 470 647 q 292 723 355 723 q 165 684 211 723 q 119 584 119 644 q 146 503 119 535 q 213 448 172 471 q 298 406 254 425 q 396 358 351 385 q 470 294 441 332 q 499 196 499 256 q 432 47 499 102 q 262 -7 364 -7 z "},"t":{"ha":345,"x_min":-7,"x_max":370,"o":"m 370 23 q 292 36 328 23 q 120 214 174 77 q 73 511 73 334 q 96 765 73 634 l -7 775 l 3 869 l 115 857 q 154 1000 131 928 l 243 971 q 208 848 223 909 l 331 835 l 321 742 l 189 755 q 166 511 166 629 q 208 248 166 359 q 321 125 245 151 q 370 117 343 117 l 370 23 z "},"u":{"ha":621,"x_min":37,"x_max":574,"o":"m 300 4 q 102 113 170 4 q 37 387 37 215 q 84 665 37 524 l 173 636 q 131 387 131 509 q 180 163 131 242 q 300 98 222 98 q 427 163 382 98 q 480 378 480 242 q 463 567 480 475 q 416 701 446 648 l 497 748 q 554 585 535 681 q 574 378 574 482 q 504 111 574 214 q 300 4 432 4 z "},"v":{"ha":632,"x_min":39,"x_max":593,"o":"m 326 41 q 296 51 309 41 q 84 347 147 172 q 39 598 39 472 q 49 718 39 658 l 141 701 q 132 598 132 650 q 172 379 132 488 q 323 151 220 248 q 469 418 429 269 q 500 625 500 529 q 480 770 500 703 l 570 796 q 593 618 593 717 q 562 391 593 500 q 357 53 503 189 q 326 41 344 41 z "},"w":{"ha":881,"x_min":42,"x_max":831,"o":"m 616 -39 q 439 95 497 -39 q 264 -39 381 -39 q 184 -20 220 -39 q 73 123 107 21 q 42 336 42 218 q 68 565 42 447 q 142 781 94 683 l 227 739 q 159 544 182 651 q 136 336 136 437 q 161 153 136 232 q 264 54 195 54 q 363 151 330 54 q 393 368 393 237 l 487 368 q 530 123 487 213 q 616 54 562 54 q 696 122 667 54 q 736 378 736 213 q 704 659 736 516 l 795 679 q 831 378 831 526 q 783 84 831 193 q 616 -39 728 -39 z "},"x":{"ha":553,"x_min":-25,"x_max":574,"o":"m 285 283 l 94 0 l 16 52 l 231 371 l -25 793 l 55 842 l 289 456 l 497 764 l 574 711 l 342 368 l 535 50 l 455 2 l 285 283 z "},"y":{"ha":570,"x_min":-18,"x_max":582,"o":"m 272 -229 l 182 -202 l 299 188 l -18 714 l 63 762 l 335 309 l 492 831 l 582 804 l 272 -229 z "},"z":{"ha":502,"x_min":-24,"x_max":523,"o":"m 473 -21 l 52 -21 l 52 -20 l 50 -20 q 27 -14 37 -20 q 5 26 5 1 q 12 50 5 38 l 398 699 l -24 737 l -15 830 l 480 785 q 512 768 500 782 q 523 738 523 755 q 516 714 523 726 l 134 73 l 473 73 l 473 -21 z "},"{":{"ha":407,"x_min":34,"x_max":373,"o":"m 373 -173 q 221 -150 275 -173 q 146 -84 168 -126 q 124 11 124 -43 q 155 177 124 64 q 182 331 182 273 q 165 409 182 374 q 67 481 142 456 q 37 512 44 488 q 34 526 34 519 q 39 547 34 537 q 67 570 48 564 q 160 635 140 594 q 179 719 179 676 q 153 871 179 775 q 123 1032 123 979 q 145 1135 123 1092 q 373 1224 190 1224 l 373 1131 q 277 1119 311 1131 q 230 1086 243 1107 q 217 1040 217 1065 q 243 894 217 994 q 277 703 277 770 q 267 629 277 665 q 191 526 251 570 q 267 433 254 481 q 279 346 279 385 q 245 154 279 275 q 218 11 218 56 q 232 -36 218 -16 q 278 -68 245 -56 q 373 -79 312 -79 l 373 -173 z "},"|":{"ha":753,"x_min":305,"x_max":448,"o":"m 355 -168 l 305 1223 l 399 1227 l 448 -165 l 355 -168 z "},"}":{"ha":407,"x_min":34,"x_max":373,"o":"m 34 -173 l 34 -79 q 129 -68 95 -79 q 175 -36 162 -56 q 189 11 189 -16 q 161 154 189 56 q 127 346 127 275 q 140 433 127 385 q 216 526 153 481 q 140 629 156 570 q 130 703 130 665 q 163 894 130 770 q 190 1040 190 994 q 177 1086 190 1065 q 130 1119 163 1107 q 34 1131 96 1131 l 34 1224 q 262 1135 217 1224 q 283 1032 283 1092 q 254 871 283 979 q 228 719 228 775 q 247 635 228 676 q 340 570 267 594 q 368 547 359 564 q 373 526 373 537 q 370 512 373 519 q 340 481 363 488 q 242 409 264 456 q 225 331 225 374 q 252 177 225 273 q 283 11 283 64 q 261 -84 283 -43 q 185 -150 239 -126 q 34 -173 132 -173 z "},"~":{"ha":661,"x_min":34,"x_max":627,"o":"m 436 399 q 371 414 397 399 q 327 451 345 429 q 293 499 309 474 q 263 540 279 522 q 225 558 248 558 q 121 411 176 558 l 34 444 q 112 593 72 545 q 225 652 160 652 q 292 637 266 652 q 337 599 319 622 q 372 550 356 576 q 400 510 385 528 q 436 493 415 493 q 539 640 484 493 l 627 607 q 549 458 589 506 q 436 399 500 399 z "},"¡":{"ha":209,"x_min":34,"x_max":175,"o":"m 81 842 l 175 838 l 170 715 l 76 720 l 81 842 m 70 573 l 163 569 l 127 -253 l 34 -249 l 70 573 z "},"¢":{"ha":692,"x_min":34,"x_max":658,"o":"m 220 117 l 399 674 q 356 678 379 678 q 196 601 257 678 q 127 378 127 513 q 145 252 127 313 q 220 117 169 168 m 228 -163 l 139 -135 l 190 22 q 56 222 94 90 q 34 378 34 298 q 56 529 34 456 q 123 659 79 602 q 356 772 211 772 q 429 764 394 772 l 475 907 l 564 878 l 515 725 q 545 701 530 714 q 658 513 627 628 l 568 488 q 484 630 544 576 l 304 71 q 356 65 328 65 q 497 121 440 65 l 563 55 q 356 -28 478 -28 q 275 -18 313 -28 l 228 -163 z "},"£":{"ha":699,"x_min":34,"x_max":665,"o":"m 665 -20 l 111 -17 q 64 26 64 -17 q 67 45 64 37 q 130 237 118 165 q 141 357 141 309 q 137 419 141 386 l 44 409 l 34 503 l 121 512 q 96 629 104 585 q 87 731 87 676 q 640 1099 87 1053 l 647 1006 q 286 911 402 985 q 182 731 182 845 q 206 557 182 659 l 215 522 l 455 547 l 465 454 l 231 429 q 235 357 235 390 q 231 273 235 317 q 180 73 220 187 l 665 73 l 665 -20 z "},"¤":{"ha":545,"x_min":34,"x_max":511,"o":"m 272 414 q 352 446 319 414 q 385 526 385 479 q 352 605 385 572 q 272 637 319 637 q 193 605 226 637 q 160 526 160 572 q 193 446 160 479 q 272 414 226 414 m 444 288 l 381 350 q 272 319 333 319 q 163 350 211 319 l 100 288 l 34 353 l 96 416 q 66 526 66 465 q 96 635 66 587 l 34 697 l 100 764 l 163 701 q 272 732 211 732 q 381 701 333 732 l 444 764 l 511 697 l 448 635 q 478 526 478 587 q 448 416 478 465 l 511 353 l 444 288 z "},"¥":{"ha":695,"x_min":34,"x_max":661,"o":"m 302 -7 l 300 90 l 168 90 l 168 184 l 298 184 l 296 237 l 170 230 l 165 323 l 294 330 l 294 376 q 109 512 176 395 q 34 865 34 643 q 38 973 34 917 l 132 967 q 127 865 127 916 q 189 559 127 667 q 339 467 242 467 q 501 562 444 467 q 568 869 568 672 q 558 1057 568 964 l 652 1066 q 661 869 661 965 q 581 513 661 646 q 387 376 510 395 l 388 336 l 518 342 l 523 249 l 390 241 l 391 184 l 520 184 l 520 90 l 394 90 l 396 -5 l 302 -7 z "},"§":{"ha":631,"x_min":34,"x_max":597,"o":"m 296 -144 q 109 -73 176 -144 l 176 -9 q 296 -50 216 -50 q 406 -18 365 -50 q 439 59 439 9 q 418 111 439 90 q 365 150 397 133 q 294 184 332 168 q 209 224 250 203 q 134 275 168 245 q 79 346 100 304 q 59 447 59 387 q 79 539 59 494 q 179 646 109 608 q 107 695 140 667 q 54 765 75 724 q 34 867 34 807 q 53 958 34 913 q 113 1038 73 1003 q 300 1099 186 1099 q 478 1043 397 1099 q 597 892 552 992 l 511 855 q 425 966 478 930 q 300 1006 363 1006 q 173 966 219 1006 q 127 867 127 927 q 154 785 127 817 q 221 730 180 753 q 306 689 262 708 q 404 641 359 667 q 478 577 450 615 q 507 479 507 539 q 440 330 507 385 q 313 278 387 287 q 430 222 395 241 q 504 157 475 195 q 533 59 533 119 q 466 -90 533 -35 q 296 -144 398 -144 m 271 370 q 380 402 340 370 q 414 479 414 429 q 340 570 414 531 l 309 585 q 199 547 239 582 q 153 447 153 507 q 159 403 153 423 q 271 370 199 370 z "},"¨":{"ha":355,"x_min":34,"x_max":321,"o":"m 134 852 l 34 852 l 34 952 l 134 952 l 134 852 m 321 852 l 221 852 l 221 952 l 321 952 l 321 852 z "},"©":{"ha":1060,"x_min":30,"x_max":1023,"o":"m 526 11 q 172 155 306 11 q 65 331 100 231 q 30 534 30 430 q 65 732 30 637 q 172 900 101 827 q 526 1040 307 1040 q 882 900 746 1040 q 988 732 952 827 q 1023 534 1023 637 q 988 331 1023 430 q 882 155 953 231 q 526 11 747 11 m 526 67 q 841 193 723 67 q 936 351 905 262 q 967 534 967 439 q 936 711 967 626 q 842 861 904 796 q 526 983 722 983 q 212 861 331 983 q 118 711 149 796 q 86 534 86 626 q 117 351 86 439 q 212 193 149 262 q 526 67 330 67 m 532 239 q 383 323 438 239 q 328 530 328 408 q 384 730 328 649 q 532 812 439 812 q 654 760 604 812 q 724 626 705 707 l 661 610 q 608 714 645 675 q 532 747 578 747 q 437 692 473 747 q 394 530 394 629 q 437 360 394 427 q 532 304 473 304 q 616 344 582 304 l 665 300 q 532 239 611 239 z "},"«":{"ha":572,"x_min":34,"x_max":538,"o":"m 227 98 l 44 343 q 34 371 35 356 q 43 400 34 387 l 227 646 l 302 589 l 140 372 l 302 155 l 227 98 m 463 98 l 279 343 q 270 371 270 356 l 270 373 q 279 400 270 387 l 463 646 l 538 589 l 375 372 l 538 155 l 463 98 z "},"¬":{"ha":573,"x_min":34,"x_max":539,"o":"m 539 273 l 445 273 l 445 479 l 34 479 l 34 572 l 539 572 l 539 273 z "},"®":{"ha":1061,"x_min":34,"x_max":1027,"o":"m 449 504 q 663 622 663 522 q 603 706 663 677 q 453 732 547 732 l 439 732 l 449 504 m 600 232 l 454 387 l 460 253 l 395 250 l 370 798 l 435 801 l 435 798 l 449 798 q 630 766 561 798 q 729 622 729 721 q 492 443 729 474 l 648 277 l 600 232 m 530 67 q 845 193 727 67 q 940 351 909 262 q 971 534 971 439 q 940 711 971 626 q 846 861 908 796 q 530 983 726 983 q 216 861 335 983 q 122 711 153 796 q 90 534 90 626 q 121 351 90 439 q 216 193 153 262 q 530 67 334 67 m 530 11 q 176 155 310 11 q 69 331 104 231 q 34 534 34 430 q 70 732 34 637 q 176 900 105 827 q 530 1040 311 1040 q 886 900 750 1040 q 992 732 956 827 q 1027 534 1027 637 q 992 331 1027 430 q 886 155 957 231 q 530 11 751 11 z "},"¯":{"ha":389,"x_min":34,"x_max":355,"o":"m 355 981 l 34 981 l 34 1075 l 355 1075 l 355 981 z "},"°":{"ha":380,"x_min":34,"x_max":347,"o":"m 190 757 q 80 803 125 757 q 34 913 34 849 q 80 1024 34 979 q 190 1070 125 1070 q 301 1024 255 1070 q 347 913 347 979 q 301 803 347 849 q 190 757 255 757 m 190 832 q 248 856 224 832 q 271 913 271 880 q 248 971 271 947 q 190 995 224 995 q 133 971 157 995 q 109 913 109 947 q 133 856 109 880 q 190 832 157 832 z "},"±":{"ha":573,"x_min":34,"x_max":539,"o":"m 334 479 l 334 273 l 239 273 l 239 479 l 34 479 l 34 572 l 239 572 l 239 779 l 334 779 l 334 572 l 539 572 l 539 479 l 334 479 m 34 0 l 34 94 l 539 94 l 539 0 l 34 0 z "},"´":{"ha":292,"x_min":34,"x_max":258,"o":"m 73 859 l 34 911 l 218 1048 l 258 995 l 73 859 z "},"µ":{"ha":604,"x_min":34,"x_max":570,"o":"m 58 -168 l 37 304 q 34 387 34 356 q 81 665 35 529 l 170 636 q 127 401 127 517 q 297 98 127 98 q 424 163 379 98 q 477 378 477 242 q 459 567 477 475 q 413 701 443 648 l 494 748 q 551 585 532 681 q 570 378 570 482 q 500 111 570 214 q 297 4 429 4 q 142 60 203 4 l 151 -165 l 58 -168 z "},"¶":{"ha":730,"x_min":34,"x_max":696,"o":"m 374 -157 l 281 -157 l 281 543 q 205 561 239 547 q 58 698 100 602 q 34 808 34 751 q 115 999 34 920 q 308 1078 196 1078 l 696 1078 l 696 984 l 612 984 l 560 -155 l 467 -151 l 519 984 l 376 984 l 374 -157 z "},"·":{"ha":345,"x_min":68,"x_max":165,"o":"m 165 460 l 68 460 l 68 577 l 165 577 l 165 460 z "},"∙":{"ha":345,"x_min":68,"x_max":165,"o":"m 165 460 l 68 460 l 68 577 l 165 577 l 165 460 z "},"¸":{"ha":320,"x_min":34,"x_max":286,"o":"m 58 -336 l 34 -275 q 210 -163 174 -219 q 220 -135 220 -147 q 212 -115 220 -123 q 186 -106 203 -106 q 108 -143 144 -106 q 85 -153 98 -153 q 62 -143 72 -153 q 52 -121 52 -133 q 106 33 52 -115 l 168 10 l 146 -46 q 186 -41 168 -41 q 257 -67 228 -41 q 286 -135 286 -94 q 58 -336 286 -245 z "},"»":{"ha":572,"x_min":34,"x_max":538,"o":"m 109 98 l 34 155 l 197 372 l 34 589 l 109 646 l 293 400 q 302 373 302 389 q 292 343 302 356 l 109 98 m 345 98 l 270 155 l 433 372 l 270 589 l 345 646 l 529 400 q 538 373 538 389 q 528 343 538 356 l 345 98 z "},"¼":{"ha":867,"x_min":68,"x_max":799,"o":"m 163 519 l 155 1003 l 94 1000 l 91 1065 q 186 1070 172 1070 q 210 1061 200 1070 q 220 1038 219 1052 l 229 520 l 163 519 m 117 -9 l 68 18 l 667 1061 l 716 1033 l 117 -9 m 734 0 l 732 112 l 527 113 q 506 122 513 113 q 498 144 498 131 q 541 522 498 152 l 606 515 l 568 178 l 731 178 l 725 518 l 790 519 l 799 1 l 734 0 z "},"½":{"ha":855,"x_min":68,"x_max":787,"o":"m 163 519 l 155 1003 l 94 1000 l 91 1065 q 186 1070 172 1070 q 210 1061 200 1070 q 220 1038 219 1052 l 229 520 l 163 519 m 117 -9 l 68 18 l 667 1061 l 716 1033 l 117 -9 m 766 0 l 537 0 q 504 26 504 0 q 516 56 504 43 q 722 384 722 267 q 674 466 722 435 q 498 511 618 501 l 503 576 q 787 384 787 554 q 615 66 787 259 l 766 66 l 766 0 z "},"¾":{"ha":1084,"x_min":68,"x_max":1017,"o":"m 268 496 q 150 528 208 496 q 68 614 99 557 l 126 644 q 183 585 148 604 q 268 562 224 562 q 352 585 321 562 q 380 633 380 606 q 334 694 380 671 q 170 722 279 722 q 149 730 158 722 q 137 754 137 740 q 143 773 137 764 q 164 787 151 784 q 304 841 257 806 q 348 905 348 873 q 296 968 348 937 q 129 1014 241 1001 l 136 1079 q 393 970 334 1057 q 414 905 414 939 q 342 788 414 841 q 315 770 330 779 q 427 700 395 748 q 446 633 446 669 q 390 532 446 574 q 268 496 342 496 m 334 -9 l 286 18 l 885 1061 l 934 1033 l 334 -9 m 951 0 l 949 112 l 745 113 q 724 122 731 113 q 716 144 716 131 q 758 522 716 152 l 823 515 l 785 178 l 949 178 l 943 518 l 1008 519 l 1017 1 l 951 0 z "},"¿":{"ha":722,"x_min":34,"x_max":688,"o":"m 407 574 l 407 418 q 376 372 407 384 q 202 258 262 328 q 128 79 128 173 q 143 1 128 38 q 212 -87 164 -52 q 392 -137 278 -137 q 650 -73 500 -137 l 688 -159 q 393 -230 520 -230 q 158 -163 249 -230 q 56 -35 87 -111 q 34 79 34 20 q 119 305 34 198 q 313 448 187 391 l 311 572 l 407 574 m 401 842 l 403 720 l 309 719 l 308 841 l 401 842 z "},"À":{"ha":756,"x_min":-23,"x_max":699,"o":"m 444 427 q 602 445 532 427 q 605 546 605 496 q 538 854 605 743 q 376 949 481 949 q 227 857 279 949 q 165 551 165 748 q 168 463 165 507 q 444 427 313 427 m 157 36 q 80 391 100 195 q -23 429 25 408 l 14 515 q 73 492 42 503 q 71 551 71 522 q 146 903 71 772 q 376 1042 225 1042 q 618 903 534 1042 q 699 546 699 769 q 680 271 699 414 q 629 37 663 142 l 540 66 q 595 347 578 185 q 444 333 526 333 q 177 365 317 333 q 245 67 199 199 l 157 36 m 291 1250 l 476 1113 l 437 1061 l 252 1197 l 291 1250 z "},"Á":{"ha":756,"x_min":-23,"x_max":699,"o":"m 444 427 q 602 445 532 427 q 605 546 605 496 q 538 854 605 743 q 376 949 481 949 q 227 857 279 949 q 165 551 165 748 q 168 463 165 507 q 444 427 313 427 m 157 36 q 80 391 100 195 q -23 429 25 408 l 14 515 q 73 492 42 503 q 71 551 71 522 q 146 903 71 772 q 376 1042 225 1042 q 618 903 534 1042 q 699 546 699 769 q 680 271 699 414 q 629 37 663 142 l 540 66 q 595 347 578 185 q 444 333 526 333 q 177 365 317 333 q 245 67 199 199 l 157 36 m 342 1061 l 303 1113 l 488 1250 l 527 1197 l 342 1061 z "},"Â":{"ha":756,"x_min":-23,"x_max":699,"o":"m 444 427 q 602 445 532 427 q 605 546 605 496 q 538 854 605 743 q 376 949 481 949 q 227 857 279 949 q 165 551 165 748 q 168 463 165 507 q 444 427 313 427 m 157 36 q 80 391 100 195 q -23 429 25 408 l 14 515 q 73 492 42 503 q 71 551 71 522 q 146 903 71 772 q 376 1042 225 1042 q 618 903 534 1042 q 699 546 699 769 q 680 271 699 414 q 629 37 663 142 l 540 66 q 595 347 578 185 q 444 333 526 333 q 177 365 317 333 q 245 67 199 199 l 157 36 m 543 1061 l 378 1183 l 212 1061 l 174 1113 l 358 1250 q 378 1256 368 1256 q 398 1249 388 1256 l 582 1113 l 543 1061 z "},"Ã":{"ha":756,"x_min":-23,"x_max":699,"o":"m 444 427 q 602 445 532 427 q 605 546 605 496 q 538 854 605 743 q 376 949 481 949 q 227 857 279 949 q 165 551 165 748 q 168 463 165 507 q 444 427 313 427 m 157 36 q 80 391 100 195 q -23 429 25 408 l 14 515 q 73 492 42 503 q 71 551 71 522 q 146 903 71 772 q 376 1042 225 1042 q 618 903 534 1042 q 699 546 699 769 q 680 271 699 414 q 629 37 663 142 l 540 66 q 595 347 578 185 q 444 333 526 333 q 177 365 317 333 q 245 67 199 199 l 157 36 m 464 1073 q 401 1091 425 1073 q 357 1132 377 1109 q 328 1160 344 1147 q 291 1172 312 1172 q 257 1154 273 1172 q 224 1089 236 1131 l 161 1106 q 209 1198 178 1164 q 291 1237 243 1237 q 359 1219 333 1237 q 406 1176 385 1200 q 432 1150 418 1161 q 464 1139 446 1139 q 498 1156 481 1139 q 531 1222 519 1180 l 594 1204 q 546 1112 578 1147 q 464 1073 511 1073 z "},"Ä":{"ha":756,"x_min":-23,"x_max":699,"o":"m 444 427 q 602 445 532 427 q 605 546 605 496 q 538 854 605 743 q 376 949 481 949 q 227 857 279 949 q 165 551 165 748 q 168 463 165 507 q 444 427 313 427 m 157 36 q 80 391 100 195 q -23 429 25 408 l 14 515 q 73 492 42 503 q 71 551 71 522 q 146 903 71 772 q 376 1042 225 1042 q 618 903 534 1042 q 699 546 699 769 q 680 271 699 414 q 629 37 663 142 l 540 66 q 595 347 578 185 q 444 333 526 333 q 177 365 317 333 q 245 67 199 199 l 157 36 m 322 1067 l 222 1067 l 222 1167 l 322 1167 l 322 1067 m 509 1067 l 410 1067 l 410 1167 l 509 1167 l 509 1067 z "},"Å":{"ha":756,"x_min":-23,"x_max":699,"o":"m 444 427 q 602 445 532 427 q 605 546 605 496 q 538 854 605 743 q 376 949 481 949 q 227 857 279 949 q 165 551 165 748 q 168 463 165 507 q 444 427 313 427 m 386 1058 q 445 1082 420 1058 q 469 1141 469 1107 q 445 1200 469 1176 q 386 1225 420 1225 q 327 1200 351 1225 q 302 1141 302 1176 q 327 1082 302 1107 q 386 1058 351 1058 m 468 1029 q 618 903 560 998 q 699 546 699 769 q 680 271 699 414 q 629 37 663 142 l 540 66 q 595 347 578 185 q 444 333 526 333 q 177 365 317 333 q 245 67 199 199 l 157 36 q 80 391 100 195 q -23 429 25 408 l 14 515 q 73 492 42 503 q 71 551 71 522 q 146 903 71 772 q 299 1032 203 1004 q 288 1043 293 1037 q 246 1141 246 1084 q 287 1240 246 1199 q 386 1281 328 1281 q 485 1240 444 1281 q 526 1141 526 1199 q 485 1043 526 1084 q 468 1029 477 1035 z "},"Æ":{"ha":903,"x_min":-23,"x_max":904,"o":"m 512 4 l 418 4 l 418 335 q 177 365 280 341 q 245 67 199 199 l 157 36 q 80 391 100 195 q -23 429 25 408 l 14 515 q 73 492 42 503 q 71 551 71 522 q 152 893 71 751 q 418 1042 237 1042 l 418 1056 l 512 1056 l 512 1023 l 900 1044 l 904 951 l 512 929 l 512 487 l 840 469 l 836 375 l 512 393 l 512 132 l 900 154 l 904 60 l 512 39 l 512 4 m 418 429 l 418 949 q 233 846 291 949 q 165 551 165 726 q 168 463 165 507 q 418 429 276 436 z "},"Ç":{"ha":736,"x_min":28,"x_max":756,"o":"m 365 -1 q 130 153 220 15 q 53 333 78 232 q 28 539 28 434 q 54 741 28 644 q 130 913 79 838 q 404 1065 233 1065 q 626 970 534 1065 q 756 720 720 872 l 665 698 q 559 904 635 826 q 404 970 495 970 q 207 860 282 970 q 143 714 164 798 q 121 539 121 631 q 143 359 121 446 q 208 205 164 271 q 404 92 282 92 q 576 172 506 92 l 646 110 q 536 26 599 56 q 435 -1 489 3 l 420 -39 q 460 -33 441 -33 q 531 -60 502 -33 q 560 -127 560 -87 q 332 -329 560 -237 l 308 -268 q 484 -155 448 -212 q 494 -127 494 -140 q 486 -107 494 -115 q 460 -99 477 -99 q 382 -136 418 -99 q 359 -146 372 -146 q 336 -136 346 -146 q 326 -113 326 -125 q 365 -1 326 -108 z "},"È":{"ha":621,"x_min":75,"x_max":621,"o":"m 168 4 l 75 4 l 75 1056 l 168 1056 l 168 1023 l 617 1044 l 621 951 l 168 929 l 168 487 l 557 469 l 553 375 l 168 393 l 168 132 l 617 154 l 621 60 l 168 39 l 168 4 m 237 1265 l 422 1128 l 383 1076 l 199 1212 l 237 1265 z "},"É":{"ha":621,"x_min":75,"x_max":621,"o":"m 168 4 l 75 4 l 75 1056 l 168 1056 l 168 1023 l 617 1044 l 621 951 l 168 929 l 168 487 l 557 469 l 553 375 l 168 393 l 168 132 l 617 154 l 621 60 l 168 39 l 168 4 m 312 1076 l 273 1128 l 458 1265 l 497 1212 l 312 1076 z "},"Ê":{"ha":621,"x_min":75,"x_max":621,"o":"m 168 4 l 75 4 l 75 1056 l 168 1056 l 168 1023 l 617 1044 l 621 951 l 168 929 l 168 487 l 557 469 l 553 375 l 168 393 l 168 132 l 617 154 l 621 60 l 168 39 l 168 4 m 513 1079 l 348 1201 l 182 1079 l 144 1131 l 328 1268 q 348 1274 338 1274 q 368 1267 358 1274 l 552 1131 l 513 1079 z "},"Ë":{"ha":621,"x_min":75,"x_max":621,"o":"m 168 4 l 75 4 l 75 1056 l 168 1056 l 168 1023 l 617 1044 l 621 951 l 168 929 l 168 487 l 557 469 l 553 375 l 168 393 l 168 132 l 617 154 l 621 60 l 168 39 l 168 4 m 304 1107 l 205 1107 l 205 1207 l 304 1207 l 304 1107 m 492 1107 l 392 1107 l 392 1207 l 492 1207 l 492 1107 z "},"Ì":{"ha":287,"x_min":7,"x_max":267,"o":"m 93 902 l 30 902 l 30 996 l 249 996 l 249 902 l 186 902 l 203 41 l 267 41 l 267 -53 l 47 -53 l 47 41 l 109 41 l 93 902 m 46 1243 l 231 1106 l 192 1054 l 7 1190 l 46 1243 z "},"Í":{"ha":268,"x_min":7,"x_max":248,"o":"m 71 902 l 7 902 l 7 996 l 227 996 l 227 902 l 164 902 l 180 41 l 244 41 l 244 -53 l 25 -53 l 25 41 l 87 41 l 71 902 m 62 1054 l 24 1106 l 208 1243 l 248 1190 l 62 1054 z "},"Î":{"ha":300,"x_min":-50,"x_max":358,"o":"m 98 902 l 35 902 l 35 996 l 254 996 l 254 902 l 192 902 l 208 41 l 272 41 l 272 -53 l 53 -53 l 53 41 l 115 41 l 98 902 m 319 1072 l 154 1194 l -12 1072 l -50 1124 l 134 1261 q 154 1267 144 1267 q 174 1260 164 1267 l 358 1124 l 319 1072 z "},"Ï":{"ha":315,"x_min":7,"x_max":294,"o":"m 106 902 l 43 902 l 43 996 l 262 996 l 262 902 l 200 902 l 216 41 l 280 41 l 280 -53 l 61 -53 l 61 41 l 123 41 l 106 902 m 107 1100 l 7 1100 l 7 1200 l 107 1200 l 107 1100 m 294 1100 l 195 1100 l 195 1200 l 294 1200 l 294 1100 z "},"Ð":{"ha":793,"x_min":-3,"x_max":761,"o":"m 191 79 q 461 170 354 100 q 633 368 584 252 q 667 524 667 444 q 621 699 667 617 q 461 847 569 794 q 206 900 354 900 l 199 536 l 418 536 l 418 443 l 197 443 l 191 79 m 189 -37 l 96 -36 l 104 443 l -3 443 l -3 536 l 106 536 l 115 1017 l 208 1015 l 208 994 q 502 932 382 994 q 703 746 638 863 q 761 524 761 642 q 720 330 761 425 q 517 95 660 192 q 189 -15 387 7 l 189 -37 z "},"Ñ":{"ha":753,"x_min":75,"x_max":701,"o":"m 608 -1 l 591 320 l 169 890 l 174 56 l 81 55 l 75 1032 q 88 1066 75 1053 q 121 1079 102 1079 q 159 1061 145 1079 l 581 490 l 552 1032 l 646 1037 l 701 3 l 608 -1 m 460 1125 q 397 1143 421 1125 q 353 1184 373 1161 q 324 1212 340 1200 q 287 1224 308 1224 q 253 1206 269 1224 q 220 1141 232 1183 l 157 1158 q 205 1251 174 1216 q 287 1289 239 1289 q 355 1271 329 1289 q 401 1228 381 1253 q 428 1202 414 1213 q 460 1191 442 1192 q 494 1208 477 1191 q 527 1274 515 1232 l 590 1257 q 542 1164 574 1199 q 460 1125 507 1125 z "},"Ò":{"ha":831,"x_min":28,"x_max":782,"o":"m 405 66 q 602 180 526 66 q 666 333 644 246 q 688 512 688 419 q 666 703 688 610 q 601 865 645 795 q 405 985 526 985 q 208 870 283 985 q 143 717 165 804 q 121 534 121 630 q 143 345 121 437 q 208 184 165 254 q 405 66 283 66 m 405 -28 q 130 134 232 -28 q 53 320 78 215 q 28 534 28 425 q 54 744 28 643 q 130 922 79 844 q 405 1080 233 1080 q 680 916 578 1080 q 756 728 731 834 q 782 512 782 623 q 756 306 782 406 q 679 128 730 206 q 405 -28 575 -28 m 294 1305 l 479 1168 l 439 1116 l 255 1252 l 294 1305 z "},"Ó":{"ha":831,"x_min":28,"x_max":782,"o":"m 405 66 q 602 180 526 66 q 666 333 644 246 q 688 512 688 419 q 666 703 688 610 q 601 865 645 795 q 405 985 526 985 q 208 870 283 985 q 143 717 165 804 q 121 534 121 630 q 143 345 121 437 q 208 184 165 254 q 405 66 283 66 m 405 -28 q 130 134 232 -28 q 53 320 78 215 q 28 534 28 425 q 54 744 28 643 q 130 922 79 844 q 405 1080 233 1080 q 680 916 578 1080 q 756 728 731 834 q 782 512 782 623 q 756 306 782 406 q 679 128 730 206 q 405 -28 575 -28 m 368 1108 l 330 1160 l 514 1297 l 553 1244 l 368 1108 z "},"Ô":{"ha":831,"x_min":28,"x_max":782,"o":"m 405 66 q 602 180 526 66 q 666 333 644 246 q 688 512 688 419 q 666 703 688 610 q 601 865 645 795 q 405 985 526 985 q 208 870 283 985 q 143 717 165 804 q 121 534 121 630 q 143 345 121 437 q 208 184 165 254 q 405 66 283 66 m 405 -28 q 130 134 232 -28 q 53 320 78 215 q 28 534 28 425 q 54 744 28 643 q 130 922 79 844 q 405 1080 233 1080 q 680 916 578 1080 q 756 728 731 834 q 782 512 782 623 q 756 306 782 406 q 679 128 730 206 q 405 -28 575 -28 m 570 1096 l 404 1218 l 239 1096 l 200 1148 l 385 1285 q 404 1291 395 1291 q 425 1284 414 1291 l 608 1148 l 570 1096 z "},"Õ":{"ha":831,"x_min":28,"x_max":782,"o":"m 405 66 q 602 180 526 66 q 666 333 644 246 q 688 512 688 419 q 666 703 688 610 q 601 865 645 795 q 405 985 526 985 q 208 870 283 985 q 143 717 165 804 q 121 534 121 630 q 143 345 121 437 q 208 184 165 254 q 405 66 283 66 m 405 -28 q 130 134 232 -28 q 53 320 78 215 q 28 534 28 425 q 54 744 28 643 q 130 922 79 844 q 405 1080 233 1080 q 680 916 578 1080 q 756 728 731 834 q 782 512 782 623 q 756 306 782 406 q 679 128 730 206 q 405 -28 575 -28 m 490 1120 q 428 1138 452 1120 q 384 1179 404 1156 q 354 1207 370 1195 q 317 1219 338 1219 q 283 1202 300 1219 q 251 1137 262 1179 l 188 1154 q 235 1246 204 1211 q 317 1284 270 1284 q 386 1266 359 1284 q 432 1223 412 1248 q 459 1198 445 1208 q 490 1186 473 1187 q 524 1204 508 1186 q 557 1270 545 1227 l 621 1252 q 572 1160 604 1194 q 490 1120 538 1120 z "},"Ö":{"ha":831,"x_min":28,"x_max":782,"o":"m 405 66 q 602 180 526 66 q 666 333 644 246 q 688 512 688 419 q 666 703 688 610 q 601 865 645 795 q 405 985 526 985 q 208 870 283 985 q 143 717 165 804 q 121 534 121 630 q 143 345 121 437 q 208 184 165 254 q 405 66 283 66 m 405 -28 q 130 134 232 -28 q 53 320 78 215 q 28 534 28 425 q 54 744 28 643 q 130 922 79 844 q 405 1080 233 1080 q 680 916 578 1080 q 756 728 731 834 q 782 512 782 623 q 756 306 782 406 q 679 128 730 206 q 405 -28 575 -28 m 361 1158 l 261 1158 l 261 1258 l 361 1258 l 361 1158 m 548 1158 l 448 1158 l 448 1258 l 548 1258 l 548 1158 z "},"×":{"ha":544,"x_min":34,"x_max":510,"o":"m 444 288 l 272 459 l 100 288 l 34 353 l 205 526 l 34 697 l 100 764 l 272 592 l 444 764 l 510 697 l 338 526 l 510 353 l 444 288 z "},"Ø":{"ha":831,"x_min":28,"x_max":782,"o":"m 241 -131 l 152 -102 l 201 48 q 130 134 161 83 q 53 320 78 215 q 28 534 28 425 q 54 744 28 643 q 130 922 79 844 q 405 1080 233 1080 q 528 1055 471 1080 l 569 1182 l 658 1154 l 609 1002 q 680 916 648 967 q 756 728 731 834 q 782 512 782 623 q 756 306 782 406 q 679 128 730 206 q 405 -28 575 -28 q 282 -4 338 -28 l 241 -131 m 234 149 l 498 964 q 405 985 456 985 q 208 870 283 985 q 143 717 165 804 q 121 534 121 630 q 143 345 121 437 q 234 149 172 224 m 405 66 q 602 180 526 66 q 666 333 644 246 q 688 512 688 419 q 667 703 688 610 q 576 901 638 824 l 311 87 q 405 66 354 66 z "},"Ù":{"ha":760,"x_min":39,"x_max":707,"o":"m 363 5 q 120 142 204 5 q 39 496 39 273 q 64 760 39 627 q 132 1012 90 901 l 219 979 q 156 744 180 877 q 133 496 133 618 q 199 191 133 300 q 363 98 256 98 q 542 195 479 98 q 612 501 612 304 q 593 763 612 628 q 543 980 576 884 l 631 1011 q 686 777 668 905 q 707 501 707 633 q 620 143 707 277 q 363 5 530 5 m 262 1261 l 448 1124 l 408 1072 l 224 1208 l 262 1261 z "},"Ú":{"ha":760,"x_min":39,"x_max":707,"o":"m 363 5 q 120 142 204 5 q 39 496 39 273 q 64 760 39 627 q 132 1012 90 901 l 219 979 q 156 744 180 877 q 133 496 133 618 q 199 191 133 300 q 363 98 256 98 q 542 195 479 98 q 612 501 612 304 q 593 763 612 628 q 543 980 576 884 l 631 1011 q 686 777 668 905 q 707 501 707 633 q 620 143 707 277 q 363 5 530 5 m 337 1078 l 298 1131 l 483 1267 l 522 1215 l 337 1078 z "},"Û":{"ha":760,"x_min":39,"x_max":707,"o":"m 363 5 q 120 142 204 5 q 39 496 39 273 q 64 760 39 627 q 132 1012 90 901 l 219 979 q 156 744 180 877 q 133 496 133 618 q 199 191 133 300 q 363 98 256 98 q 542 195 479 98 q 612 501 612 304 q 593 763 612 628 q 543 980 576 884 l 631 1011 q 686 777 668 905 q 707 501 707 633 q 620 143 707 277 q 363 5 530 5 m 538 1076 l 373 1198 l 208 1076 l 169 1128 l 353 1265 q 373 1271 363 1271 q 393 1264 383 1271 l 577 1128 l 538 1076 z "},"Ü":{"ha":760,"x_min":39,"x_max":707,"o":"m 363 5 q 120 142 204 5 q 39 496 39 273 q 64 760 39 627 q 132 1012 90 901 l 219 979 q 156 744 180 877 q 133 496 133 618 q 199 191 133 300 q 363 98 256 98 q 542 195 479 98 q 612 501 612 304 q 593 763 612 628 q 543 980 576 884 l 631 1011 q 686 777 668 905 q 707 501 707 633 q 620 143 707 277 q 363 5 530 5 m 330 1076 l 230 1076 l 230 1177 l 330 1177 l 330 1076 m 517 1076 l 417 1076 l 417 1177 l 517 1177 l 517 1076 z "},"Ý":{"ha":686,"x_min":40,"x_max":667,"o":"m 309 -7 l 300 376 q 115 512 182 395 q 40 865 40 643 q 44 973 40 917 l 138 967 q 134 865 134 916 q 195 559 134 667 q 345 467 248 467 q 507 562 450 467 q 574 869 574 672 q 565 1057 574 964 l 658 1066 q 667 869 667 965 q 587 513 667 646 q 393 376 516 395 l 402 -5 l 309 -7 m 318 1083 l 279 1135 l 464 1272 l 503 1219 l 318 1083 z "},"Þ":{"ha":728,"x_min":56,"x_max":709,"o":"m 177 335 q 616 580 616 369 q 494 755 616 699 q 197 806 384 806 l 155 806 l 177 335 m 104 -134 q 56 996 56 975 l 149 996 q 151 899 149 977 l 195 900 q 533 840 404 900 q 709 578 709 760 q 559 336 709 420 q 181 242 425 260 l 198 -130 l 104 -134 z "},"ß":{"ha":726,"x_min":47,"x_max":718,"o":"m 480 -7 q 292 69 360 -7 l 362 131 q 480 87 401 87 q 589 121 549 87 q 623 208 623 152 q 606 267 623 241 q 499 351 578 305 q 417 405 456 376 q 354 474 379 433 q 329 576 329 514 q 347 667 329 626 q 389 749 366 709 q 425 817 409 782 q 441 892 441 852 q 408 974 441 939 q 330 1006 378 1006 q 141 591 141 1006 q 221 86 141 351 l 132 59 q 47 591 47 339 q 112 958 47 829 q 330 1099 183 1099 q 475 1038 416 1099 q 534 892 534 976 q 515 789 534 834 q 471 703 495 744 q 437 639 452 671 q 423 576 423 608 q 446 509 423 538 q 548 431 473 475 q 681 326 644 376 q 718 208 718 277 q 650 51 718 109 q 480 -7 583 -7 z "},"à":{"ha":606,"x_min":-3,"x_max":534,"o":"m 534 90 l 441 90 l 441 134 q 302 119 364 119 q 104 171 182 119 q -3 370 -3 244 q 34 516 -3 446 q 144 640 71 586 q 441 735 254 721 l 441 778 l 534 778 l 534 90 m 302 212 q 441 231 363 212 l 441 641 q 199 564 286 629 q 118 474 145 524 q 91 370 91 424 q 156 249 91 293 q 302 212 210 212 m 207 1015 l 392 878 l 353 826 l 168 962 l 207 1015 z "},"á":{"ha":607,"x_min":-1,"x_max":536,"o":"m 536 90 l 442 90 l 442 134 q 303 119 366 119 q 105 171 184 119 q -1 370 -1 244 q 36 516 -1 446 q 145 640 73 586 q 442 735 255 721 l 442 778 l 536 778 l 536 90 m 303 212 q 442 231 364 212 l 442 641 q 200 564 288 629 q 119 474 146 524 q 92 370 92 424 q 157 249 92 293 q 303 212 212 212 m 245 816 l 207 868 l 391 1005 l 431 952 l 245 816 z "},"â":{"ha":610,"x_min":2,"x_max":539,"o":"m 539 90 l 446 90 l 446 134 q 307 119 369 119 q 109 171 187 119 q 2 370 2 244 q 39 516 2 446 q 149 640 76 586 q 446 735 258 721 l 446 778 l 539 778 l 539 90 m 307 212 q 446 231 368 212 l 446 641 q 203 564 291 629 q 123 474 150 524 q 96 370 96 424 q 161 249 96 293 q 307 212 215 212 m 458 859 l 292 981 l 127 859 l 88 911 l 273 1048 q 292 1054 283 1054 q 313 1047 302 1054 l 496 911 l 458 859 z "},"ã":{"ha":610,"x_min":1,"x_max":538,"o":"m 538 90 l 445 90 l 445 134 q 306 119 368 119 q 108 171 186 119 q 1 370 1 244 q 38 516 1 446 q 148 640 75 586 q 445 735 258 721 l 445 778 l 538 778 l 538 90 m 306 212 q 445 231 367 212 l 445 641 q 203 564 290 629 q 122 474 149 524 q 95 370 95 424 q 160 249 95 293 q 306 212 214 212 m 366 869 q 303 887 328 869 q 260 928 279 905 q 230 956 246 943 q 193 968 214 968 q 159 950 176 968 q 127 885 138 927 l 64 902 q 111 994 80 960 q 193 1033 146 1033 q 261 1015 235 1033 q 308 972 288 996 q 335 946 321 957 q 366 935 349 935 q 400 952 384 935 q 433 1018 421 976 l 496 1000 q 448 908 480 943 q 366 869 414 869 z "},"ä":{"ha":610,"x_min":2,"x_max":539,"o":"m 539 90 l 446 90 l 446 134 q 307 119 369 119 q 109 171 187 119 q 2 370 2 244 q 39 516 2 446 q 149 640 76 586 q 446 735 258 721 l 446 778 l 539 778 l 539 90 m 307 212 q 446 231 368 212 l 446 641 q 203 564 291 629 q 123 474 150 524 q 96 370 96 424 q 161 249 96 293 q 307 212 215 212 m 247 852 l 147 852 l 147 952 l 247 952 l 247 852 m 434 852 l 334 852 l 334 952 l 434 952 l 434 852 z "},"å":{"ha":606,"x_min":-3,"x_max":534,"o":"m 534 90 l 441 90 l 441 134 q 302 119 364 119 q 104 171 182 119 q -3 370 -3 244 q 34 516 -3 446 q 144 640 71 586 q 441 735 254 721 l 441 778 l 534 778 l 534 90 m 302 212 q 441 231 363 212 l 441 641 q 199 564 286 629 q 118 474 145 524 q 91 370 91 424 q 156 249 91 293 q 302 212 210 212 m 308 781 q 209 822 250 781 q 168 921 168 863 q 209 1020 168 979 q 308 1061 250 1061 q 407 1020 366 1061 q 448 921 448 979 q 407 822 448 863 q 308 781 366 781 m 308 838 q 367 862 342 838 q 391 921 391 886 q 367 980 391 956 q 308 1004 342 1004 q 249 980 273 1004 q 224 921 224 956 q 249 862 224 886 q 308 838 273 838 z "},"æ":{"ha":983,"x_min":-19,"x_max":958,"o":"m 625 332 q 790 378 725 332 q 865 505 865 432 q 831 577 865 547 q 739 606 798 606 q 592 548 654 606 q 522 363 522 482 l 522 343 q 625 332 578 332 m 201 92 q 347 150 285 92 q 418 334 418 216 l 418 355 q 315 366 362 366 q 150 320 214 366 q 75 193 75 266 q 109 121 75 151 q 201 92 142 92 m 783 -2 q 632 24 696 -2 q 475 164 527 68 q 310 18 421 58 q 201 -2 255 -2 q 47 50 106 -2 q -19 193 -19 107 q 96 397 -19 314 q 315 460 184 460 q 398 454 354 460 q 157 606 340 606 q 110 604 133 606 l 100 697 q 157 700 131 700 q 307 673 243 700 q 464 533 412 629 q 630 680 519 641 q 739 700 685 700 q 893 648 833 700 q 958 505 958 591 q 843 301 958 384 q 625 237 755 237 q 542 244 586 237 q 593 162 559 198 q 783 92 659 92 q 830 94 806 92 l 840 1 q 783 -2 808 -2 z "},"ç":{"ha":634,"x_min":14,"x_max":637,"o":"m 292 -26 q 201 3 242 -19 q 102 87 142 35 q 36 222 58 146 q 14 378 14 298 q 36 529 14 456 q 102 659 58 602 q 336 772 191 772 q 525 701 446 772 q 637 513 606 628 l 547 488 q 463 631 524 577 q 336 678 411 678 q 244 657 284 678 q 176 601 203 636 q 124 499 142 557 q 107 378 107 441 q 124 252 107 313 q 176 144 142 191 q 336 65 236 65 q 477 121 420 65 l 543 55 q 361 -28 467 -20 l 354 -46 q 394 -41 375 -41 q 465 -67 435 -41 q 494 -135 494 -94 q 265 -336 494 -245 l 241 -275 q 418 -163 382 -219 q 428 -135 428 -147 q 419 -115 428 -123 q 394 -106 410 -106 q 315 -143 352 -106 q 292 -153 305 -153 q 270 -143 279 -153 q 260 -121 260 -133 q 292 -26 260 -116 z "},"è":{"ha":564,"x_min":9,"x_max":540,"o":"m 364 -2 q 214 24 277 -2 q 41 199 91 76 q 9 363 9 276 q 37 515 9 451 q 111 620 65 578 q 211 680 156 661 q 320 700 267 700 q 474 648 414 700 q 540 505 540 591 q 425 301 540 384 q 206 237 336 237 q 123 244 167 237 q 174 162 140 198 q 364 92 241 92 q 412 94 388 92 l 421 1 q 364 -2 390 -2 m 206 332 q 371 378 307 332 q 446 505 446 432 q 413 577 446 547 q 320 606 380 606 q 174 548 236 606 q 103 363 103 482 l 103 343 q 206 332 159 332 m 194 927 l 379 790 l 340 738 l 155 874 l 194 927 z "},"é":{"ha":563,"x_min":7,"x_max":538,"o":"m 363 -2 q 212 24 276 -2 q 39 199 90 76 q 7 363 7 276 q 36 515 7 451 q 109 620 64 578 q 210 680 155 661 q 319 700 265 700 q 473 648 413 700 q 538 505 538 591 q 423 301 538 384 q 205 237 335 237 q 122 244 165 237 q 173 162 139 198 q 363 92 239 92 q 410 94 387 92 l 420 1 q 363 -2 389 -2 m 205 332 q 370 378 305 332 q 445 505 445 432 q 412 577 445 547 q 319 606 378 606 q 172 548 235 606 q 102 363 102 482 l 102 343 q 205 332 158 332 m 282 739 l 243 791 l 428 928 l 467 876 l 282 739 z "},"ê":{"ha":565,"x_min":12,"x_max":543,"o":"m 367 -2 q 216 24 280 -2 q 43 199 94 76 q 12 363 12 276 q 40 515 12 451 q 113 620 68 578 q 214 680 159 661 q 323 700 269 700 q 477 648 417 700 q 543 505 543 591 q 427 301 543 384 q 209 237 339 237 q 126 244 170 237 q 177 162 143 198 q 367 92 243 92 q 414 94 391 92 l 424 1 q 367 -2 393 -2 m 209 332 q 374 378 309 332 q 449 505 449 432 q 416 577 449 547 q 323 606 382 606 q 176 548 239 606 q 106 363 106 482 l 106 343 q 209 332 162 332 m 465 743 l 300 865 l 134 743 l 96 795 l 280 932 q 300 938 290 938 q 320 931 310 938 l 504 795 l 465 743 z "},"ë":{"ha":563,"x_min":14,"x_max":545,"o":"m 369 -2 q 218 24 282 -2 q 45 199 96 76 q 14 363 14 276 q 42 515 14 451 q 115 620 70 578 q 216 680 161 661 q 325 700 271 700 q 479 648 419 700 q 545 505 545 591 q 429 301 545 384 q 211 237 341 237 q 128 244 172 237 q 179 162 145 198 q 369 92 245 92 q 416 94 393 92 l 426 1 q 369 -2 395 -2 m 211 332 q 376 378 311 332 q 451 505 451 432 q 418 577 451 547 q 325 606 385 606 q 178 548 241 606 q 108 363 108 482 l 108 343 q 211 332 164 332 m 281 758 l 181 758 l 181 858 l 281 858 l 281 758 m 468 758 l 368 758 l 368 858 l 468 858 l 468 758 z "},"ì":{"ha":245,"x_min":-4,"x_max":220,"o":"m 158 24 l 64 28 l 99 651 l 193 646 l 158 24 m 35 857 l 220 720 l 180 668 l -4 804 l 35 857 z "},"í":{"ha":247,"x_min":38,"x_max":268,"o":"m 132 24 l 38 28 l 73 651 l 166 646 l 132 24 m 83 668 l 44 720 l 229 857 l 268 804 l 83 668 z "},"î":{"ha":358,"x_min":-17,"x_max":391,"o":"m 200 24 l 106 28 l 141 651 l 235 646 l 200 24 m 353 668 l 187 790 l 22 668 l -17 720 l 168 857 q 187 863 178 863 q 208 857 197 863 l 391 720 l 353 668 z "},"ï":{"ha":302,"x_min":14,"x_max":300,"o":"m 170 24 l 76 28 l 111 651 l 204 646 l 170 24 m 113 715 l 14 715 l 14 815 l 113 815 l 113 715 m 300 715 l 201 715 l 201 815 l 300 815 l 300 715 z "},"ð":{"ha":674,"x_min":7,"x_max":652,"o":"m 377 125 q 507 140 435 125 l 489 641 q 129 460 212 617 q 102 350 102 408 q 191 178 102 242 q 377 125 261 125 m 576 815 l 606 -18 l 512 -21 l 510 45 q 377 32 437 32 q 136 101 231 32 q 7 350 7 195 q 45 501 7 430 q 486 734 151 707 l 483 815 l 294 815 l 294 909 l 479 909 l 476 1013 l 570 1016 l 573 909 l 652 909 l 652 815 l 576 815 z "},"ñ":{"ha":691,"x_min":39,"x_max":643,"o":"m 615 35 l 522 50 q 549 336 549 208 q 512 572 549 484 q 389 675 476 657 q 355 677 374 677 q 251 637 295 677 q 184 533 208 597 q 163 418 163 478 q 185 50 163 407 l 92 43 l 39 748 l 133 754 l 140 651 q 355 772 226 772 q 404 768 380 772 q 643 336 643 726 q 615 35 643 201 m 427 837 q 365 855 389 837 q 321 896 340 873 q 291 924 307 911 q 254 936 275 936 q 220 918 237 936 q 188 853 199 895 l 125 870 q 172 962 141 928 q 254 1001 207 1001 q 322 983 296 1001 q 369 940 349 964 q 396 914 382 925 q 427 903 410 903 q 461 920 445 903 q 494 986 482 944 l 557 968 q 509 876 541 911 q 427 837 475 837 z "},"ò":{"ha":680,"x_min":9,"x_max":644,"o":"m 326 65 q 416 86 377 65 q 483 142 455 106 q 533 243 516 185 q 550 362 550 300 q 533 490 550 428 q 482 598 517 551 q 326 678 423 678 q 170 601 229 678 q 102 378 102 514 q 119 252 102 313 q 170 144 136 191 q 326 65 229 65 m 326 -28 q 193 3 250 -28 q 96 88 135 35 q 30 223 52 147 q 9 378 9 298 q 31 529 9 456 q 96 659 53 602 q 326 772 183 772 q 460 740 402 772 q 557 654 517 708 q 623 518 601 595 q 644 362 644 442 q 622 213 644 286 q 556 84 600 140 q 326 -28 469 -28 m 216 1013 l 401 876 l 361 823 l 177 960 l 216 1013 z "},"ó":{"ha":684,"x_min":14,"x_max":649,"o":"m 331 65 q 421 86 382 65 q 488 142 460 106 q 538 243 521 185 q 555 362 555 300 q 538 490 555 428 q 487 598 522 551 q 331 678 428 678 q 174 601 234 678 q 107 378 107 514 q 124 252 107 313 q 175 144 141 191 q 331 65 234 65 m 331 -28 q 197 3 255 -28 q 100 88 140 35 q 35 223 56 147 q 14 378 14 298 q 36 529 14 456 q 100 659 58 602 q 331 772 188 772 q 465 740 407 772 q 562 654 522 708 q 627 518 606 595 q 649 362 649 442 q 627 213 649 286 q 561 84 605 140 q 331 -28 473 -28 m 295 828 l 256 880 l 441 1017 l 480 964 l 295 828 z "},"ô":{"ha":687,"x_min":16,"x_max":652,"o":"m 334 65 q 424 86 385 65 q 490 142 463 106 q 541 243 524 185 q 557 362 557 300 q 541 490 557 428 q 490 598 524 551 q 334 678 431 678 q 177 601 237 678 q 110 378 110 514 q 127 252 110 313 q 178 144 144 191 q 334 65 237 65 m 334 -28 q 200 3 258 -28 q 103 88 142 35 q 38 223 59 147 q 16 378 16 298 q 38 529 16 456 q 103 659 60 602 q 334 772 191 772 q 467 740 410 772 q 565 654 525 708 q 630 518 608 595 q 652 362 652 442 q 630 213 652 286 q 564 84 608 140 q 334 -28 476 -28 m 499 821 l 334 943 l 168 821 l 130 873 l 314 1010 q 334 1016 324 1016 q 354 1009 344 1016 l 538 873 l 499 821 z "},"õ":{"ha":688,"x_min":17,"x_max":652,"o":"m 334 65 q 424 86 385 65 q 491 142 463 106 q 541 243 524 185 q 558 362 558 300 q 542 490 558 428 q 490 598 525 551 q 334 678 431 678 q 178 601 237 678 q 111 378 111 514 q 127 252 111 313 q 178 144 144 191 q 334 65 237 65 m 334 -28 q 201 3 258 -28 q 104 88 143 35 q 38 223 60 147 q 17 378 17 298 q 39 529 17 456 q 104 659 61 602 q 334 772 191 772 q 468 740 410 772 q 566 654 526 708 q 631 518 609 595 q 652 362 652 442 q 630 213 652 286 q 564 84 608 140 q 334 -28 477 -28 m 420 836 q 358 854 382 836 q 314 895 334 872 q 284 923 300 911 q 248 935 269 935 q 214 918 230 935 q 181 852 193 895 l 118 869 q 165 962 134 927 q 248 1000 200 1000 q 316 982 290 1000 q 362 939 342 964 q 389 913 375 924 q 420 902 403 903 q 454 920 438 902 q 488 985 475 943 l 551 968 q 503 876 534 910 q 420 836 468 836 z "},"ö":{"ha":687,"x_min":16,"x_max":652,"o":"m 334 65 q 424 86 385 65 q 490 142 463 106 q 541 243 524 185 q 557 362 557 300 q 541 490 557 428 q 490 598 524 551 q 334 678 431 678 q 177 601 237 678 q 110 378 110 514 q 127 252 110 313 q 178 144 144 191 q 334 65 237 65 m 334 -28 q 200 3 258 -28 q 103 88 142 35 q 38 223 59 147 q 16 378 16 298 q 38 529 16 456 q 103 659 60 602 q 334 772 191 772 q 467 740 410 772 q 565 654 525 708 q 630 518 608 595 q 652 362 652 442 q 630 213 652 286 q 564 84 608 140 q 334 -28 476 -28 m 290 829 l 191 829 l 191 930 l 290 930 l 290 829 m 477 829 l 378 829 l 378 930 l 477 930 l 477 829 z "},"÷":{"ha":573,"x_min":34,"x_max":539,"o":"m 34 479 l 34 572 l 539 572 l 539 479 l 34 479 m 344 102 l 229 102 l 229 241 l 344 241 l 344 102 m 344 810 l 229 810 l 229 949 l 344 949 l 344 810 z "},"ø":{"ha":697,"x_min":14,"x_max":649,"o":"m 494 722 q 562 654 532 694 q 627 518 606 595 q 649 362 649 442 q 627 213 649 286 q 561 84 605 140 q 331 -28 473 -28 q 254 -19 290 -28 l 208 -163 l 119 -135 l 169 21 q 100 88 130 48 q 35 223 56 147 q 14 378 14 298 q 36 529 14 456 q 100 659 58 602 q 331 772 188 772 q 408 762 372 772 l 454 907 l 544 878 l 494 722 m 199 117 l 379 673 q 331 678 356 678 q 174 601 234 678 q 107 378 107 514 q 124 252 107 313 q 175 144 141 191 q 199 117 186 129 m 463 626 l 283 71 q 331 65 306 65 q 421 86 382 65 q 488 142 460 106 q 538 243 521 185 q 555 362 555 300 q 538 490 555 428 q 487 598 522 551 q 463 626 475 614 z "},"ù":{"ha":602,"x_min":17,"x_max":553,"o":"m 280 4 q 81 113 150 4 q 17 387 17 215 q 64 665 17 524 l 153 636 q 111 387 111 509 q 160 163 111 242 q 280 98 201 98 q 407 163 362 98 q 460 378 460 242 q 442 567 460 475 q 396 701 426 648 l 477 748 q 534 585 515 681 q 553 378 553 482 q 484 111 553 214 q 280 4 412 4 m 149 954 l 334 817 l 295 765 l 111 901 l 149 954 z "},"ú":{"ha":598,"x_min":14,"x_max":550,"o":"m 277 4 q 78 113 146 4 q 14 387 14 215 q 60 665 14 524 l 149 636 q 107 387 107 509 q 157 163 107 242 q 277 98 198 98 q 404 163 359 98 q 456 378 456 242 q 439 567 456 475 q 393 701 422 648 l 473 748 q 530 585 511 681 q 550 378 550 482 q 480 111 550 214 q 277 4 408 4 m 212 765 l 173 817 l 357 954 l 397 901 l 212 765 z "},"û":{"ha":614,"x_min":29,"x_max":566,"o":"m 292 4 q 94 113 162 4 q 29 387 29 215 q 76 665 29 524 l 165 636 q 123 387 123 509 q 172 163 123 242 q 292 98 214 98 q 419 163 374 98 q 472 378 472 242 q 454 567 472 475 q 408 701 438 648 l 489 748 q 546 585 527 681 q 566 378 566 482 q 496 111 566 214 q 292 4 424 4 m 439 765 l 274 887 l 109 765 l 70 817 l 254 954 q 274 960 264 960 q 294 954 284 960 l 478 817 l 439 765 z "},"ü":{"ha":598,"x_min":14,"x_max":550,"o":"m 277 4 q 78 113 146 4 q 14 387 14 215 q 60 665 14 524 l 149 636 q 107 387 107 509 q 157 163 107 242 q 277 98 198 98 q 404 163 359 98 q 456 378 456 242 q 439 567 456 475 q 393 701 422 648 l 473 748 q 530 585 511 681 q 550 378 550 482 q 480 111 550 214 q 277 4 408 4 m 220 781 l 121 781 l 121 882 l 220 882 l 220 781 m 408 781 l 308 781 l 308 882 l 408 882 l 408 781 z "},"ý":{"ha":570,"x_min":-17,"x_max":583,"o":"m 273 -229 l 182 -202 l 300 188 l -17 714 l 64 762 l 336 309 l 492 831 l 583 804 l 273 -229 m 231 859 l 192 911 l 376 1048 l 416 995 l 231 859 z "},"þ":{"ha":656,"x_min":58,"x_max":631,"o":"m 172 212 q 425 295 326 220 q 509 388 480 336 q 537 494 537 439 q 464 635 537 584 q 304 676 404 676 q 163 656 239 676 l 172 212 m 58 1057 l 151 1058 l 161 751 q 304 770 236 770 q 516 712 433 770 q 631 494 631 633 q 593 346 631 418 q 481 220 554 274 q 175 119 357 127 l 187 -235 l 94 -237 l 58 1057 z "},"ÿ":{"ha":566,"x_min":-22,"x_max":578,"o":"m 268 -229 l 178 -202 l 295 188 l -22 714 l 59 762 l 331 309 l 488 831 l 578 804 l 268 -229 m 235 852 l 135 852 l 135 952 l 235 952 l 235 852 m 422 852 l 322 852 l 322 952 l 422 952 l 422 852 z "},"ı":{"ha":204,"x_min":28,"x_max":156,"o":"m 121 24 l 28 28 l 62 651 l 156 646 l 121 24 z "},"̀":{"ha":292,"x_min":34,"x_max":258,"o":"m 73 1048 l 258 911 l 218 859 l 34 995 l 73 1048 z "},"́":{"ha":292,"x_min":34,"x_max":258,"o":"m 73 859 l 34 911 l 218 1048 l 258 995 l 73 859 z "},"̂":{"ha":476,"x_min":34,"x_max":442,"o":"m 404 859 l 238 981 l 73 859 l 34 911 l 218 1048 q 238 1054 229 1054 q 258 1047 248 1054 l 442 911 l 404 859 z "},"̃":{"ha":500,"x_min":34,"x_max":467,"o":"m 336 869 q 274 887 298 869 q 230 928 250 905 q 200 956 216 943 q 163 968 184 968 q 130 950 146 968 q 97 885 109 927 l 34 902 q 81 994 50 960 q 163 1033 116 1033 q 232 1015 205 1033 q 278 972 258 996 q 305 946 291 957 q 336 935 319 935 q 370 952 354 935 q 404 1018 391 976 l 467 1000 q 418 908 450 943 q 336 869 384 869 z "},"̄":{"ha":272,"x_min":34,"x_max":238,"o":"m 238 852 l 34 852 l 34 918 l 238 918 l 238 852 z "},"̇":{"ha":168,"x_min":34,"x_max":134,"o":"m 134 852 l 34 852 l 34 952 l 134 952 l 134 852 z "},"̈":{"ha":355,"x_min":34,"x_max":321,"o":"m 134 852 l 34 852 l 34 952 l 134 952 l 134 852 m 321 852 l 221 852 l 221 952 l 321 952 l 321 852 z "},"̊":{"ha":347,"x_min":34,"x_max":313,"o":"m 174 781 q 75 822 116 781 q 34 921 34 863 q 75 1020 34 979 q 174 1061 116 1061 q 272 1020 231 1061 q 313 921 313 979 q 272 822 313 863 q 174 781 231 781 m 174 838 q 233 862 208 838 q 257 921 257 886 q 233 980 257 956 q 174 1004 208 1004 q 115 980 139 1004 q 90 921 90 956 q 115 862 90 886 q 174 838 139 838 z "},"̌":{"ha":476,"x_min":34,"x_max":442,"o":"m 73 1054 l 238 932 l 404 1054 l 442 1002 l 258 865 q 238 859 248 859 q 218 865 228 859 l 34 1002 l 73 1054 z "},"̧":{"ha":320,"x_min":34,"x_max":286,"o":"m 58 -336 l 34 -275 q 210 -163 174 -219 q 220 -135 220 -147 q 212 -115 220 -123 q 186 -106 203 -106 q 108 -143 144 -106 q 85 -153 98 -153 q 62 -143 72 -153 q 52 -121 52 -133 q 106 33 52 -115 l 168 10 l 146 -46 q 186 -41 168 -41 q 257 -67 228 -41 q 286 -135 286 -94 q 58 -336 286 -245 z "},"–":{"ha":869,"x_min":34,"x_max":835,"o":"m 34 374 l 34 468 l 835 468 l 835 374 l 34 374 z "},"—":{"ha":1267,"x_min":34,"x_max":1234,"o":"m 34 374 l 34 468 l 1234 468 l 1234 374 l 34 374 z "},"‘":{"ha":183,"x_min":34,"x_max":149,"o":"m 149 1054 l 149 1017 q 77 952 79 1017 l 149 952 l 149 814 l 34 814 l 34 921 q 49 1004 34 975 q 90 1043 64 1032 q 149 1054 116 1054 z "},"’":{"ha":183,"x_min":34,"x_max":149,"o":"m 34 814 l 34 852 q 106 916 104 852 l 34 916 l 34 1054 l 149 1054 l 149 947 q 134 864 149 893 q 93 825 119 836 q 34 814 67 814 z "},"‚":{"ha":183,"x_min":34,"x_max":149,"o":"m 34 -120 l 34 -83 q 106 -18 104 -83 l 34 -18 l 34 120 l 149 120 l 149 13 q 134 -70 149 -41 q 93 -109 119 -98 q 34 -120 67 -120 z "},"“":{"ha":345,"x_min":34,"x_max":311,"o":"m 149 1054 l 149 1017 q 77 952 79 1017 l 149 952 l 149 814 l 34 814 l 34 921 q 49 1004 34 975 q 90 1043 64 1032 q 149 1054 116 1054 m 311 1054 l 311 1017 q 239 952 241 1017 l 311 952 l 311 814 l 195 814 l 195 921 q 210 1004 195 975 q 251 1043 225 1032 q 311 1054 277 1054 z "},"”":{"ha":345,"x_min":34,"x_max":311,"o":"m 34 814 l 34 852 q 106 916 104 852 l 34 916 l 34 1054 l 149 1054 l 149 947 q 134 864 149 893 q 93 825 119 836 q 34 814 67 814 m 195 814 l 195 852 q 267 916 265 852 l 195 916 l 195 1054 l 311 1054 l 311 947 q 296 864 311 893 q 255 825 281 836 q 195 814 229 814 z "},"„":{"ha":345,"x_min":34,"x_max":311,"o":"m 34 -120 l 34 -83 q 106 -18 104 -83 l 34 -18 l 34 120 l 149 120 l 149 13 q 134 -70 149 -41 q 93 -109 119 -98 q 34 -120 67 -120 m 195 -120 l 195 -83 q 267 -18 265 -83 l 195 -18 l 195 120 l 311 120 l 311 13 q 296 -70 311 -41 q 255 -109 281 -98 q 195 -120 229 -120 z "},"†":{"ha":573,"x_min":34,"x_max":539,"o":"m 239 737 l 34 737 l 34 831 l 239 831 l 239 1037 l 334 1037 l 334 831 l 539 831 l 539 737 l 334 737 l 334 -94 l 239 -94 l 239 737 z "},"‡":{"ha":573,"x_min":34,"x_max":539,"o":"m 239 737 l 34 737 l 34 831 l 239 831 l 239 1037 l 334 1037 l 334 831 l 539 831 l 539 737 l 334 737 l 334 206 l 539 206 l 539 113 l 334 113 l 334 -94 l 239 -94 l 239 113 l 34 113 l 34 206 l 239 206 l 239 737 z "},"•":{"ha":694,"x_min":135,"x_max":364,"o":"m 364 380 l 135 380 l 135 656 l 364 656 l 364 380 z "},"…":{"ha":1389,"x_min":68,"x_max":1109,"o":"m 183 -4 l 68 -4 l 68 134 l 183 134 l 183 -4 m 646 -4 l 531 -4 l 531 134 l 646 134 l 646 -4 m 1109 -4 l 994 -4 l 994 134 l 1109 134 l 1109 -4 z "},"‹":{"ha":336,"x_min":34,"x_max":302,"o":"m 227 98 l 44 343 q 34 371 35 356 q 43 400 34 387 l 227 646 l 302 589 l 140 372 l 302 155 l 227 98 z "},"›":{"ha":336,"x_min":34,"x_max":302,"o":"m 109 98 l 34 155 l 197 372 l 34 589 l 109 646 l 293 400 q 302 373 302 389 q 292 343 302 356 l 109 98 z "},"⁄":{"ha":716,"x_min":34,"x_max":682,"o":"m 83 -9 l 34 18 l 633 1061 l 682 1033 l 83 -9 z "},"∕":{"ha":716,"x_min":34,"x_max":682,"o":"m 83 -9 l 34 18 l 633 1061 l 682 1033 l 83 -9 z "},"₣":{"ha":700,"x_min":34,"x_max":666,"o":"m 213 170 l 213 -20 l 119 -20 l 119 170 l 34 170 l 34 264 l 119 264 l 119 1032 l 213 1032 l 213 999 l 662 1021 l 666 927 l 213 905 l 213 463 l 602 445 l 598 351 l 213 370 l 213 264 l 405 264 l 405 170 l 213 170 z "},"₤":{"ha":699,"x_min":34,"x_max":665,"o":"m 233 298 l 231 273 q 180 73 220 187 l 665 73 l 665 -20 l 111 -17 q 64 26 64 -17 q 67 45 64 37 q 130 237 118 165 q 138 298 135 271 l 34 298 l 34 393 l 138 393 q 125 474 134 423 l 34 474 l 34 568 l 107 568 q 96 629 100 606 q 87 731 87 676 q 640 1099 87 1053 l 647 1006 q 286 911 402 985 q 182 731 182 845 q 203 568 182 663 l 479 568 l 479 474 l 224 474 q 234 393 231 431 l 479 393 l 479 298 l 233 298 z "},"€":{"ha":810,"x_min":14,"x_max":833,"o":"m 481 -3 q 207 153 309 -3 q 119 382 144 248 l 14 382 l 14 476 l 107 476 q 105 539 105 507 l 105 557 l 14 557 l 14 652 l 113 652 q 207 913 134 805 q 481 1065 310 1065 q 703 970 611 1065 q 833 720 798 872 l 742 698 q 637 904 712 826 q 481 970 572 970 q 284 860 359 970 q 208 652 227 776 l 459 652 l 459 557 l 199 557 l 199 539 q 201 476 199 507 l 459 476 l 459 382 l 215 382 q 285 205 237 279 q 481 92 359 92 q 654 172 583 92 l 724 110 q 613 26 676 56 q 481 -3 553 -3 z "},"™":{"ha":1006,"x_min":34,"x_max":972,"o":"m 199 498 l 188 1060 l 34 1060 l 34 1118 l 429 1118 l 429 1060 l 245 1060 l 256 498 l 199 498 m 904 474 l 850 496 q 898 662 882 571 q 914 840 914 753 q 893 1004 914 932 q 822 1084 869 1084 q 760 1023 784 1084 q 729 812 729 945 l 671 812 q 640 1023 671 945 q 578 1084 616 1084 q 519 1023 542 1084 q 491 804 491 945 q 514 566 491 687 l 457 556 q 433 804 433 682 q 465 1044 433 955 q 578 1142 502 1142 q 700 1029 662 1142 q 822 1142 739 1142 q 863 1133 844 1142 q 949 1021 923 1106 q 972 840 972 941 q 955 651 972 748 q 904 474 937 554 z "},"−":{"ha":573,"x_min":34,"x_max":539,"o":"m 34 479 l 34 572 l 539 572 l 539 479 l 34 479 z "},"≈":{"ha":661,"x_min":34,"x_max":627,"o":"m 436 421 q 371 435 397 421 q 327 472 345 450 q 293 521 309 495 q 263 562 279 544 q 225 580 248 580 q 121 433 176 580 l 34 465 q 112 615 72 567 q 225 673 160 673 q 292 659 266 673 q 337 621 319 644 q 372 572 356 597 q 400 532 385 549 q 436 515 415 515 q 539 662 484 515 l 627 629 q 549 479 589 528 q 436 421 500 421 m 436 168 q 371 183 397 168 q 327 220 345 197 q 293 268 309 243 q 263 309 279 291 q 225 327 248 327 q 121 180 176 327 l 34 213 q 112 362 72 314 q 225 421 160 421 q 292 406 266 421 q 337 368 319 391 q 372 319 356 345 q 400 279 385 296 q 436 262 415 262 q 539 409 484 262 l 627 376 q 549 227 589 275 q 436 168 500 168 z "},"≤":{"ha":604,"x_min":34,"x_max":570,"o":"m 536 140 q 64 324 104 308 q 37 351 45 331 q 34 368 34 358 q 64 410 34 399 l 536 595 l 570 507 l 210 368 l 570 228 l 536 140 m 34 0 l 34 94 l 539 94 l 539 0 l 34 0 z "},"≥":{"ha":604,"x_min":34,"x_max":570,"o":"m 68 140 l 34 228 l 394 368 l 34 507 l 68 595 l 541 410 q 570 368 570 399 q 567 351 570 358 q 541 324 559 331 q 68 140 500 308 m 34 0 l 34 94 l 539 94 l 539 0 l 34 0 z "},"¹":{"ha":205,"x_min":34,"x_max":172,"o":"m 106 519 l 98 1003 l 37 1000 l 34 1065 q 130 1070 115 1070 q 153 1061 143 1070 q 163 1038 162 1052 l 172 520 l 106 519 z "},"²":{"ha":357,"x_min":34,"x_max":323,"o":"m 302 503 l 73 503 q 39 529 39 503 q 52 558 39 546 q 257 886 257 769 q 210 968 257 938 q 34 1014 153 1004 l 39 1079 q 323 886 323 1057 q 151 568 323 762 l 302 568 l 302 503 z "},"³":{"ha":446,"x_min":34,"x_max":412,"o":"m 234 496 q 116 528 174 496 q 34 614 65 557 l 92 644 q 149 585 114 604 q 234 562 191 562 q 318 585 287 562 q 347 633 347 606 q 300 694 347 671 q 136 722 245 722 q 115 730 124 722 q 103 754 103 740 q 109 773 103 764 q 130 787 117 784 q 271 841 223 806 q 314 905 314 873 q 262 968 314 937 q 95 1014 207 1001 l 102 1079 q 359 970 300 1057 q 380 905 380 939 q 308 788 380 841 q 281 770 296 779 q 393 700 361 748 q 412 633 412 669 q 356 532 412 574 q 234 496 309 496 z "},"⁴":{"ha":368,"x_min":34,"x_max":334,"o":"m 269 519 l 267 631 l 62 631 q 41 641 49 631 q 34 663 34 650 q 76 1041 34 671 l 141 1034 l 103 696 l 267 696 l 260 1037 l 326 1038 l 334 520 l 269 519 z "},"ȷ":{"ha":222,"x_min":-113,"x_max":182,"o":"m -113 -359 l -113 -266 q -70 -259 -90 -266 q 46 -127 7 -233 q 87 158 87 -14 q 14 635 87 389 l 103 663 q 182 158 182 401 q 62 -281 182 -147 q -113 -359 -8 -359 z "},"ʻ":{"ha":149,"x_min":34,"x_max":115,"o":"m 115 1027 l 115 1000 q 64 956 66 1000 l 115 956 l 115 859 l 34 859 l 34 933 q 44 991 34 971 q 73 1019 55 1012 q 115 1027 92 1027 z "},"ʼ":{"ha":149,"x_min":34,"x_max":115,"o":"m 34 859 l 34 885 q 84 930 83 885 l 34 930 l 34 1027 l 115 1027 l 115 951 q 104 894 115 914 q 75 866 94 873 q 34 859 57 859 z "},"ˆ":{"ha":476,"x_min":34,"x_max":442,"o":"m 404 859 l 238 981 l 73 859 l 34 911 l 218 1048 q 238 1054 229 1054 q 258 1047 248 1054 l 442 911 l 404 859 z "},"ˇ":{"ha":476,"x_min":34,"x_max":442,"o":"m 73 1054 l 238 932 l 404 1054 l 442 1002 l 258 865 q 238 859 248 859 q 218 865 228 859 l 34 1002 l 73 1054 z "},"ˉ":{"ha":272,"x_min":34,"x_max":238,"o":"m 238 852 l 34 852 l 34 918 l 238 918 l 238 852 z "},"ˊ":{"ha":292,"x_min":34,"x_max":258,"o":"m 218 1048 l 258 995 l 73 859 l 34 911 l 218 1048 z "},"ˋ":{"ha":292,"x_min":34,"x_max":258,"o":"m 73 1048 l 258 911 l 218 859 l 34 995 l 73 1048 z "},"ˍ":{"ha":271,"x_min":34,"x_max":237,"o":"m 237 -134 l 34 -134 l 34 -68 l 237 -68 l 237 -134 z "},"˘":{"ha":500,"x_min":34,"x_max":467,"o":"m 248 852 q 112 892 175 852 q 34 999 55 929 l 97 1017 q 149 947 111 971 q 248 918 194 918 q 351 946 304 918 q 404 1017 389 970 l 467 999 q 387 892 445 928 q 248 852 322 852 z "},"˷":{"ha":500,"x_min":34,"x_max":467,"o":"m 337 -232 q 274 -214 298 -232 q 230 -173 250 -196 q 201 -145 216 -157 q 164 -133 185 -133 q 130 -151 146 -133 q 97 -216 109 -174 l 34 -198 q 81 -106 50 -141 q 164 -68 117 -68 q 232 -86 206 -68 q 278 -128 258 -104 q 305 -154 291 -143 q 337 -165 319 -165 q 371 -148 355 -165 q 404 -83 392 -125 l 467 -100 q 419 -193 450 -158 q 337 -232 385 -232 z "},"̅":{"ha":573,"x_min":34,"x_max":539,"o":"m 539 1133 l 34 1133 l 34 1226 l 539 1226 l 539 1133 z "},"̆":{"ha":500,"x_min":34,"x_max":467,"o":"m 248 852 q 112 892 175 852 q 34 999 55 929 l 97 1017 q 149 947 111 971 q 248 918 194 918 q 351 946 304 918 q 404 1017 389 970 l 467 999 q 387 892 445 928 q 248 852 322 852 z "},"̐":{"ha":500,"x_min":34,"x_max":467,"o":"m 248 852 q 112 892 175 852 q 34 999 55 929 l 97 1017 q 149 947 111 971 q 248 918 194 918 q 351 946 304 918 q 404 1017 389 970 l 467 999 q 387 892 445 928 q 248 852 322 852 m 300 1017 l 200 1017 l 200 1117 l 300 1117 l 300 1017 z "},"̕":{"ha":149,"x_min":34,"x_max":115,"o":"m 34 859 l 34 885 q 84 930 83 885 l 34 930 l 34 1027 l 115 1027 l 115 951 q 104 894 115 914 q 75 866 94 873 q 34 859 57 859 z "},"̣":{"ha":168,"x_min":34,"x_max":134,"o":"m 134 -168 l 34 -168 l 34 -68 l 134 -68 l 134 -168 z "},"̤":{"ha":355,"x_min":34,"x_max":321,"o":"m 134 -168 l 34 -168 l 34 -68 l 134 -68 l 134 -168 m 321 -168 l 221 -168 l 221 -68 l 321 -68 l 321 -168 z "},"̥":{"ha":347,"x_min":34,"x_max":313,"o":"m 174 -347 q 75 -306 116 -347 q 34 -208 34 -265 q 75 -109 34 -150 q 174 -68 116 -68 q 272 -109 231 -68 q 313 -208 313 -150 q 272 -306 313 -265 q 174 -347 231 -347 m 174 -291 q 233 -267 208 -291 q 257 -208 257 -242 q 233 -149 257 -173 q 174 -124 208 -124 q 115 -149 139 -124 q 90 -208 90 -173 q 115 -267 90 -242 q 174 -291 139 -291 z "},"̦":{"ha":149,"x_min":34,"x_max":115,"o":"m 34 -236 l 34 -210 q 84 -165 83 -210 l 34 -165 l 34 -68 l 115 -68 l 115 -142 q 104 -201 115 -180 q 75 -229 94 -221 q 34 -236 57 -236 z "},"̱":{"ha":271,"x_min":34,"x_max":237,"o":"m 237 -134 l 34 -134 l 34 -68 l 237 -68 l 237 -134 z "},"ẞ":{"ha":900,"x_min":75,"x_max":894,"o":"m 652 1021 l 652 927 q 433 787 433 927 q 505 623 433 688 q 658 527 553 578 q 746 480 704 505 q 821 425 788 456 q 894 254 894 359 q 808 55 894 124 q 616 -7 730 -7 q 491 17 552 -7 q 394 87 434 40 l 467 147 q 616 87 517 87 q 705 104 663 87 q 773 158 747 121 q 800 254 800 195 q 774 336 800 302 q 706 394 747 369 q 616 444 664 420 q 500 506 545 477 q 363 656 402 568 q 339 787 339 711 q 381 916 339 863 l 168 905 l 168 -20 l 75 -20 l 75 1032 l 168 1032 l 168 999 l 652 1021 z "},"˙":{"ha":168,"x_min":34,"x_max":134,"o":"m 134 852 l 34 852 l 34 952 l 134 952 l 134 852 z "},"˚":{"ha":347,"x_min":34,"x_max":313,"o":"m 174 781 q 75 822 116 781 q 34 921 34 863 q 75 1020 34 979 q 174 1061 116 1061 q 272 1020 231 1061 q 313 921 313 979 q 272 822 313 863 q 174 781 231 781 m 174 838 q 233 862 208 838 q 257 921 257 886 q 233 980 257 956 q 174 1004 208 1004 q 115 980 139 1004 q 90 921 90 956 q 115 862 90 886 q 174 838 139 838 z "},"˛":{"ha":313,"x_min":34,"x_max":279,"o":"m 159 -338 q 69 -300 106 -338 q 34 -206 34 -264 q 85 -63 34 -137 q 221 51 132 3 l 252 -7 q 138 -102 176 -47 q 100 -205 100 -157 q 116 -255 100 -239 q 155 -272 133 -272 q 214 -189 214 -272 l 279 -186 l 279 -197 q 243 -299 279 -260 q 159 -338 207 -338 z "},"˜":{"ha":500,"x_min":34,"x_max":467,"o":"m 336 869 q 274 887 298 869 q 230 928 250 905 q 200 956 216 943 q 163 968 184 968 q 130 950 146 968 q 97 885 109 927 l 34 902 q 81 994 50 960 q 163 1033 116 1033 q 232 1015 205 1033 q 278 972 258 996 q 305 946 291 957 q 336 935 319 935 q 370 952 354 935 q 404 1018 391 976 l 467 1000 q 418 908 450 943 q 336 869 384 869 z "},"˝":{"ha":515,"x_min":34,"x_max":481,"o":"m 73 859 l 34 911 l 218 1048 l 258 995 l 73 859 m 296 859 l 258 911 l 442 1048 l 481 995 l 296 859 z "},"Ā":{"ha":756,"x_min":-23,"x_max":699,"o":"m 444 427 q 602 445 532 427 q 605 546 605 496 q 538 854 605 743 q 376 949 481 949 q 227 857 279 949 q 165 551 165 748 q 168 463 165 507 q 444 427 313 427 m 157 36 q 80 391 100 195 q -23 429 25 408 l 14 515 q 73 492 42 503 q 71 551 71 522 q 146 903 71 772 q 376 1042 225 1042 q 618 903 534 1042 q 699 546 699 769 q 680 271 699 414 q 629 37 663 142 l 540 66 q 595 347 578 185 q 444 333 526 333 q 177 365 317 333 q 245 67 199 199 l 157 36 m 480 1110 l 276 1110 l 276 1176 l 480 1176 l 480 1110 z "},"ā":{"ha":607,"x_min":-1,"x_max":536,"o":"m 536 90 l 442 90 l 442 134 q 303 119 366 119 q 105 171 184 119 q -1 370 -1 244 q 36 516 -1 446 q 145 640 73 586 q 442 735 255 721 l 442 778 l 536 778 l 536 90 m 303 212 q 442 231 364 212 l 442 641 q 200 564 288 629 q 119 474 146 524 q 92 370 92 424 q 157 249 92 293 q 303 212 212 212 m 396 873 l 192 873 l 192 939 l 396 939 l 396 873 z "},"Ă":{"ha":756,"x_min":-23,"x_max":699,"o":"m 444 427 q 602 445 532 427 q 605 546 605 496 q 538 854 605 743 q 376 949 481 949 q 227 857 279 949 q 165 551 165 748 q 168 463 165 507 q 444 427 313 427 m 157 36 q 80 391 100 195 q -23 429 25 408 l 14 515 q 73 492 42 503 q 71 551 71 522 q 146 903 71 772 q 376 1042 225 1042 q 618 903 534 1042 q 699 546 699 769 q 680 271 699 414 q 629 37 663 142 l 540 66 q 595 347 578 185 q 444 333 526 333 q 177 365 317 333 q 245 67 199 199 l 157 36 m 375 1078 q 239 1118 302 1078 q 161 1225 182 1155 l 224 1242 q 276 1173 238 1197 q 375 1143 321 1143 q 479 1172 432 1143 q 531 1242 517 1196 l 594 1225 q 514 1118 572 1154 q 375 1078 450 1078 z "},"ă":{"ha":611,"x_min":3,"x_max":540,"o":"m 540 90 l 446 90 l 446 134 q 307 119 370 119 q 109 171 188 119 q 3 370 3 244 q 40 516 3 446 q 149 640 77 586 q 446 735 259 721 l 446 778 l 540 778 l 540 90 m 307 212 q 446 231 368 212 l 446 641 q 204 564 292 629 q 123 474 151 524 q 96 370 96 424 q 161 249 96 293 q 307 212 216 212 m 285 852 q 149 892 212 852 q 71 999 92 929 l 134 1017 q 186 947 148 971 q 285 918 231 918 q 389 946 342 918 q 441 1017 427 970 l 504 999 q 424 892 482 928 q 285 852 359 852 z "},"Ą":{"ha":756,"x_min":-23,"x_max":699,"o":"m 444 427 q 602 445 532 427 q 605 546 605 496 q 538 854 605 743 q 376 949 481 949 q 227 857 279 949 q 165 551 165 748 q 168 463 165 507 q 444 427 313 427 m 548 64 l 540 66 q 595 347 578 185 q 444 333 526 333 q 177 365 317 333 q 245 67 199 199 l 157 36 q 80 391 100 195 q -23 429 25 408 l 14 515 q 73 492 42 503 q 71 551 71 522 q 146 903 71 772 q 376 1042 225 1042 q 618 903 534 1042 q 699 546 699 769 q 680 271 699 414 q 629 37 663 142 q 515 -58 553 -3 q 477 -161 477 -113 q 493 -211 477 -195 q 532 -228 510 -228 q 591 -145 591 -228 l 656 -142 l 656 -153 q 620 -255 656 -216 q 536 -294 584 -294 q 446 -256 484 -294 q 411 -162 411 -220 q 463 -19 411 -93 q 548 64 495 26 z "},"ą":{"ha":634,"x_min":-1,"x_max":563,"o":"m 303 212 q 442 231 364 212 l 442 641 q 200 564 288 629 q 119 474 146 524 q 92 370 92 424 q 157 249 92 293 q 303 212 212 212 m 443 -241 q 353 -202 391 -241 q 317 -109 317 -167 q 370 35 317 -39 q 442 108 398 75 l 442 134 q 303 119 366 119 q 105 171 184 119 q -1 370 -1 244 q 36 516 -1 446 q 145 640 73 586 q 442 735 255 721 l 442 778 l 536 778 l 536 90 q 422 -5 460 50 q 384 -108 384 -60 q 400 -158 384 -141 q 439 -174 417 -174 q 498 -92 498 -174 l 563 -89 l 563 -99 q 527 -201 563 -162 q 443 -241 491 -241 z "},"Ć":{"ha":736,"x_min":28,"x_max":756,"o":"m 404 -3 q 130 153 231 -3 q 53 333 78 232 q 28 539 28 434 q 54 741 28 644 q 130 913 79 838 q 404 1065 233 1065 q 626 970 534 1065 q 756 720 720 872 l 665 698 q 559 904 635 826 q 404 970 495 970 q 207 860 282 970 q 143 714 164 798 q 121 539 121 631 q 143 359 121 446 q 208 205 164 271 q 404 92 282 92 q 576 172 506 92 l 646 110 q 536 26 599 56 q 404 -3 476 -3 m 366 1117 l 328 1169 l 512 1306 l 551 1253 l 366 1117 z "},"ć":{"ha":634,"x_min":14,"x_max":637,"o":"m 336 -28 q 201 3 259 -28 q 102 87 142 35 q 36 222 58 146 q 14 378 14 298 q 36 529 14 456 q 102 659 58 602 q 336 772 191 772 q 525 701 446 772 q 637 513 606 628 l 547 488 q 463 631 524 577 q 336 678 411 678 q 244 657 284 678 q 176 601 203 636 q 124 499 142 557 q 107 378 107 441 q 124 252 107 313 q 176 144 142 191 q 336 65 236 65 q 477 121 420 65 l 543 55 q 336 -28 458 -28 m 298 836 l 260 888 l 444 1025 l 484 972 l 298 836 z "},"Ĉ":{"ha":736,"x_min":28,"x_max":756,"o":"m 404 -3 q 130 153 231 -3 q 53 333 78 232 q 28 539 28 434 q 54 741 28 644 q 130 913 79 838 q 404 1065 233 1065 q 626 970 534 1065 q 756 720 720 872 l 665 698 q 559 904 635 826 q 404 970 495 970 q 207 860 282 970 q 143 714 164 798 q 121 539 121 631 q 143 359 121 446 q 208 205 164 271 q 404 92 282 92 q 576 172 506 92 l 646 110 q 536 26 599 56 q 404 -3 476 -3 m 568 1084 l 402 1206 l 237 1084 l 198 1137 l 382 1274 q 402 1280 393 1280 q 422 1273 412 1280 l 606 1137 l 568 1084 z "},"ĉ":{"ha":632,"x_min":12,"x_max":635,"o":"m 334 -28 q 199 3 257 -28 q 100 87 140 35 q 34 222 56 146 q 12 378 12 298 q 34 529 12 456 q 100 659 56 602 q 334 772 189 772 q 523 701 444 772 q 635 513 604 628 l 545 488 q 461 631 522 577 q 334 678 409 678 q 242 657 282 678 q 174 601 201 636 q 122 499 140 557 q 105 378 105 441 q 122 252 105 313 q 174 144 140 191 q 334 65 234 65 q 475 121 418 65 l 541 55 q 334 -28 456 -28 m 498 806 l 332 928 l 167 806 l 128 858 l 313 995 q 332 1001 323 1001 q 353 994 342 1001 l 536 858 l 498 806 z "},"Ċ":{"ha":736,"x_min":28,"x_max":756,"o":"m 404 -3 q 130 153 231 -3 q 53 333 78 232 q 28 539 28 434 q 54 741 28 644 q 130 913 79 838 q 404 1065 233 1065 q 626 970 534 1065 q 756 720 720 872 l 665 698 q 559 904 635 826 q 404 970 495 970 q 207 860 282 970 q 143 714 164 798 q 121 539 121 631 q 143 359 121 446 q 208 205 164 271 q 404 92 282 92 q 576 172 506 92 l 646 110 q 536 26 599 56 q 404 -3 476 -3 m 452 1133 l 353 1133 l 353 1233 l 452 1233 l 452 1133 z "},"ċ":{"ha":634,"x_min":14,"x_max":637,"o":"m 336 -28 q 201 3 259 -28 q 102 87 142 35 q 36 222 58 146 q 14 378 14 298 q 36 529 14 456 q 102 659 58 602 q 336 772 191 772 q 525 701 446 772 q 637 513 606 628 l 547 488 q 463 631 524 577 q 336 678 411 678 q 244 657 284 678 q 176 601 203 636 q 124 499 142 557 q 107 378 107 441 q 124 252 107 313 q 176 144 142 191 q 336 65 236 65 q 477 121 420 65 l 543 55 q 336 -28 458 -28 m 385 843 l 285 843 l 285 943 l 385 943 l 385 843 z "},"Č":{"ha":736,"x_min":28,"x_max":756,"o":"m 404 -3 q 130 153 231 -3 q 53 333 78 232 q 28 539 28 434 q 54 741 28 644 q 130 913 79 838 q 404 1065 233 1065 q 626 970 534 1065 q 756 720 720 872 l 665 698 q 559 904 635 826 q 404 970 495 970 q 207 860 282 970 q 143 714 164 798 q 121 539 121 631 q 143 359 121 446 q 208 205 164 271 q 404 92 282 92 q 576 172 506 92 l 646 110 q 536 26 599 56 q 404 -3 476 -3 m 237 1316 l 402 1194 l 568 1316 l 606 1264 l 422 1127 q 402 1121 412 1121 q 382 1128 392 1121 l 198 1264 l 237 1316 z "},"č":{"ha":637,"x_min":17,"x_max":641,"o":"m 339 -28 q 204 3 262 -28 q 105 87 146 35 q 39 222 61 146 q 17 378 17 298 q 39 529 17 456 q 106 659 62 602 q 339 772 194 772 q 528 701 450 772 q 641 513 610 628 l 551 488 q 467 631 527 577 q 339 678 414 678 q 247 657 288 678 q 179 601 207 636 q 128 499 145 557 q 111 378 111 441 q 128 252 111 313 q 180 144 145 191 q 339 65 239 65 q 480 121 423 65 l 546 55 q 339 -28 461 -28 m 172 1006 l 338 884 l 503 1006 l 542 954 l 357 817 q 338 810 347 810 q 317 817 328 810 l 134 954 l 172 1006 z "},"Ď":{"ha":772,"x_min":75,"x_max":740,"o":"m 168 -37 l 75 -36 l 94 1017 l 187 1015 l 186 994 q 481 932 361 994 q 682 746 617 863 q 740 524 740 642 q 699 330 740 425 q 496 95 639 192 q 168 -15 366 7 l 168 -37 m 170 79 q 440 170 333 100 q 612 368 563 252 q 646 524 646 444 q 600 699 646 617 q 440 847 548 794 q 185 900 333 900 l 170 79 m 239 1249 l 404 1127 l 570 1249 l 608 1197 l 424 1060 q 404 1054 414 1054 q 384 1061 394 1054 l 200 1197 l 239 1249 z "},"ď":{"ha":685,"x_min":7,"x_max":766,"o":"m 512 -21 l 510 45 q 377 32 437 32 q 136 101 231 32 q 7 350 7 195 q 45 501 7 430 q 486 734 151 707 l 476 1013 l 570 1016 l 606 -18 l 512 -21 m 377 125 q 507 140 435 125 l 489 641 q 129 460 212 617 q 102 350 102 408 q 191 178 102 242 q 377 125 261 125 m 686 848 l 686 874 q 736 919 734 874 l 686 919 l 686 1016 l 766 1016 l 766 941 q 756 883 766 903 q 727 855 745 863 q 686 848 709 848 z "},"Đ":{"ha":793,"x_min":-3,"x_max":761,"o":"m 191 79 q 461 170 354 100 q 633 368 584 252 q 667 524 667 444 q 621 699 667 617 q 461 847 569 794 q 206 900 354 900 l 199 536 l 418 536 l 418 443 l 197 443 l 191 79 m 189 -37 l 96 -36 l 104 443 l -3 443 l -3 536 l 106 536 l 115 1017 l 208 1015 l 208 994 q 502 932 382 994 q 703 746 638 863 q 761 524 761 642 q 720 330 761 425 q 517 95 660 192 q 189 -15 387 7 l 189 -37 z "},"đ":{"ha":675,"x_min":7,"x_max":673,"o":"m 377 125 q 507 140 435 125 l 489 641 q 129 460 212 617 q 102 350 102 408 q 191 178 102 242 q 377 125 261 125 m 512 -21 l 510 45 q 377 32 437 32 q 136 101 231 32 q 7 350 7 195 q 45 501 7 430 q 486 734 151 707 l 483 813 l 286 813 l 286 907 l 479 907 l 476 1013 l 570 1016 l 574 907 l 673 907 l 673 813 l 576 813 l 606 -18 l 512 -21 z "},"Ē":{"ha":621,"x_min":75,"x_max":621,"o":"m 168 4 l 75 4 l 75 1056 l 168 1056 l 168 1023 l 617 1044 l 621 951 l 168 929 l 168 487 l 557 469 l 553 375 l 168 393 l 168 132 l 617 154 l 621 60 l 168 39 l 168 4 m 450 1105 l 246 1105 l 246 1171 l 450 1171 l 450 1105 z "},"ē":{"ha":569,"x_min":14,"x_max":545,"o":"m 369 -2 q 218 24 282 -2 q 45 199 96 76 q 14 363 14 276 q 42 515 14 451 q 115 620 70 578 q 216 680 161 661 q 325 700 271 700 q 479 648 419 700 q 545 505 545 591 q 429 301 545 384 q 211 237 341 237 q 128 244 172 237 q 179 162 145 198 q 369 92 245 92 q 416 94 393 92 l 426 1 q 369 -2 395 -2 m 211 332 q 376 378 311 332 q 451 505 451 432 q 418 577 451 547 q 325 606 385 606 q 178 548 241 606 q 108 363 108 482 l 108 343 q 211 332 164 332 m 405 774 l 201 774 l 201 840 l 405 840 l 405 774 z "},"Ĕ":{"ha":621,"x_min":75,"x_max":621,"o":"m 168 4 l 75 4 l 75 1056 l 168 1056 l 168 1023 l 617 1044 l 621 951 l 168 929 l 168 487 l 557 469 l 553 375 l 168 393 l 168 132 l 617 154 l 621 60 l 168 39 l 168 4 m 345 1088 q 210 1129 273 1088 q 132 1236 153 1166 l 195 1253 q 246 1183 208 1208 q 345 1154 292 1154 q 449 1183 402 1154 q 501 1253 487 1206 l 564 1236 q 484 1128 543 1164 q 345 1088 420 1088 z "},"ĕ":{"ha":570,"x_min":17,"x_max":548,"o":"m 372 -2 q 222 24 286 -2 q 49 199 99 76 q 17 363 17 276 q 45 515 17 451 q 119 620 73 578 q 219 680 164 661 q 328 700 275 700 q 482 648 422 700 q 548 505 548 591 q 433 301 548 384 q 214 237 345 237 q 132 244 175 237 q 182 162 149 198 q 372 92 249 92 q 420 94 396 92 l 429 1 q 372 -2 398 -2 m 214 332 q 379 378 315 332 q 454 505 454 432 q 421 577 454 547 q 328 606 388 606 q 182 548 244 606 q 111 363 111 482 l 111 343 q 214 332 168 332 m 325 748 q 189 789 252 748 q 111 895 132 825 l 174 913 q 226 843 188 867 q 325 814 271 814 q 429 842 382 814 q 481 913 467 866 l 544 895 q 464 788 522 824 q 325 748 399 748 z "},"Ė":{"ha":621,"x_min":75,"x_max":621,"o":"m 168 4 l 75 4 l 75 1056 l 168 1056 l 168 1023 l 617 1044 l 621 951 l 168 929 l 168 487 l 557 469 l 553 375 l 168 393 l 168 132 l 617 154 l 621 60 l 168 39 l 168 4 m 398 1117 l 298 1117 l 298 1217 l 398 1217 l 398 1117 z "},"ė":{"ha":563,"x_min":7,"x_max":538,"o":"m 363 -2 q 212 24 276 -2 q 39 199 90 76 q 7 363 7 276 q 36 515 7 451 q 109 620 64 578 q 210 680 155 661 q 319 700 265 700 q 473 648 413 700 q 538 505 538 591 q 423 301 538 384 q 205 237 335 237 q 122 244 165 237 q 173 162 139 198 q 363 92 239 92 q 410 94 387 92 l 420 1 q 363 -2 389 -2 m 205 332 q 370 378 305 332 q 445 505 445 432 q 412 577 445 547 q 319 606 378 606 q 172 548 235 606 q 102 363 102 482 l 102 343 q 205 332 158 332 m 368 753 l 269 753 l 269 854 l 368 854 l 368 753 z "},"Ę":{"ha":625,"x_min":75,"x_max":648,"o":"m 499 54 l 168 39 l 168 4 l 75 4 l 75 1056 l 168 1056 l 168 1023 l 617 1044 l 621 951 l 168 929 l 168 487 l 557 469 l 553 375 l 168 393 l 168 132 l 617 154 l 621 60 q 508 -35 546 20 q 469 -138 469 -90 q 486 -188 469 -171 q 524 -204 503 -204 q 583 -121 583 -204 l 648 -119 l 648 -129 q 612 -231 648 -192 q 528 -271 576 -271 q 439 -232 476 -271 q 404 -138 404 -197 q 455 5 404 -69 q 499 54 474 31 z "},"ę":{"ha":563,"x_min":7,"x_max":538,"o":"m 205 332 q 370 378 305 332 q 445 505 445 432 q 412 577 445 547 q 319 606 378 606 q 172 548 235 606 q 102 363 102 482 l 102 343 q 205 332 158 332 m 305 1 q 212 24 254 7 q 39 199 90 76 q 7 363 7 276 q 36 515 7 451 q 109 620 64 578 q 210 680 155 661 q 319 700 265 700 q 473 648 413 700 q 538 505 538 591 q 423 301 538 384 q 205 237 335 237 q 122 244 165 237 q 173 162 139 198 q 363 92 239 92 q 410 94 387 92 l 420 1 q 306 -94 345 -39 q 268 -197 268 -149 q 284 -247 268 -231 q 323 -264 301 -264 q 382 -181 382 -264 l 447 -178 l 447 -189 q 411 -291 447 -252 q 327 -330 375 -330 q 237 -292 275 -330 q 202 -198 202 -256 q 254 -55 202 -129 q 305 1 275 -25 z "},"Ě":{"ha":621,"x_min":75,"x_max":621,"o":"m 168 4 l 75 4 l 75 1056 l 168 1056 l 168 1023 l 617 1044 l 621 951 l 168 929 l 168 487 l 557 469 l 553 375 l 168 393 l 168 132 l 617 154 l 621 60 l 168 39 l 168 4 m 182 1293 l 348 1171 l 513 1293 l 552 1240 l 368 1103 q 348 1097 357 1097 q 328 1104 338 1097 l 144 1240 l 182 1293 z "},"ě":{"ha":572,"x_min":17,"x_max":548,"o":"m 372 -2 q 222 24 286 -2 q 49 199 99 76 q 17 363 17 276 q 45 515 17 451 q 119 620 73 578 q 219 680 164 661 q 328 700 275 700 q 482 648 422 700 q 548 505 548 591 q 433 301 548 384 q 214 237 345 237 q 132 244 175 237 q 182 162 149 198 q 372 92 249 92 q 420 94 396 92 l 429 1 q 372 -2 398 -2 m 214 332 q 379 378 315 332 q 454 505 454 432 q 421 577 454 547 q 328 606 388 606 q 182 548 244 606 q 111 363 111 482 l 111 343 q 214 332 168 332 m 162 951 l 328 829 l 493 951 l 532 899 l 347 762 q 328 755 337 755 q 307 762 317 755 l 123 899 l 162 951 z "},"Ĝ":{"ha":762,"x_min":28,"x_max":756,"o":"m 640 -14 l 547 -5 l 550 33 l 536 26 q 404 -3 477 -3 q 130 153 232 -3 q 53 333 79 232 q 28 539 28 434 q 54 741 28 644 q 130 913 79 838 q 404 1065 233 1065 q 627 970 534 1065 q 756 720 720 872 l 665 698 q 560 904 635 826 q 404 970 496 970 q 208 860 283 970 q 143 714 165 798 q 122 539 122 631 q 143 359 122 446 q 208 205 165 271 q 404 92 282 92 q 562 157 496 92 l 581 359 l 372 372 l 378 465 l 696 446 l 691 353 l 675 353 l 640 -14 m 583 1090 l 418 1213 l 252 1090 l 214 1143 l 398 1280 q 418 1286 408 1286 q 438 1279 428 1286 l 622 1143 l 583 1090 z "},"ĝ":{"ha":618,"x_min":16,"x_max":596,"o":"m 296 180 q 427 241 378 180 q 484 421 484 313 q 427 614 484 538 q 296 678 378 678 q 165 616 215 678 q 109 434 109 545 q 166 243 109 318 q 296 180 215 180 m 131 -363 q 16 -359 77 -363 l 23 -266 q 134 -270 83 -270 q 332 -250 239 -270 q 473 -185 425 -229 q 503 -134 503 -158 q 490 -102 503 -118 q 409 -54 467 -73 q 260 -35 351 -35 q 227 -22 241 -35 q 214 12 214 -8 q 237 92 214 16 q 179 113 205 99 q 35 302 74 168 q 16 434 16 366 q 35 564 16 501 q 93 674 54 626 q 296 772 170 772 q 398 753 353 772 l 452 838 l 531 787 l 475 700 q 559 555 533 644 q 578 421 578 489 q 558 293 578 355 q 500 182 539 231 q 333 88 434 100 l 323 56 q 472 21 412 47 q 562 -43 532 -5 q 596 -133 596 -85 q 535 -254 596 -198 q 345 -342 475 -310 q 131 -363 255 -363 m 471 878 l 306 1000 l 140 878 l 102 930 l 286 1067 q 306 1073 296 1073 q 326 1066 316 1073 l 510 930 l 471 878 z "},"Ğ":{"ha":762,"x_min":28,"x_max":756,"o":"m 640 -14 l 547 -5 l 550 33 l 536 26 q 404 -3 477 -3 q 130 153 232 -3 q 53 333 79 232 q 28 539 28 434 q 54 741 28 644 q 130 913 79 838 q 404 1065 233 1065 q 627 970 534 1065 q 756 720 720 872 l 665 698 q 560 904 635 826 q 404 970 496 970 q 208 860 283 970 q 143 714 165 798 q 122 539 122 631 q 143 359 122 446 q 208 205 165 271 q 404 92 282 92 q 562 157 496 92 l 581 359 l 372 372 l 378 465 l 696 446 l 691 353 l 675 353 l 640 -14 m 409 1126 q 273 1167 336 1126 q 195 1274 216 1204 l 258 1291 q 310 1221 272 1246 q 409 1192 355 1192 q 513 1221 466 1192 q 565 1291 551 1244 l 628 1274 q 548 1166 606 1202 q 409 1126 484 1126 z "},"ğ":{"ha":620,"x_min":17,"x_max":597,"o":"m 298 180 q 429 241 379 180 q 486 421 486 313 q 429 614 486 538 q 298 678 379 678 q 167 616 216 678 q 111 434 111 545 q 168 243 111 318 q 298 180 216 180 m 132 -363 q 18 -359 78 -363 l 24 -266 q 136 -270 84 -270 q 333 -250 240 -270 q 475 -185 426 -229 q 504 -134 504 -158 q 491 -102 504 -118 q 410 -54 468 -73 q 262 -35 353 -35 q 229 -22 242 -35 q 215 12 215 -8 q 238 92 215 16 q 180 113 207 99 q 36 302 75 168 q 17 434 17 366 q 36 564 17 501 q 94 674 56 626 q 298 772 172 772 q 399 753 354 772 l 453 838 l 532 787 l 477 700 q 560 555 534 644 q 579 421 579 489 q 560 293 579 355 q 501 182 541 231 q 334 88 435 100 l 325 56 q 473 21 413 47 q 564 -43 533 -5 q 597 -133 597 -85 q 537 -254 597 -198 q 347 -342 476 -310 q 132 -363 256 -363 m 304 852 q 169 892 232 852 q 91 999 112 929 l 154 1017 q 205 947 168 971 q 304 918 251 918 q 408 946 361 918 q 460 1017 446 970 l 524 999 q 444 892 502 928 q 304 852 379 852 z "},"Ġ":{"ha":762,"x_min":28,"x_max":756,"o":"m 640 -14 l 547 -5 l 550 33 l 536 26 q 404 -3 477 -3 q 130 153 232 -3 q 53 333 79 232 q 28 539 28 434 q 54 741 28 644 q 130 913 79 838 q 404 1065 233 1065 q 627 970 534 1065 q 756 720 720 872 l 665 698 q 560 904 635 826 q 404 970 496 970 q 208 860 283 970 q 143 714 165 798 q 122 539 122 631 q 143 359 122 446 q 208 205 165 271 q 404 92 282 92 q 562 157 496 92 l 581 359 l 372 372 l 378 465 l 696 446 l 691 353 l 675 353 l 640 -14 m 479 1132 l 379 1132 l 379 1232 l 479 1232 l 479 1132 z "},"ġ":{"ha":618,"x_min":15,"x_max":595,"o":"m 296 180 q 427 241 377 180 q 484 421 484 313 q 427 614 484 538 q 296 678 377 678 q 165 616 214 678 q 109 434 109 545 q 165 243 109 318 q 296 180 214 180 m 130 -363 q 16 -359 76 -363 l 22 -266 q 134 -270 82 -270 q 331 -250 238 -270 q 473 -185 424 -229 q 502 -134 502 -158 q 489 -102 502 -118 q 408 -54 466 -73 q 260 -35 351 -35 q 227 -22 240 -35 q 213 12 213 -8 q 236 92 213 16 q 178 113 205 99 q 34 302 73 168 q 15 434 15 366 q 34 564 15 501 q 92 674 54 626 q 296 772 170 772 q 397 753 352 772 l 451 838 l 530 787 l 475 700 q 558 555 532 644 q 577 421 577 489 q 558 293 577 355 q 499 182 538 231 q 332 88 433 100 l 323 56 q 471 21 411 47 q 562 -43 531 -5 q 595 -133 595 -85 q 535 -254 595 -198 q 345 -342 474 -310 q 130 -363 254 -363 m 355 863 l 256 863 l 256 964 l 355 964 l 355 863 z "},"Ģ":{"ha":762,"x_min":28,"x_max":756,"o":"m 640 -14 l 547 -5 l 550 33 l 536 26 q 404 -3 477 -3 q 130 153 232 -3 q 53 333 79 232 q 28 539 28 434 q 54 741 28 644 q 130 913 79 838 q 404 1065 233 1065 q 627 970 534 1065 q 756 720 720 872 l 665 698 q 560 904 635 826 q 404 970 496 970 q 208 860 283 970 q 143 714 165 798 q 122 539 122 631 q 143 359 122 446 q 208 205 165 271 q 404 92 282 92 q 562 157 496 92 l 581 359 l 372 372 l 378 465 l 696 446 l 691 353 l 675 353 l 640 -14 m 352 -236 l 352 -210 q 402 -165 401 -210 l 352 -165 l 352 -68 l 433 -68 l 433 -142 q 422 -201 433 -180 q 393 -229 412 -221 q 352 -236 375 -236 z "},"ģ":{"ha":618,"x_min":15,"x_max":595,"o":"m 296 180 q 427 241 377 180 q 484 421 484 313 q 427 614 484 538 q 296 678 377 678 q 165 616 214 678 q 109 434 109 545 q 165 243 109 318 q 296 180 214 180 m 130 -363 q 16 -359 76 -363 l 22 -266 q 134 -270 82 -270 q 331 -250 238 -270 q 473 -185 424 -229 q 502 -134 502 -158 q 489 -102 502 -118 q 408 -54 466 -73 q 260 -35 351 -35 q 227 -22 240 -35 q 213 12 213 -8 q 236 92 213 16 q 178 113 205 99 q 34 302 73 168 q 15 434 15 366 q 34 564 15 501 q 92 674 54 626 q 296 772 170 772 q 397 753 352 772 l 451 838 l 530 787 l 475 700 q 558 555 532 644 q 577 421 577 489 q 558 293 577 355 q 499 182 538 231 q 332 88 433 100 l 323 56 q 471 21 411 47 q 562 -43 531 -5 q 595 -133 595 -85 q 535 -254 595 -198 q 345 -342 474 -310 q 130 -363 254 -363 m 345 1057 l 345 1031 q 296 986 297 1031 l 345 986 l 345 889 l 265 889 l 265 964 q 275 1022 265 1002 q 304 1050 286 1042 q 345 1057 322 1057 z "},"Ĥ":{"ha":753,"x_min":36,"x_max":724,"o":"m 172 389 l 174 -20 l 81 -20 l 79 397 l 36 400 l 44 494 l 79 491 l 75 1032 l 169 1033 l 172 483 l 573 450 l 631 1037 l 724 1028 l 623 -1 l 530 7 l 564 357 l 172 389 m 577 1086 l 412 1208 l 246 1086 l 208 1138 l 392 1275 q 412 1281 402 1281 q 432 1274 422 1281 l 616 1138 l 577 1086 z "},"ĥ":{"ha":699,"x_min":44,"x_max":650,"o":"m 157 694 q 160 698 158 696 q 367 802 235 802 q 429 795 399 802 q 606 648 551 769 q 650 396 650 549 q 612 63 650 248 l 520 82 q 557 396 557 256 q 521 608 557 529 q 367 708 479 708 q 234 641 283 708 q 171 429 177 562 l 190 79 l 96 74 l 44 1042 l 138 1047 l 157 694 m 436 1082 l 271 1204 l 105 1082 l 66 1134 l 251 1271 q 271 1277 261 1277 q 291 1270 281 1277 l 475 1134 l 436 1082 z "},"Ħ":{"ha":795,"x_min":36,"x_max":789,"o":"m 716 738 l 644 -1 l 551 7 l 585 357 l 193 389 l 195 -20 l 102 -20 l 100 397 l 57 400 l 65 494 l 100 491 l 98 738 l 36 738 l 36 831 l 98 831 l 96 1032 l 190 1033 l 191 831 l 631 831 l 652 1037 l 745 1028 l 726 831 l 789 831 l 789 738 l 716 738 m 191 738 l 193 483 l 594 450 l 623 738 l 191 738 z "},"ħ":{"ha":725,"x_min":-14,"x_max":677,"o":"m 174 852 l 183 694 q 186 698 184 696 q 393 802 262 802 q 455 795 426 802 q 633 648 578 769 q 677 396 677 549 q 638 63 677 248 l 547 82 q 583 396 583 256 q 547 608 583 529 q 393 708 505 708 q 260 641 309 708 q 197 429 203 562 l 216 79 l 123 74 l 81 852 l -14 852 l -14 947 l 76 947 l 71 1042 l 164 1047 l 170 947 l 360 947 l 360 852 l 174 852 z "},"Ĩ":{"ha":296,"x_min":-66,"x_max":366,"o":"m 94 902 l 31 902 l 31 996 l 250 996 l 250 902 l 188 902 l 204 41 l 268 41 l 268 -53 l 49 -53 l 49 41 l 111 41 l 94 902 m 236 1091 q 173 1109 197 1091 q 130 1150 149 1127 q 100 1178 116 1166 q 63 1190 84 1190 q 29 1173 45 1190 q -3 1107 8 1149 l -66 1124 q -19 1217 -50 1182 q 63 1255 16 1255 q 131 1237 105 1255 q 178 1194 157 1219 q 204 1168 191 1179 q 236 1157 218 1158 q 270 1175 254 1157 q 303 1240 291 1198 l 366 1223 q 318 1131 350 1165 q 236 1091 283 1091 z "},"ĩ":{"ha":348,"x_min":-26,"x_max":407,"o":"m 203 24 l 110 28 l 144 651 l 238 646 l 203 24 m 277 733 q 214 751 238 733 q 170 792 190 769 q 141 820 157 808 q 104 832 125 832 q 70 814 86 832 q 37 749 49 791 l -26 766 q 22 859 -9 824 q 104 897 56 897 q 172 879 146 897 q 218 836 198 861 q 245 810 231 821 q 277 799 259 800 q 311 817 294 799 q 344 882 332 840 l 407 865 q 359 772 391 807 q 277 733 324 733 z "},"Ī":{"ha":264,"x_min":7,"x_max":244,"o":"m 71 902 l 7 902 l 7 996 l 227 996 l 227 902 l 164 902 l 180 41 l 244 41 l 244 -53 l 25 -53 l 25 41 l 87 41 l 71 902 m 224 1090 l 20 1090 l 20 1156 l 224 1156 l 224 1090 z "},"ī":{"ha":249,"x_min":27,"x_max":231,"o":"m 142 24 l 48 28 l 83 651 l 176 646 l 142 24 m 231 718 l 27 718 l 27 783 l 231 783 l 231 718 z "},"Ĭ":{"ha":296,"x_min":-66,"x_max":366,"o":"m 94 902 l 31 902 l 31 996 l 250 996 l 250 902 l 188 902 l 204 41 l 268 41 l 268 -53 l 49 -53 l 49 41 l 111 41 l 94 902 m 147 1065 q 12 1105 75 1065 q -66 1212 -45 1142 l -3 1230 q 48 1160 10 1184 q 147 1131 94 1131 q 251 1159 204 1131 q 303 1230 289 1183 l 366 1212 q 286 1105 345 1141 q 147 1065 222 1065 z "},"ĭ":{"ha":340,"x_min":-33,"x_max":399,"o":"m 196 24 l 102 28 l 137 651 l 231 646 l 196 24 m 180 708 q 45 749 108 708 q -33 855 -12 785 l 30 873 q 81 803 43 827 q 180 774 127 774 q 284 802 237 774 q 336 873 322 826 l 399 855 q 319 748 378 784 q 180 708 255 708 z "},"Į":{"ha":289,"x_min":29,"x_max":293,"o":"m 151 -53 l 47 -53 l 47 41 l 109 41 l 92 902 l 29 902 l 29 996 l 248 996 l 248 902 l 186 902 l 202 41 l 266 41 l 266 -53 q 152 -148 191 -93 q 114 -251 114 -203 q 131 -301 114 -284 q 169 -317 147 -317 q 228 -235 228 -317 l 293 -232 l 293 -242 q 257 -345 293 -305 q 173 -384 221 -384 q 83 -345 121 -384 q 48 -252 48 -310 q 100 -109 48 -182 q 151 -53 121 -79 z "},"į":{"ha":233,"x_min":-77,"x_max":186,"o":"m 180 739 l 87 743 l 92 846 l 186 842 l 180 739 m 48 -307 q -42 -269 -4 -307 q -77 -175 -77 -233 q -25 -32 -77 -106 q 48 42 3 9 l 82 651 l 176 646 l 141 24 q 27 -71 66 -16 q -11 -174 -11 -126 q 6 -224 -11 -208 q 44 -241 22 -241 q 103 -158 103 -241 l 168 -155 l 168 -165 q 132 -268 168 -229 q 48 -307 96 -307 z "},"İ":{"ha":264,"x_min":7,"x_max":244,"o":"m 71 902 l 7 902 l 7 996 l 227 996 l 227 902 l 164 902 l 180 41 l 244 41 l 244 -53 l 25 -53 l 25 41 l 87 41 l 71 902 m 167 1088 l 67 1088 l 67 1188 l 167 1188 l 167 1088 z "},"Ĳ":{"ha":877,"x_min":7,"x_max":871,"o":"m 71 902 l 7 902 l 7 996 l 227 996 l 227 902 l 164 902 l 180 41 l 244 41 l 244 -53 l 25 -53 l 25 41 l 87 41 l 71 902 m 475 -44 q 354 -13 411 -44 q 258 73 298 18 l 334 127 q 398 70 361 90 q 475 50 435 50 q 629 132 577 50 q 689 409 689 227 l 689 930 l 467 941 l 471 1034 l 871 1015 l 867 922 l 783 926 l 783 409 q 707 81 783 200 q 475 -44 628 -44 z "},"ĳ":{"ha":479,"x_min":36,"x_max":439,"o":"m 169 739 l 75 743 l 81 846 l 174 842 l 169 739 m 130 24 l 36 28 l 71 651 l 164 646 l 130 24 m 144 -359 l 144 -266 q 188 -259 168 -266 q 304 -127 264 -233 q 345 158 345 -14 q 272 635 345 389 l 361 663 q 439 158 439 401 q 320 -281 439 -147 q 144 -359 250 -359 m 245 729 l 219 832 l 309 856 l 336 752 l 245 729 z "},"Ĵ":{"ha":528,"x_min":-91,"x_max":522,"o":"m 125 -44 q 5 -13 62 -44 q -91 73 -52 18 l -15 127 q 48 70 12 90 q 125 50 85 50 q 280 132 228 50 q 340 409 340 227 l 340 930 l 118 941 l 122 1034 l 522 1015 l 518 922 l 433 926 l 433 409 q 358 81 433 200 q 125 -44 279 -44 m 478 1054 l 313 1176 l 147 1054 l 109 1106 l 293 1243 q 313 1249 303 1249 q 333 1242 323 1249 l 517 1106 l 478 1054 z "},"ĵ":{"ha":391,"x_min":-25,"x_max":383,"o":"m 21 -359 l 21 -266 q 64 -259 45 -266 q 180 -127 141 -233 q 222 158 222 -14 q 149 635 222 389 l 237 663 q 316 158 316 401 q 197 -281 316 -147 q 21 -359 126 -359 m 345 680 l 179 802 l 14 680 l -25 732 l 159 869 q 179 875 170 875 q 199 868 189 875 l 383 732 l 345 680 z "},"Ķ":{"ha":590,"x_min":75,"x_max":679,"o":"m 87 18 l 75 1057 l 168 1059 l 173 655 l 613 1091 l 679 1025 l 200 551 l 580 96 l 508 36 l 176 433 l 181 19 l 87 18 m 281 -236 l 281 -210 q 331 -165 330 -210 l 281 -165 l 281 -68 l 361 -68 l 361 -142 q 351 -201 361 -180 q 322 -229 340 -221 q 281 -236 304 -236 z "},"ķ":{"ha":592,"x_min":58,"x_max":629,"o":"m 71 18 l 58 1057 l 151 1058 l 158 489 l 574 789 l 629 714 l 194 399 l 535 101 l 473 31 l 161 304 l 164 19 l 71 18 m 241 -236 l 241 -210 q 292 -165 290 -210 l 241 -165 l 241 -68 l 322 -68 l 322 -142 q 312 -201 322 -180 q 283 -229 301 -221 q 241 -236 264 -236 z "},"ĸ":{"ha":592,"x_min":58,"x_max":629,"o":"m 71 18 l 58 841 l 151 842 l 158 489 l 574 789 l 629 714 l 194 399 l 535 101 l 473 31 l 161 304 l 164 19 l 71 18 z "},"Ĺ":{"ha":472,"x_min":75,"x_max":508,"o":"m 87 18 l 75 1057 l 168 1059 l 179 134 l 502 154 l 508 60 l 180 39 l 180 19 l 87 18 m 149 1097 l 110 1149 l 294 1286 l 334 1233 l 149 1097 z "},"ĺ":{"ha":237,"x_min":36,"x_max":260,"o":"m 77 18 l 64 1057 l 157 1058 l 170 19 l 77 18 m 75 1095 l 36 1147 l 220 1284 l 260 1231 l 75 1095 z "},"Ļ":{"ha":472,"x_min":75,"x_max":508,"o":"m 87 18 l 75 1057 l 168 1059 l 179 134 l 502 154 l 508 60 l 180 39 l 180 19 l 87 18 m 274 -236 l 274 -210 q 324 -165 323 -210 l 274 -165 l 274 -68 l 355 -68 l 355 -142 q 344 -201 355 -180 q 315 -229 334 -221 q 274 -236 297 -236 z "},"ļ":{"ha":235,"x_min":58,"x_max":164,"o":"m 71 18 l 58 1057 l 151 1058 l 164 19 l 71 18 m 77 -236 l 77 -210 q 127 -165 126 -210 l 77 -165 l 77 -68 l 158 -68 l 158 -142 q 148 -201 158 -180 q 119 -229 137 -221 q 77 -236 100 -236 z "},"Ľ":{"ha":472,"x_min":75,"x_max":508,"o":"m 87 18 l 75 1057 l 168 1059 l 179 134 l 502 154 l 508 60 l 180 39 l 180 19 l 87 18 m 277 890 l 277 917 q 327 962 326 917 l 277 962 l 277 1059 l 357 1059 l 357 983 q 347 926 357 946 q 318 898 336 905 q 277 890 300 890 z "},"ľ":{"ha":230,"x_min":58,"x_max":318,"o":"m 71 18 l 58 1057 l 151 1058 l 164 19 l 71 18 m 237 890 l 237 916 q 288 961 286 916 l 237 961 l 237 1058 l 318 1058 l 318 983 q 308 925 318 945 q 279 897 297 905 q 237 890 260 890 z "},"Ŀ":{"ha":480,"x_min":75,"x_max":508,"o":"m 87 18 l 75 1057 l 168 1059 l 179 134 l 502 154 l 508 60 l 180 39 l 180 19 l 87 18 m 393 479 l 295 479 l 295 597 l 393 597 l 393 479 z "},"ŀ":{"ha":377,"x_min":58,"x_max":360,"o":"m 71 18 l 58 1057 l 151 1058 l 164 19 l 71 18 m 360 479 l 262 479 l 262 597 l 360 597 l 360 479 z "},"Ł":{"ha":507,"x_min":-40,"x_max":543,"o":"m 210 503 l 214 134 l 537 154 l 543 60 l 216 39 l 216 19 l 123 18 l 118 420 l 23 334 l -40 404 l 116 545 l 110 1057 l 203 1059 l 208 628 l 336 743 l 398 673 l 210 503 z "},"ł":{"ha":370,"x_min":-35,"x_max":403,"o":"m 215 503 l 221 19 l 127 18 l 123 420 l 28 334 l -35 404 l 121 545 l 115 1057 l 208 1058 l 214 628 l 340 743 l 403 673 l 215 503 z "},"Ń":{"ha":753,"x_min":75,"x_max":701,"o":"m 608 -1 l 591 320 l 169 890 l 174 56 l 81 55 l 75 1032 q 88 1066 75 1053 q 121 1079 102 1079 q 159 1061 145 1079 l 581 490 l 552 1032 l 646 1037 l 701 3 l 608 -1 m 318 1054 l 279 1106 l 464 1243 l 503 1190 l 318 1054 z "},"ń":{"ha":687,"x_min":35,"x_max":639,"o":"m 611 35 l 518 50 q 545 336 545 208 q 508 572 545 484 q 385 675 472 657 q 351 677 370 677 q 247 637 291 677 q 180 533 203 597 q 159 418 159 478 q 181 50 159 407 l 87 43 l 35 748 l 129 754 l 136 651 q 351 772 222 772 q 400 768 376 772 q 639 336 639 726 q 611 35 639 201 m 277 807 l 238 859 l 422 996 l 462 943 l 277 807 z "},"Ņ":{"ha":753,"x_min":75,"x_max":701,"o":"m 608 -1 l 591 320 l 169 890 l 174 56 l 81 55 l 75 1032 q 88 1066 75 1053 q 121 1079 102 1079 q 159 1061 145 1079 l 581 490 l 552 1032 l 646 1037 l 701 3 l 608 -1 m 334 -236 l 334 -210 q 384 -165 382 -210 l 334 -165 l 334 -68 l 414 -68 l 414 -142 q 404 -201 414 -180 q 375 -229 393 -221 q 334 -236 357 -236 z "},"ņ":{"ha":687,"x_min":35,"x_max":639,"o":"m 611 35 l 518 50 q 545 336 545 208 q 508 572 545 484 q 385 675 472 657 q 351 677 370 677 q 247 637 291 677 q 180 533 203 597 q 159 418 159 478 q 181 50 159 407 l 87 43 l 35 748 l 129 754 l 136 651 q 351 772 222 772 q 400 768 376 772 q 639 336 639 726 q 611 35 639 201 m 309 -236 l 309 -210 q 359 -165 358 -210 l 309 -165 l 309 -68 l 390 -68 l 390 -142 q 379 -201 390 -180 q 351 -229 369 -221 q 309 -236 332 -236 z "},"Ň":{"ha":753,"x_min":75,"x_max":701,"o":"m 608 -1 l 591 320 l 169 890 l 174 56 l 81 55 l 75 1032 q 88 1066 75 1053 q 121 1079 102 1079 q 159 1061 145 1079 l 581 490 l 552 1032 l 646 1037 l 701 3 l 608 -1 m 201 1287 l 366 1165 l 532 1287 l 570 1235 l 386 1098 q 366 1092 376 1092 q 346 1099 356 1092 l 162 1235 l 201 1287 z "},"ň":{"ha":691,"x_min":39,"x_max":643,"o":"m 615 35 l 522 50 q 549 336 549 208 q 512 572 549 484 q 389 675 476 657 q 355 677 374 677 q 251 637 295 677 q 184 533 208 597 q 163 418 163 478 q 185 50 163 407 l 92 43 l 39 748 l 133 754 l 140 651 q 355 772 226 772 q 404 768 380 772 q 643 336 643 726 q 615 35 643 201 m 176 1025 l 341 903 l 507 1025 l 545 973 l 361 836 q 341 830 351 830 q 321 837 331 830 l 137 973 l 176 1025 z "},"ŉ":{"ha":737,"x_min":-7,"x_max":689,"o":"m -7 836 l -7 863 q 43 907 41 863 l -7 907 l -7 1004 l 73 1004 l 73 929 q 63 871 73 892 q 34 844 52 851 q -7 836 16 836 m 661 35 l 568 50 q 595 336 595 208 q 558 572 595 484 q 435 675 522 657 q 401 677 420 677 q 297 637 341 677 q 230 533 254 597 q 210 418 210 478 q 231 50 210 407 l 138 43 l 85 748 l 179 754 l 186 651 q 401 772 272 772 q 450 768 426 772 q 689 336 689 726 q 661 35 689 201 z "},"Ō":{"ha":831,"x_min":28,"x_max":782,"o":"m 405 66 q 602 180 526 66 q 666 333 644 246 q 688 512 688 419 q 666 703 688 610 q 601 865 645 795 q 405 985 526 985 q 208 870 283 985 q 143 717 165 804 q 121 534 121 630 q 143 345 121 437 q 208 184 165 254 q 405 66 283 66 m 405 -28 q 130 134 232 -28 q 53 320 78 215 q 28 534 28 425 q 54 744 28 643 q 130 922 79 844 q 405 1080 233 1080 q 680 916 578 1080 q 756 728 731 834 q 782 512 782 623 q 756 306 782 406 q 679 128 730 206 q 405 -28 575 -28 m 507 1135 l 302 1135 l 302 1201 l 507 1201 l 507 1135 z "},"ō":{"ha":684,"x_min":14,"x_max":649,"o":"m 331 65 q 421 86 382 65 q 488 142 460 106 q 538 243 521 185 q 555 362 555 300 q 538 490 555 428 q 487 598 522 551 q 331 678 428 678 q 174 601 234 678 q 107 378 107 514 q 124 252 107 313 q 175 144 141 191 q 331 65 234 65 m 331 -28 q 197 3 255 -28 q 100 88 140 35 q 35 223 56 147 q 14 378 14 298 q 36 529 14 456 q 100 659 58 602 q 331 772 188 772 q 465 740 407 772 q 562 654 522 708 q 627 518 606 595 q 649 362 649 442 q 627 213 649 286 q 561 84 605 140 q 331 -28 473 -28 m 433 833 l 229 833 l 229 899 l 433 899 l 433 833 z "},"Ŏ":{"ha":831,"x_min":28,"x_max":782,"o":"m 405 66 q 602 180 526 66 q 666 333 644 246 q 688 512 688 419 q 666 703 688 610 q 601 865 645 795 q 405 985 526 985 q 208 870 283 985 q 143 717 165 804 q 121 534 121 630 q 143 345 121 437 q 208 184 165 254 q 405 66 283 66 m 405 -28 q 130 134 232 -28 q 53 320 78 215 q 28 534 28 425 q 54 744 28 643 q 130 922 79 844 q 405 1080 233 1080 q 680 916 578 1080 q 756 728 731 834 q 782 512 782 623 q 756 306 782 406 q 679 128 730 206 q 405 -28 575 -28 m 401 1120 q 266 1161 329 1120 q 188 1267 209 1198 l 251 1285 q 302 1215 264 1240 q 401 1186 348 1186 q 505 1215 458 1186 q 557 1285 543 1238 l 621 1267 q 541 1160 599 1196 q 401 1120 476 1120 z "},"ŏ":{"ha":688,"x_min":17,"x_max":652,"o":"m 334 65 q 424 86 385 65 q 491 142 463 106 q 541 243 524 185 q 558 362 558 300 q 542 490 558 428 q 490 598 525 551 q 334 678 431 678 q 178 601 237 678 q 111 378 111 514 q 127 252 111 313 q 178 144 144 191 q 334 65 237 65 m 334 -28 q 201 3 258 -28 q 104 88 143 35 q 38 223 60 147 q 17 378 17 298 q 39 529 17 456 q 104 659 61 602 q 334 772 191 772 q 468 740 410 772 q 566 654 526 708 q 631 518 609 595 q 652 362 652 442 q 630 213 652 286 q 564 84 608 140 q 334 -28 477 -28 m 332 827 q 196 867 259 827 q 118 974 139 904 l 181 991 q 233 922 195 946 q 332 892 278 892 q 435 921 389 892 q 488 991 473 945 l 551 974 q 471 867 529 903 q 332 827 406 827 z "},"Ő":{"ha":831,"x_min":28,"x_max":782,"o":"m 405 66 q 602 180 526 66 q 666 333 644 246 q 688 512 688 419 q 666 703 688 610 q 601 865 645 795 q 405 985 526 985 q 208 870 283 985 q 143 717 165 804 q 121 534 121 630 q 143 345 121 437 q 208 184 165 254 q 405 66 283 66 m 405 -28 q 130 134 232 -28 q 53 320 78 215 q 28 534 28 425 q 54 744 28 643 q 130 922 79 844 q 405 1080 233 1080 q 680 916 578 1080 q 756 728 731 834 q 782 512 782 623 q 756 306 782 406 q 679 128 730 206 q 405 -28 575 -28 m 294 1124 l 256 1177 l 440 1314 l 479 1261 l 294 1124 m 518 1124 l 479 1177 l 665 1314 l 703 1261 l 518 1124 z "},"ő":{"ha":687,"x_min":16,"x_max":652,"o":"m 334 65 q 424 86 385 65 q 490 142 463 106 q 541 243 524 185 q 557 362 557 300 q 541 490 557 428 q 490 598 524 551 q 334 678 431 678 q 177 601 237 678 q 110 378 110 514 q 127 252 110 313 q 178 144 144 191 q 334 65 237 65 m 334 -28 q 200 3 258 -28 q 103 88 142 35 q 38 223 59 147 q 16 378 16 298 q 38 529 16 456 q 103 659 60 602 q 334 772 191 772 q 467 740 410 772 q 565 654 525 708 q 630 518 608 595 q 652 362 652 442 q 630 213 652 286 q 564 84 608 140 q 334 -28 476 -28 m 224 859 l 184 911 l 370 1048 l 408 995 l 224 859 m 448 859 l 408 911 l 593 1048 l 633 995 l 448 859 z "},"Œ":{"ha":1244,"x_min":28,"x_max":1245,"o":"m 405 66 q 602 180 526 66 q 666 333 644 246 q 688 512 688 419 q 666 703 688 610 q 601 865 645 795 q 405 985 526 985 q 208 870 283 985 q 143 717 165 804 q 121 534 121 630 q 143 345 121 437 q 208 184 165 254 q 405 66 283 66 m 405 -28 q 130 134 232 -28 q 53 320 78 215 q 28 534 28 425 q 54 744 28 643 q 130 922 79 844 q 405 1080 233 1080 q 699 884 593 1080 l 699 1056 l 792 1056 l 792 1023 l 1241 1044 l 1245 951 l 792 929 l 792 487 l 1181 469 l 1177 375 l 792 393 l 792 132 l 1241 154 l 1245 60 l 792 39 l 792 4 l 699 4 l 699 161 q 405 -28 592 -28 z "},"œ":{"ha":1117,"x_min":14,"x_max":1093,"o":"m 331 65 q 421 86 382 65 q 488 142 460 106 q 538 243 521 185 q 555 362 555 300 q 487 598 555 507 q 331 678 428 678 q 174 601 234 678 q 107 378 107 514 q 124 252 107 313 q 175 144 141 191 q 331 65 234 65 m 759 332 q 924 378 859 332 q 998 505 998 432 q 965 577 998 547 q 872 606 932 606 q 726 548 789 606 q 655 363 655 482 l 655 343 q 759 332 711 332 m 331 -28 q 100 88 186 -28 q 35 223 56 147 q 14 378 14 298 q 36 529 14 456 q 100 659 58 602 q 331 772 188 772 q 465 740 407 772 q 613 560 565 684 q 764 680 667 646 q 872 700 819 700 q 1027 648 967 700 q 1093 505 1093 591 q 977 301 1093 384 q 759 237 888 237 q 675 244 720 237 q 726 162 692 198 q 916 92 793 92 q 964 94 940 92 l 973 1 q 916 -2 943 -2 q 766 24 829 -2 q 609 165 661 68 q 561 84 589 121 q 331 -28 473 -28 z "},"Ŕ":{"ha":720,"x_min":56,"x_max":709,"o":"m 155 928 l 176 458 q 616 702 616 492 q 493 878 616 821 q 196 929 383 929 q 155 928 176 929 m 184 294 l 197 -7 l 104 -12 l 56 1041 l 149 1045 l 151 1022 q 195 1023 173 1023 q 532 963 404 1023 q 709 701 709 882 q 559 459 709 543 q 241 370 441 393 l 562 29 l 494 -35 l 184 294 m 280 1090 l 241 1143 l 426 1280 l 465 1227 l 280 1090 z "},"ŕ":{"ha":412,"x_min":39,"x_max":410,"o":"m 64 50 l 39 765 l 133 768 l 136 677 q 266 747 200 747 q 377 681 335 747 q 410 539 410 629 l 316 539 q 297 632 316 602 q 266 654 283 654 q 207 617 242 654 q 142 507 172 581 l 157 52 l 64 50 m 173 850 l 134 902 l 319 1039 l 358 986 l 173 850 z "},"Ŗ":{"ha":720,"x_min":56,"x_max":709,"o":"m 155 928 l 176 458 q 616 702 616 492 q 493 878 616 821 q 196 929 383 929 q 155 928 176 929 m 184 294 l 197 -7 l 104 -12 l 56 1041 l 149 1045 l 151 1022 q 195 1023 173 1023 q 532 963 404 1023 q 709 701 709 882 q 559 459 709 543 q 241 370 441 393 l 562 29 l 494 -35 l 184 294 m 271 -236 l 271 -210 q 321 -165 319 -210 l 271 -165 l 271 -68 l 351 -68 l 351 -142 q 341 -201 351 -180 q 312 -229 330 -221 q 271 -236 294 -236 z "},"ŗ":{"ha":403,"x_min":35,"x_max":406,"o":"m 60 50 l 35 765 l 129 768 l 132 677 q 262 747 196 747 q 373 681 331 747 q 406 539 406 629 l 312 539 q 293 632 312 602 q 262 654 279 654 q 203 617 238 654 q 138 507 168 581 l 153 52 l 60 50 m 77 -236 l 77 -210 q 127 -165 126 -210 l 77 -165 l 77 -68 l 158 -68 l 158 -142 q 148 -201 158 -180 q 119 -229 137 -221 q 77 -236 100 -236 z "},"Ř":{"ha":720,"x_min":56,"x_max":709,"o":"m 155 928 l 176 458 q 616 702 616 492 q 493 878 616 821 q 196 929 383 929 q 155 928 176 929 m 184 294 l 197 -7 l 104 -12 l 56 1041 l 149 1045 l 151 1022 q 195 1023 173 1023 q 532 963 404 1023 q 709 701 709 882 q 559 459 709 543 q 241 370 441 393 l 562 29 l 494 -35 l 184 294 m 178 1295 l 344 1173 l 509 1295 l 548 1243 l 363 1106 q 344 1100 353 1100 q 323 1107 334 1100 l 140 1243 l 178 1295 z "},"ř":{"ha":454,"x_min":44,"x_max":452,"o":"m 87 50 l 62 765 l 156 768 l 159 677 q 289 747 223 747 q 400 681 358 747 q 433 539 433 629 l 339 539 q 320 632 339 602 q 289 654 307 654 q 230 617 265 654 q 165 507 195 581 l 180 52 l 87 50 m 83 1025 l 248 903 l 414 1025 l 452 972 l 268 836 q 248 829 258 829 q 228 836 238 829 l 44 972 l 83 1025 z "},"Ś":{"ha":667,"x_min":29,"x_max":694,"o":"m 307 -7 q 181 17 242 -7 q 84 87 124 40 l 157 147 q 307 87 208 87 q 395 104 353 87 q 464 158 437 121 q 490 254 490 195 q 464 336 490 302 q 396 394 437 369 q 306 444 354 420 q 206 496 255 468 q 117 564 157 525 q 53 656 77 602 q 29 787 29 711 q 52 905 29 848 q 119 1008 74 963 q 342 1090 204 1090 q 555 1014 458 1090 q 694 814 642 946 l 607 781 q 421 983 544 940 q 342 996 382 996 q 184 940 242 996 q 123 787 123 880 q 195 623 123 688 q 348 527 243 578 q 436 480 394 505 q 511 425 478 456 q 584 254 584 359 q 498 55 584 124 q 307 -7 420 -7 m 326 1147 l 288 1200 l 472 1337 l 511 1284 l 326 1147 z "},"ś":{"ha":582,"x_min":17,"x_max":581,"o":"m 253 -7 q 66 64 134 -7 l 134 128 q 253 87 174 87 q 363 119 323 87 q 397 196 397 146 q 376 248 397 227 q 322 287 355 270 q 251 321 289 304 q 166 361 208 340 q 91 412 125 382 q 37 483 58 441 q 17 584 17 524 q 36 676 17 631 q 96 755 56 721 q 283 817 168 817 q 374 803 329 817 q 581 610 512 761 l 494 572 q 407 683 461 647 q 283 723 347 723 q 156 684 202 723 q 111 584 111 644 q 137 503 111 535 q 204 448 163 471 q 289 406 245 425 q 387 358 342 385 q 461 294 433 332 q 490 196 490 256 q 423 47 490 102 q 253 -7 355 -7 m 262 874 l 224 926 l 408 1063 l 448 1010 l 262 874 z "},"Ŝ":{"ha":667,"x_min":29,"x_max":694,"o":"m 307 -7 q 181 17 242 -7 q 84 87 124 40 l 157 147 q 307 87 208 87 q 395 104 353 87 q 464 158 437 121 q 490 254 490 195 q 464 336 490 302 q 396 394 437 369 q 306 444 354 420 q 206 496 255 468 q 117 564 157 525 q 53 656 77 602 q 29 787 29 711 q 52 905 29 848 q 119 1008 74 963 q 342 1090 204 1090 q 555 1014 458 1090 q 694 814 642 946 l 607 781 q 421 983 544 940 q 342 996 382 996 q 184 940 242 996 q 123 787 123 880 q 195 623 123 688 q 348 527 243 578 q 436 480 394 505 q 511 425 478 456 q 584 254 584 359 q 498 55 584 124 q 307 -7 420 -7 m 528 1123 l 362 1245 l 197 1123 l 158 1175 l 342 1312 q 362 1318 353 1318 q 382 1312 372 1318 l 566 1175 l 528 1123 z "},"ŝ":{"ha":584,"x_min":19,"x_max":583,"o":"m 255 -7 q 68 64 136 -7 l 136 128 q 255 87 176 87 q 366 119 325 87 q 399 196 399 146 q 378 248 399 227 q 324 287 357 270 q 253 321 291 304 q 169 361 210 340 q 93 412 127 382 q 39 483 60 441 q 19 584 19 524 q 38 676 19 631 q 98 755 58 721 q 286 817 170 817 q 376 803 331 817 q 583 610 514 761 l 496 572 q 409 683 463 647 q 286 723 349 723 q 158 684 204 723 q 113 584 113 644 q 139 503 113 535 q 206 448 165 471 q 291 406 247 425 q 389 358 344 385 q 464 294 435 332 q 492 196 492 256 q 425 47 492 102 q 255 -7 357 -7 m 466 874 l 300 996 l 135 874 l 96 926 l 281 1063 q 300 1069 291 1069 q 321 1063 311 1069 l 505 926 l 466 874 z "},"Ş":{"ha":667,"x_min":29,"x_max":694,"o":"m 264 -4 q 181 17 222 1 q 84 87 124 40 l 157 147 q 307 87 208 87 q 395 104 353 87 q 464 158 437 121 q 490 254 490 195 q 464 336 490 302 q 396 394 437 369 q 306 444 354 420 q 206 496 255 468 q 117 564 157 525 q 53 656 77 602 q 29 787 29 711 q 52 905 29 848 q 119 1008 74 963 q 342 1090 204 1090 q 555 1014 458 1090 q 694 814 642 946 l 607 781 q 421 983 544 940 q 342 996 382 996 q 184 940 242 996 q 123 787 123 880 q 195 623 123 688 q 348 527 243 578 q 436 480 394 505 q 511 425 478 456 q 584 254 584 359 q 498 55 584 124 q 334 -6 430 1 l 319 -46 q 359 -41 340 -41 q 429 -67 400 -41 q 458 -135 458 -94 q 230 -336 458 -245 l 206 -275 q 382 -163 347 -219 q 393 -135 393 -147 q 384 -115 393 -123 q 359 -106 375 -106 q 280 -143 317 -106 q 257 -153 270 -153 q 234 -143 244 -153 q 224 -121 224 -133 q 264 -4 224 -115 z "},"ş":{"ha":582,"x_min":17,"x_max":581,"o":"m 197 -326 l 174 -264 q 350 -152 314 -208 q 360 -124 360 -136 q 351 -104 360 -112 q 326 -96 342 -96 q 248 -132 284 -96 q 224 -142 237 -142 q 202 -132 212 -142 q 192 -110 192 -122 q 228 -6 192 -105 q 66 64 127 1 l 134 128 q 253 87 174 87 q 363 119 323 87 q 397 196 397 146 q 376 248 397 227 q 322 287 355 270 q 251 321 289 304 q 166 361 208 340 q 91 412 125 382 q 37 483 58 441 q 17 584 17 524 q 36 676 17 631 q 96 755 56 721 q 283 817 168 817 q 374 803 329 817 q 581 610 512 761 l 494 572 q 407 683 461 647 q 283 723 347 723 q 156 684 202 723 q 111 584 111 644 q 137 503 111 535 q 204 448 163 471 q 289 406 245 425 q 387 358 342 385 q 461 294 433 332 q 490 196 490 256 q 423 47 490 102 q 298 -4 371 5 l 286 -35 q 326 -30 307 -30 q 397 -57 368 -30 q 426 -124 426 -83 q 197 -326 426 -234 z "},"Š":{"ha":667,"x_min":29,"x_max":694,"o":"m 307 -7 q 181 17 242 -7 q 84 87 124 40 l 157 147 q 307 87 208 87 q 395 104 353 87 q 464 158 437 121 q 490 254 490 195 q 464 336 490 302 q 396 394 437 369 q 306 444 354 420 q 206 496 255 468 q 117 564 157 525 q 53 656 77 602 q 29 787 29 711 q 52 905 29 848 q 119 1008 74 963 q 342 1090 204 1090 q 555 1014 458 1090 q 694 814 642 946 l 607 781 q 421 983 544 940 q 342 996 382 996 q 184 940 242 996 q 123 787 123 880 q 195 623 123 688 q 348 527 243 578 q 436 480 394 505 q 511 425 478 456 q 584 254 584 359 q 498 55 584 124 q 307 -7 420 -7 m 197 1354 l 362 1232 l 528 1354 l 566 1301 l 382 1164 q 362 1158 372 1158 q 342 1165 352 1158 l 158 1301 l 197 1354 z "},"š":{"ha":585,"x_min":20,"x_max":584,"o":"m 256 -7 q 69 64 138 -7 l 138 128 q 256 87 177 87 q 367 119 326 87 q 400 196 400 146 q 379 248 400 227 q 326 287 359 270 q 254 321 292 304 q 170 361 212 340 q 95 412 128 382 q 41 483 61 441 q 20 584 20 524 q 40 676 20 631 q 99 755 59 721 q 287 817 171 817 q 378 803 332 817 q 584 610 515 761 l 498 572 q 410 683 465 647 q 287 723 350 723 q 160 684 205 723 q 114 584 114 644 q 140 503 114 535 q 208 448 167 471 q 292 406 248 425 q 391 358 345 385 q 465 294 436 332 q 494 196 494 256 q 426 47 494 102 q 256 -7 359 -7 m 136 1080 l 302 958 l 467 1080 l 506 1027 l 321 890 q 302 884 311 884 q 281 891 292 884 l 98 1027 l 136 1080 z "},"Ţ":{"ha":549,"x_min":-4,"x_max":633,"o":"m 269 -7 l 262 -7 l 245 902 l -4 902 l -4 996 l 633 996 l 633 902 l 338 902 l 355 -5 l 339 -5 l 322 -51 q 362 -45 343 -45 q 433 -72 404 -45 q 462 -140 462 -99 q 233 -341 462 -250 l 210 -280 q 386 -168 350 -224 q 396 -140 396 -152 q 387 -119 396 -127 q 362 -111 378 -111 q 283 -148 320 -111 q 260 -158 273 -158 q 238 -148 248 -158 q 228 -125 228 -138 q 269 -7 228 -120 z "},"ţ":{"ha":358,"x_min":-1,"x_max":422,"o":"m 240 64 q 126 214 165 113 q 79 511 79 334 q 102 765 79 634 l -1 775 l 9 869 l 121 857 q 160 1000 137 928 l 249 971 q 214 848 229 909 l 337 835 l 328 742 l 195 755 q 172 511 172 629 q 214 248 172 359 q 327 125 252 151 q 376 117 349 117 l 376 23 q 299 35 335 23 l 283 -8 q 323 -3 304 -3 q 393 -30 364 -3 q 422 -97 422 -56 q 194 -298 422 -207 l 170 -237 q 347 -125 311 -181 q 357 -97 357 -109 q 348 -77 357 -85 q 323 -68 339 -68 q 244 -105 281 -68 q 221 -115 234 -115 q 198 -105 208 -115 q 189 -83 189 -95 q 240 64 189 -77 z "},"Ť":{"ha":546,"x_min":-4,"x_max":633,"o":"m 262 -7 l 245 902 l -4 902 l -4 996 l 633 996 l 633 902 l 338 902 l 355 -5 l 262 -7 m 149 1284 l 315 1162 l 480 1284 l 519 1232 l 334 1095 q 315 1088 324 1088 q 294 1095 304 1088 l 111 1232 l 149 1284 z "},"ť":{"ha":391,"x_min":-1,"x_max":494,"o":"m 376 23 q 298 36 334 23 q 126 214 180 77 q 79 511 79 334 q 102 765 79 634 l -1 775 l 9 869 l 121 857 q 160 1000 137 928 l 249 971 q 214 848 229 909 l 337 835 l 328 742 l 195 755 q 172 511 172 629 q 214 248 172 359 q 327 125 252 151 q 376 117 349 117 l 376 23 m 413 832 l 413 859 q 463 903 462 859 l 413 903 l 413 1000 l 494 1000 l 494 926 q 483 867 494 888 q 454 840 473 847 q 413 832 436 832 z "},"Ŧ":{"ha":631,"x_min":8,"x_max":646,"o":"m 359 448 l 368 -5 l 274 -7 l 266 448 l 74 448 l 74 542 l 264 542 l 257 902 l 8 902 l 8 996 l 646 996 l 646 902 l 351 902 l 357 542 l 580 542 l 580 448 l 359 448 z "},"ŧ":{"ha":387,"x_min":14,"x_max":391,"o":"m 191 422 q 229 248 200 325 q 342 125 267 151 q 391 117 364 117 l 391 23 q 313 36 349 23 q 141 214 195 77 q 97 422 106 302 l 31 422 l 31 516 l 94 516 q 117 765 94 637 l 14 775 l 24 869 l 136 857 q 175 1000 152 928 l 264 971 q 229 848 244 909 l 352 835 l 342 742 l 210 755 q 187 516 188 632 l 330 516 l 330 422 l 191 422 z "},"Ũ":{"ha":760,"x_min":39,"x_max":707,"o":"m 363 5 q 120 142 204 5 q 39 496 39 273 q 64 760 39 627 q 132 1012 90 901 l 219 979 q 156 744 180 877 q 133 496 133 618 q 199 191 133 300 q 363 98 256 98 q 542 195 479 98 q 612 501 612 304 q 593 763 612 628 q 543 980 576 884 l 631 1011 q 686 777 668 905 q 707 501 707 633 q 620 143 707 277 q 363 5 530 5 m 459 1094 q 396 1112 420 1094 q 353 1153 372 1130 q 323 1181 339 1168 q 286 1193 307 1193 q 252 1175 269 1193 q 220 1110 231 1152 l 157 1127 q 204 1219 173 1185 q 286 1258 239 1258 q 354 1240 328 1258 q 401 1197 380 1221 q 428 1171 414 1182 q 459 1160 441 1160 q 493 1177 477 1160 q 526 1243 514 1201 l 589 1225 q 541 1133 573 1168 q 459 1094 507 1094 z "},"ũ":{"ha":610,"x_min":26,"x_max":562,"o":"m 289 4 q 90 113 159 4 q 26 387 26 215 q 73 665 26 524 l 161 636 q 119 387 119 509 q 169 163 119 242 q 289 98 210 98 q 416 163 371 98 q 469 378 469 242 q 451 567 469 475 q 405 701 435 648 l 486 748 q 543 585 524 681 q 562 378 562 482 q 492 111 562 214 q 289 4 420 4 m 380 817 q 317 835 341 817 q 273 876 293 853 q 244 904 260 892 q 207 916 228 916 q 173 899 189 916 q 140 833 152 876 l 77 850 q 125 943 94 908 q 207 981 159 981 q 275 963 249 981 q 321 920 301 945 q 348 895 334 905 q 380 883 362 884 q 414 901 397 883 q 447 966 435 924 l 510 949 q 462 857 494 891 q 380 817 427 817 z "},"Ū":{"ha":760,"x_min":39,"x_max":707,"o":"m 363 5 q 120 142 204 5 q 39 496 39 273 q 64 760 39 627 q 132 1012 90 901 l 219 979 q 156 744 180 877 q 133 496 133 618 q 199 191 133 300 q 363 98 256 98 q 542 195 479 98 q 612 501 612 304 q 593 763 612 628 q 543 980 576 884 l 631 1011 q 686 777 668 905 q 707 501 707 633 q 620 143 707 277 q 363 5 530 5 m 475 1076 l 271 1076 l 271 1141 l 475 1141 l 475 1076 z "},"ū":{"ha":601,"x_min":16,"x_max":553,"o":"m 279 4 q 81 113 149 4 q 16 387 16 215 q 63 665 16 524 l 152 636 q 110 387 110 509 q 159 163 110 242 q 279 98 201 98 q 406 163 361 98 q 459 378 459 242 q 441 567 459 475 q 395 701 425 648 l 476 748 q 533 585 514 681 q 553 378 553 482 q 483 111 553 214 q 279 4 411 4 m 387 814 l 182 814 l 182 880 l 387 880 l 387 814 z "},"Ŭ":{"ha":760,"x_min":39,"x_max":707,"o":"m 363 5 q 120 142 204 5 q 39 496 39 273 q 64 760 39 627 q 132 1012 90 901 l 219 979 q 156 744 180 877 q 133 496 133 618 q 199 191 133 300 q 363 98 256 98 q 542 195 479 98 q 612 501 612 304 q 593 763 612 628 q 543 980 576 884 l 631 1011 q 686 777 668 905 q 707 501 707 633 q 620 143 707 277 q 363 5 530 5 m 370 1083 q 235 1124 298 1083 q 157 1230 178 1160 l 220 1248 q 271 1178 233 1202 q 370 1149 317 1149 q 474 1177 427 1149 q 526 1248 512 1201 l 589 1230 q 509 1123 568 1159 q 370 1083 445 1083 z "},"ŭ":{"ha":610,"x_min":26,"x_max":562,"o":"m 289 4 q 90 113 159 4 q 26 387 26 215 q 73 665 26 524 l 161 636 q 119 387 119 509 q 169 163 119 242 q 289 98 210 98 q 416 163 371 98 q 469 378 469 242 q 451 567 469 475 q 405 701 435 648 l 486 748 q 543 585 524 681 q 562 378 562 482 q 492 111 562 214 q 289 4 420 4 m 291 806 q 155 846 218 806 q 77 953 98 883 l 140 970 q 192 901 154 925 q 291 871 237 871 q 395 900 348 871 q 447 970 433 924 l 510 953 q 430 846 488 882 q 291 806 366 806 z "},"Ů":{"ha":760,"x_min":39,"x_max":707,"o":"m 363 5 q 120 142 204 5 q 39 496 39 273 q 64 760 39 627 q 132 1012 90 901 l 219 979 q 156 744 180 877 q 133 496 133 618 q 199 191 133 300 q 363 98 256 98 q 542 195 479 98 q 612 501 612 304 q 593 763 612 628 q 543 980 576 884 l 631 1011 q 686 777 668 905 q 707 501 707 633 q 620 143 707 277 q 363 5 530 5 m 373 1032 q 274 1073 315 1032 q 233 1172 233 1114 q 274 1271 233 1230 q 373 1312 315 1312 q 472 1271 431 1312 q 513 1172 513 1230 q 472 1073 513 1114 q 373 1032 431 1032 m 373 1088 q 432 1113 408 1088 q 456 1172 456 1137 q 432 1231 456 1206 q 373 1255 408 1255 q 314 1231 338 1255 q 290 1172 290 1206 q 314 1113 290 1137 q 373 1088 338 1088 z "},"ů":{"ha":601,"x_min":16,"x_max":553,"o":"m 279 4 q 81 113 149 4 q 16 387 16 215 q 63 665 16 524 l 152 636 q 110 387 110 509 q 159 163 110 242 q 279 98 201 98 q 406 163 361 98 q 459 378 459 242 q 441 567 459 475 q 395 701 425 648 l 476 748 q 533 585 514 681 q 553 378 553 482 q 483 111 553 214 q 279 4 411 4 m 284 747 q 185 788 227 747 q 144 886 144 829 q 185 985 144 944 q 284 1026 227 1026 q 383 985 342 1026 q 424 886 424 944 q 383 788 424 829 q 284 747 342 747 m 284 803 q 343 827 319 803 q 368 886 368 852 q 343 945 368 921 q 284 970 319 970 q 225 945 250 970 q 201 886 201 921 q 225 827 201 852 q 284 803 250 803 z "},"Ű":{"ha":760,"x_min":39,"x_max":707,"o":"m 363 5 q 120 142 204 5 q 39 496 39 273 q 64 760 39 627 q 132 1012 90 901 l 219 979 q 156 744 180 877 q 133 496 133 618 q 199 191 133 300 q 363 98 256 98 q 542 195 479 98 q 612 501 612 304 q 593 763 612 628 q 543 980 576 884 l 631 1011 q 686 777 668 905 q 707 501 707 633 q 620 143 707 277 q 363 5 530 5 m 262 1054 l 224 1106 l 408 1243 l 448 1190 l 262 1054 m 486 1054 l 448 1106 l 633 1243 l 671 1190 l 486 1054 z "},"ű":{"ha":618,"x_min":16,"x_max":583,"o":"m 279 4 q 81 113 149 4 q 16 387 16 215 q 63 665 16 524 l 152 636 q 110 387 110 509 q 159 163 110 242 q 279 98 201 98 q 406 163 361 98 q 459 378 459 242 q 441 567 459 475 q 395 701 425 648 l 476 748 q 533 585 514 681 q 553 378 553 482 q 483 111 553 214 q 279 4 411 4 m 174 859 l 135 911 l 320 1048 l 359 995 l 174 859 m 398 859 l 359 911 l 544 1048 l 583 995 l 398 859 z "},"Ų":{"ha":760,"x_min":39,"x_max":707,"o":"m 427 -284 q 338 -245 375 -284 q 302 -152 302 -210 q 364 5 302 -78 q 120 142 204 5 q 39 496 39 273 q 64 760 39 627 q 132 1012 90 901 l 219 979 q 156 744 180 877 q 133 496 133 618 q 199 191 133 300 q 363 98 256 98 q 542 195 479 98 q 612 501 612 304 q 593 763 612 628 q 543 980 576 884 l 631 1011 q 686 777 668 905 q 707 501 707 633 q 620 143 707 277 q 490 29 568 63 q 407 -48 437 -5 q 368 -151 368 -103 q 385 -201 368 -184 q 423 -218 401 -218 q 482 -135 482 -218 l 547 -132 l 547 -142 q 511 -245 547 -205 q 427 -284 475 -284 z "},"ų":{"ha":598,"x_min":14,"x_max":550,"o":"m 316 -291 q 226 -252 264 -291 q 191 -159 191 -217 q 258 5 191 -83 q 78 113 142 12 q 14 387 14 215 q 60 665 14 524 l 149 636 q 107 387 107 509 q 157 163 107 242 q 277 98 198 98 q 404 163 359 98 q 456 378 456 242 q 439 567 456 475 q 393 701 422 648 l 473 748 q 530 585 511 681 q 550 378 550 482 q 480 111 550 214 q 387 27 441 54 q 295 -55 328 -9 q 256 -158 256 -110 q 273 -208 256 -191 q 312 -224 290 -224 q 371 -142 371 -224 l 436 -139 l 436 -149 q 400 -252 436 -212 q 316 -291 364 -291 z "},"Ŵ":{"ha":975,"x_min":43,"x_max":916,"o":"m 681 -34 q 483 153 545 -34 q 286 -34 419 -34 q 220 -20 251 -34 q 81 162 123 24 q 43 455 43 290 q 72 760 43 603 q 154 1046 100 916 l 240 1010 q 163 742 190 889 q 137 455 137 595 q 171 190 137 304 q 256 66 201 92 q 286 60 269 60 q 403 196 363 60 q 437 500 437 315 l 530 500 q 581 158 530 284 q 681 60 620 60 q 775 158 739 60 q 822 512 822 285 q 784 897 822 699 l 876 913 q 916 512 916 709 q 863 125 916 269 q 681 -34 804 -34 m 688 1109 l 522 1231 l 357 1109 l 318 1161 l 503 1298 q 522 1304 513 1304 q 543 1297 532 1304 l 726 1161 l 688 1109 z "},"ŵ":{"ha":865,"x_min":28,"x_max":817,"o":"m 602 -39 q 426 95 484 -39 q 250 -39 368 -39 q 170 -20 207 -39 q 60 123 94 21 q 28 336 28 218 q 54 565 28 447 q 129 781 80 683 l 213 739 q 145 544 169 651 q 122 336 122 437 q 148 153 122 232 q 250 54 181 54 q 350 151 317 54 q 380 368 380 237 l 473 368 q 516 123 473 213 q 602 54 549 54 q 683 122 653 54 q 723 378 723 213 q 690 659 723 516 l 781 679 q 817 378 817 526 q 769 84 817 193 q 602 -39 714 -39 m 639 885 l 473 1007 l 308 885 l 269 937 l 454 1074 q 473 1080 464 1080 q 494 1074 484 1080 l 677 937 l 639 885 z "},"Ŷ":{"ha":686,"x_min":40,"x_max":667,"o":"m 309 -7 l 300 376 q 115 512 182 395 q 40 865 40 643 q 44 973 40 917 l 138 967 q 134 865 134 916 q 195 559 134 667 q 345 467 248 467 q 507 562 450 467 q 574 869 574 672 q 565 1057 574 964 l 658 1066 q 667 869 667 965 q 587 513 667 646 q 393 376 516 395 l 402 -5 l 309 -7 m 519 1102 l 354 1224 l 189 1102 l 150 1154 l 334 1291 q 354 1297 345 1297 q 374 1291 364 1297 l 558 1154 l 519 1102 z "},"ŷ":{"ha":571,"x_min":-16,"x_max":583,"o":"m 273 -229 l 183 -202 l 300 188 l -16 714 l 64 762 l 336 309 l 493 831 l 583 804 l 273 -229 m 440 899 l 275 1021 l 109 899 l 71 951 l 255 1088 q 275 1095 265 1095 q 295 1088 285 1095 l 479 951 l 440 899 z "},"Ÿ":{"ha":686,"x_min":40,"x_max":667,"o":"m 309 -7 l 300 376 q 115 512 182 395 q 40 865 40 643 q 44 973 40 917 l 138 967 q 134 865 134 916 q 195 559 134 667 q 345 467 248 467 q 507 562 450 467 q 574 869 574 672 q 565 1057 574 964 l 658 1066 q 667 869 667 965 q 587 513 667 646 q 393 376 516 395 l 402 -5 l 309 -7 m 311 1109 l 211 1109 l 211 1210 l 311 1210 l 311 1109 m 498 1109 l 398 1109 l 398 1210 l 498 1210 l 498 1109 z "},"Ź":{"ha":518,"x_min":-30,"x_max":558,"o":"m 508 -20 l 52 -20 q 32 -16 41 -20 q 4 27 4 -2 q 9 46 4 37 l 441 960 l -30 1006 l -20 1099 l 516 1046 q 547 1030 536 1044 q 558 999 558 1016 q 554 979 558 989 l 125 73 l 508 73 l 508 -20 m 229 1127 l 190 1179 l 374 1316 l 414 1263 l 229 1127 z "},"ź":{"ha":517,"x_min":-8,"x_max":538,"o":"m 488 -21 l 67 -21 l 67 -20 l 65 -20 q 43 -14 53 -20 q 20 26 20 1 q 27 50 20 38 l 414 699 l -8 737 l 1 830 l 496 785 q 527 768 516 782 q 538 738 538 755 q 532 714 538 726 l 149 73 l 488 73 l 488 -21 m 229 859 l 191 911 l 375 1048 l 414 995 l 229 859 z "},"Ż":{"ha":518,"x_min":-30,"x_max":558,"o":"m 508 -20 l 52 -20 q 32 -16 41 -20 q 4 27 4 -2 q 9 46 4 37 l 441 960 l -30 1006 l -20 1099 l 516 1046 q 547 1030 536 1044 q 558 999 558 1016 q 554 979 558 989 l 125 73 l 508 73 l 508 -20 m 315 1152 l 215 1152 l 215 1252 l 315 1252 l 315 1152 z "},"ż":{"ha":517,"x_min":-8,"x_max":538,"o":"m 488 -21 l 67 -21 l 67 -20 l 65 -20 q 43 -14 53 -20 q 20 26 20 1 q 27 50 20 38 l 414 699 l -8 737 l 1 830 l 496 785 q 527 768 516 782 q 538 738 538 755 q 532 714 538 726 l 149 73 l 488 73 l 488 -21 m 315 886 l 216 886 l 216 986 l 315 986 l 315 886 z "},"Ž":{"ha":518,"x_min":-30,"x_max":558,"o":"m 508 -20 l 52 -20 q 32 -16 41 -20 q 4 27 4 -2 q 9 46 4 37 l 441 960 l -30 1006 l -20 1099 l 516 1046 q 547 1030 536 1044 q 558 999 558 1016 q 554 979 558 989 l 125 73 l 508 73 l 508 -20 m 99 1318 l 264 1196 l 430 1318 l 469 1265 l 284 1128 q 264 1122 274 1122 q 244 1129 254 1122 l 60 1265 l 99 1318 z "},"ž":{"ha":523,"x_min":-3,"x_max":544,"o":"m 494 -21 l 73 -21 l 73 -20 l 71 -20 q 48 -14 58 -20 q 26 26 26 1 q 33 50 26 38 l 419 699 l -3 737 l 6 830 l 501 785 q 533 768 522 782 q 544 738 544 755 q 537 714 544 726 l 155 73 l 494 73 l 494 -21 m 105 1054 l 271 932 l 436 1054 l 475 1002 l 290 865 q 271 859 280 859 q 250 865 260 859 l 66 1002 l 105 1054 z "},"Ș":{"ha":667,"x_min":29,"x_max":694,"o":"m 307 -7 q 181 17 242 -7 q 84 87 124 40 l 157 147 q 307 87 208 87 q 395 104 353 87 q 464 158 437 121 q 490 254 490 195 q 464 336 490 302 q 396 394 437 369 q 306 444 354 420 q 206 496 255 468 q 117 564 157 525 q 53 656 77 602 q 29 787 29 711 q 52 905 29 848 q 119 1008 74 963 q 342 1090 204 1090 q 555 1014 458 1090 q 694 814 642 946 l 607 781 q 421 983 544 940 q 342 996 382 996 q 184 940 242 996 q 123 787 123 880 q 195 623 123 688 q 348 527 243 578 q 436 480 394 505 q 511 425 478 456 q 584 254 584 359 q 498 55 584 124 q 307 -7 420 -7 m 300 -236 l 300 -210 q 351 -165 349 -210 l 300 -165 l 300 -68 l 381 -68 l 381 -142 q 371 -201 381 -180 q 342 -229 360 -221 q 300 -236 323 -236 z "},"ș":{"ha":582,"x_min":17,"x_max":581,"o":"m 253 -7 q 66 64 134 -7 l 134 128 q 253 87 174 87 q 363 119 323 87 q 397 196 397 146 q 376 248 397 227 q 322 287 355 270 q 251 321 289 304 q 166 361 208 340 q 91 412 125 382 q 37 483 58 441 q 17 584 17 524 q 36 676 17 631 q 96 755 56 721 q 283 817 168 817 q 374 803 329 817 q 581 610 512 761 l 494 572 q 407 683 461 647 q 283 723 347 723 q 156 684 202 723 q 111 584 111 644 q 137 503 111 535 q 204 448 163 471 q 289 406 245 425 q 387 358 342 385 q 461 294 433 332 q 490 196 490 256 q 423 47 490 102 q 253 -7 355 -7 m 240 -236 l 240 -210 q 290 -165 289 -210 l 240 -165 l 240 -68 l 321 -68 l 321 -142 q 310 -201 321 -180 q 281 -229 300 -221 q 240 -236 263 -236 z "},"Ț":{"ha":546,"x_min":-4,"x_max":633,"o":"m 262 -7 l 245 902 l -4 902 l -4 996 l 633 996 l 633 902 l 338 902 l 355 -5 l 262 -7 m 275 -236 l 275 -210 q 325 -165 323 -210 l 275 -165 l 275 -68 l 355 -68 l 355 -142 q 345 -201 355 -180 q 316 -229 334 -221 q 275 -236 298 -236 z "},"ț":{"ha":353,"x_min":-1,"x_max":376,"o":"m 376 23 q 298 36 334 23 q 126 214 180 77 q 79 511 79 334 q 102 765 79 634 l -1 775 l 9 869 l 121 857 q 160 1000 137 928 l 249 971 q 214 848 229 909 l 337 835 l 328 742 l 195 755 q 172 511 172 629 q 214 248 172 359 q 327 125 252 151 q 376 117 349 117 l 376 23 m 187 -236 l 187 -210 q 237 -165 236 -210 l 187 -165 l 187 -68 l 268 -68 l 268 -142 q 257 -201 268 -180 q 229 -229 247 -221 q 187 -236 210 -236 z "},"Ȳ":{"ha":686,"x_min":40,"x_max":667,"o":"m 309 -7 l 300 376 q 115 512 182 395 q 40 865 40 643 q 44 973 40 917 l 138 967 q 134 865 134 916 q 195 559 134 667 q 345 467 248 467 q 507 562 450 467 q 574 869 574 672 q 565 1057 574 964 l 658 1066 q 667 869 667 965 q 587 513 667 646 q 393 376 516 395 l 402 -5 l 309 -7 m 443 1101 l 239 1101 l 239 1166 l 443 1166 l 443 1101 z "},"ȳ":{"ha":566,"x_min":-22,"x_max":578,"o":"m 268 -229 l 178 -202 l 295 188 l -22 714 l 59 762 l 331 309 l 488 831 l 578 804 l 268 -229 m 356 867 l 152 867 l 152 932 l 356 932 l 356 867 z "},"Ḍ":{"ha":772,"x_min":75,"x_max":740,"o":"m 168 -37 l 75 -36 l 94 1017 l 187 1015 l 186 994 q 481 932 361 994 q 682 746 617 863 q 740 524 740 642 q 699 330 740 425 q 496 95 639 192 q 168 -15 366 7 l 168 -37 m 170 79 q 440 170 333 100 q 612 368 563 252 q 646 524 646 444 q 600 699 646 617 q 440 847 548 794 q 185 900 333 900 l 170 79 m 375 -172 l 275 -172 l 275 -72 l 375 -72 l 375 -172 z "},"ḍ":{"ha":677,"x_min":7,"x_max":606,"o":"m 512 -21 l 510 45 q 377 32 437 32 q 136 101 231 32 q 7 350 7 195 q 45 501 7 430 q 486 734 151 707 l 476 1013 l 570 1016 l 606 -18 l 512 -21 m 377 125 q 507 140 435 125 l 489 641 q 129 460 212 617 q 102 350 102 408 q 191 178 102 242 q 377 125 261 125 m 393 -168 l 294 -168 l 294 -68 l 393 -68 l 393 -168 z "},"Ḥ":{"ha":753,"x_min":36,"x_max":724,"o":"m 172 389 l 174 -20 l 81 -20 l 79 397 l 36 400 l 44 494 l 79 491 l 75 1032 l 169 1033 l 172 483 l 573 450 l 631 1037 l 724 1028 l 623 -1 l 530 7 l 564 357 l 172 389 m 401 -168 l 302 -168 l 302 -68 l 401 -68 l 401 -168 z "},"ḥ":{"ha":699,"x_min":44,"x_max":650,"o":"m 157 694 q 160 698 158 696 q 367 802 235 802 q 429 795 399 802 q 606 648 551 769 q 650 396 650 549 q 612 63 650 248 l 520 82 q 557 396 557 256 q 521 608 557 529 q 367 708 479 708 q 234 641 283 708 q 171 429 177 562 l 190 79 l 96 74 l 44 1042 l 138 1047 l 157 694 m 404 -168 l 304 -168 l 304 -68 l 404 -68 l 404 -168 z "},"Ḳ":{"ha":590,"x_min":75,"x_max":679,"o":"m 87 18 l 75 1057 l 168 1059 l 173 655 l 613 1091 l 679 1025 l 200 551 l 580 96 l 508 36 l 176 433 l 181 19 l 87 18 m 379 -168 l 279 -168 l 279 -68 l 379 -68 l 379 -168 z "},"ḳ":{"ha":592,"x_min":58,"x_max":629,"o":"m 71 18 l 58 1057 l 151 1058 l 158 489 l 574 789 l 629 714 l 194 399 l 535 101 l 473 31 l 161 304 l 164 19 l 71 18 m 349 -168 l 249 -168 l 249 -68 l 349 -68 l 349 -168 z "},"Ḷ":{"ha":472,"x_min":75,"x_max":508,"o":"m 87 18 l 75 1057 l 168 1059 l 179 134 l 502 154 l 508 60 l 180 39 l 180 19 l 87 18 m 352 -168 l 252 -168 l 252 -68 l 352 -68 l 352 -168 z "},"ḷ":{"ha":238,"x_min":58,"x_max":167,"o":"m 71 18 l 58 1057 l 151 1058 l 164 19 l 71 18 m 167 -168 l 67 -168 l 67 -68 l 167 -68 l 167 -168 z "},"Ḹ":{"ha":472,"x_min":75,"x_max":508,"o":"m 87 18 l 75 1057 l 168 1059 l 179 134 l 502 154 l 508 60 l 180 39 l 180 19 l 87 18 m 352 -168 l 252 -168 l 252 -68 l 352 -68 l 352 -168 m 412 1139 l 208 1139 l 208 1205 l 412 1205 l 412 1139 z "},"ḹ":{"ha":241,"x_min":8,"x_max":212,"o":"m 76 18 l 63 1057 l 157 1058 l 170 19 l 76 18 m 172 -168 l 73 -168 l 73 -68 l 172 -68 l 172 -168 m 212 1127 l 8 1127 l 8 1193 l 212 1193 l 212 1127 z "},"Ḻ":{"ha":472,"x_min":75,"x_max":508,"o":"m 87 18 l 75 1057 l 168 1059 l 179 134 l 502 154 l 508 60 l 180 39 l 180 19 l 87 18 m 411 -143 l 208 -143 l 208 -77 l 411 -77 l 411 -143 z "},"ḻ":{"ha":235,"x_min":23,"x_max":227,"o":"m 78 18 l 65 1057 l 159 1058 l 172 19 l 78 18 m 227 -149 l 23 -149 l 23 -83 l 227 -83 l 227 -149 z "},"Ṁ":{"ha":979,"x_min":47,"x_max":920,"o":"m 808 24 l 722 61 q 799 329 772 182 q 825 616 825 476 q 791 881 825 766 q 707 1005 762 979 q 676 1011 693 1011 q 576 913 615 1011 q 526 571 526 787 l 432 571 q 382 913 432 787 q 281 1011 343 1011 q 187 912 224 1011 q 141 558 141 785 q 178 174 141 369 l 86 157 q 47 558 47 361 q 100 945 47 802 q 281 1105 159 1105 q 479 921 417 1105 q 676 1105 542 1105 q 743 1090 711 1105 q 881 909 840 1046 q 920 616 920 780 q 891 311 920 468 q 808 24 862 155 m 530 1127 l 431 1127 l 431 1227 l 530 1227 l 530 1127 z "},"ṁ":{"ha":803,"x_min":31,"x_max":755,"o":"m 663 22 l 579 64 q 640 239 619 143 q 661 427 661 336 q 637 591 661 520 q 549 677 609 677 q 475 618 503 677 q 436 397 436 538 l 342 397 q 304 618 342 538 q 230 677 275 677 q 161 618 186 677 q 125 389 125 537 q 155 136 125 264 l 63 115 q 31 389 31 254 q 75 657 31 557 q 230 772 126 772 q 389 657 336 772 q 549 772 443 772 q 623 754 589 772 q 726 621 695 715 q 755 427 755 534 q 731 218 755 326 q 663 22 707 111 m 443 826 l 343 826 l 343 926 l 443 926 l 443 826 z "},"Ṃ":{"ha":979,"x_min":47,"x_max":920,"o":"m 808 24 l 722 61 q 799 329 772 182 q 825 616 825 476 q 791 881 825 766 q 707 1005 762 979 q 676 1011 693 1011 q 576 913 615 1011 q 526 571 526 787 l 432 571 q 382 913 432 787 q 281 1011 343 1011 q 187 912 224 1011 q 141 558 141 785 q 178 174 141 369 l 86 157 q 47 558 47 361 q 100 945 47 802 q 281 1105 159 1105 q 479 921 417 1105 q 676 1105 542 1105 q 743 1090 711 1105 q 881 909 840 1046 q 920 616 920 780 q 891 311 920 468 q 808 24 862 155 m 469 -106 l 370 -106 l 370 -7 l 469 -7 l 469 -106 z "},"ṃ":{"ha":803,"x_min":31,"x_max":755,"o":"m 663 22 l 579 64 q 640 239 619 143 q 661 427 661 336 q 637 591 661 520 q 549 677 609 677 q 475 618 503 677 q 436 397 436 538 l 342 397 q 304 618 342 538 q 230 677 275 677 q 161 618 186 677 q 125 389 125 537 q 155 136 125 264 l 63 115 q 31 389 31 254 q 75 657 31 557 q 230 772 126 772 q 389 657 336 772 q 549 772 443 772 q 623 754 589 772 q 726 621 695 715 q 755 427 755 534 q 731 218 755 326 q 663 22 707 111 m 408 -118 l 309 -118 l 309 -18 l 408 -18 l 408 -118 z "},"Ṅ":{"ha":753,"x_min":75,"x_max":701,"o":"m 608 -1 l 591 320 l 169 890 l 174 56 l 81 55 l 75 1032 q 88 1066 75 1053 q 121 1079 102 1079 q 159 1061 145 1079 l 581 490 l 552 1032 l 646 1037 l 701 3 l 608 -1 m 458 1153 l 358 1153 l 358 1253 l 458 1253 l 458 1153 z "},"ṅ":{"ha":687,"x_min":35,"x_max":639,"o":"m 611 35 l 518 50 q 545 336 545 208 q 508 572 545 484 q 385 675 472 657 q 351 677 370 677 q 247 637 291 677 q 180 533 203 597 q 159 418 159 478 q 181 50 159 407 l 87 43 l 35 748 l 129 754 l 136 651 q 351 772 222 772 q 400 768 376 772 q 639 336 639 726 q 611 35 639 201 m 405 860 l 305 860 l 305 960 l 405 960 l 405 860 z "},"Ṇ":{"ha":753,"x_min":75,"x_max":701,"o":"m 608 -1 l 591 320 l 169 890 l 174 56 l 81 55 l 75 1032 q 88 1066 75 1053 q 121 1079 102 1079 q 159 1061 145 1079 l 581 490 l 552 1032 l 646 1037 l 701 3 l 608 -1 m 414 -186 l 315 -186 l 315 -87 l 414 -87 l 414 -186 z "},"ṇ":{"ha":687,"x_min":35,"x_max":639,"o":"m 611 35 l 518 50 q 545 336 545 208 q 508 572 545 484 q 385 675 472 657 q 351 677 370 677 q 247 637 291 677 q 180 533 203 597 q 159 418 159 478 q 181 50 159 407 l 87 43 l 35 748 l 129 754 l 136 651 q 351 772 222 772 q 400 768 376 772 q 639 336 639 726 q 611 35 639 201 m 382 -137 l 282 -137 l 282 -37 l 382 -37 l 382 -137 z "},"Ṉ":{"ha":753,"x_min":75,"x_max":701,"o":"m 608 -1 l 591 320 l 169 890 l 174 56 l 81 55 l 75 1032 q 88 1066 75 1053 q 121 1079 102 1079 q 159 1061 145 1079 l 581 490 l 552 1032 l 646 1037 l 701 3 l 608 -1 m 461 -134 l 258 -134 l 258 -68 l 461 -68 l 461 -134 z "},"ṉ":{"ha":687,"x_min":35,"x_max":639,"o":"m 611 35 l 518 50 q 545 336 545 208 q 508 572 545 484 q 385 675 472 657 q 351 677 370 677 q 247 637 291 677 q 180 533 203 597 q 159 418 159 478 q 181 50 159 407 l 87 43 l 35 748 l 129 754 l 136 651 q 351 772 222 772 q 400 768 376 772 q 639 336 639 726 q 611 35 639 201 m 439 -151 l 235 -151 l 235 -85 l 439 -85 l 439 -151 z "},"Ṙ":{"ha":720,"x_min":56,"x_max":709,"o":"m 155 928 l 176 458 q 616 702 616 492 q 493 878 616 821 q 196 929 383 929 q 155 928 176 929 m 184 294 l 197 -7 l 104 -12 l 56 1041 l 149 1045 l 151 1022 q 195 1023 173 1023 q 532 963 404 1023 q 709 701 709 882 q 559 459 709 543 q 241 370 441 393 l 562 29 l 494 -35 l 184 294 m 420 1126 l 320 1126 l 320 1227 l 420 1227 l 420 1126 z "},"ṙ":{"ha":407,"x_min":39,"x_max":410,"o":"m 64 50 l 39 765 l 133 768 l 136 677 q 266 747 200 747 q 377 681 335 747 q 410 539 410 629 l 316 539 q 297 632 316 602 q 266 654 283 654 q 207 617 242 654 q 142 507 172 581 l 157 52 l 64 50 m 275 827 l 176 827 l 176 928 l 275 928 l 275 827 z "},"Ṛ":{"ha":720,"x_min":56,"x_max":709,"o":"m 155 928 l 176 458 q 616 702 616 492 q 493 878 616 821 q 196 929 383 929 q 155 928 176 929 m 184 294 l 197 -7 l 104 -12 l 56 1041 l 149 1045 l 151 1022 q 195 1023 173 1023 q 532 963 404 1023 q 709 701 709 882 q 559 459 709 543 q 241 370 441 393 l 562 29 l 494 -35 l 184 294 m 358 -181 l 258 -181 l 258 -81 l 358 -81 l 358 -181 z "},"ṛ":{"ha":406,"x_min":38,"x_max":409,"o":"m 62 50 l 38 765 l 132 768 l 135 677 q 264 747 199 747 q 376 681 334 747 q 409 539 409 629 l 315 539 q 296 632 315 602 q 264 654 282 654 q 206 617 241 654 q 140 507 171 581 l 156 52 l 62 50 m 163 -179 l 64 -179 l 64 -79 l 163 -79 l 163 -179 z "},"Ṝ":{"ha":720,"x_min":56,"x_max":709,"o":"m 155 928 l 176 458 q 616 702 616 492 q 493 878 616 821 q 196 929 383 929 q 155 928 176 929 m 184 294 l 197 -7 l 104 -12 l 56 1041 l 149 1045 l 151 1022 q 195 1023 173 1023 q 532 963 404 1023 q 709 701 709 882 q 559 459 709 543 q 241 370 441 393 l 562 29 l 494 -35 l 184 294 m 358 -181 l 258 -181 l 258 -81 l 358 -81 l 358 -181 m 434 1103 l 230 1103 l 230 1169 l 434 1169 l 434 1103 z "},"ṝ":{"ha":412,"x_min":39,"x_max":410,"o":"m 64 50 l 39 765 l 133 768 l 136 677 q 266 747 200 747 q 377 681 335 747 q 410 539 410 629 l 316 539 q 297 632 316 602 q 266 654 283 654 q 207 617 242 654 q 142 507 172 581 l 157 52 l 64 50 m 165 -179 l 65 -179 l 65 -79 l 165 -79 l 165 -179 m 328 842 l 123 842 l 123 907 l 328 907 l 328 842 z "},"Ṟ":{"ha":720,"x_min":56,"x_max":709,"o":"m 155 928 l 176 458 q 616 702 616 492 q 493 878 616 821 q 196 929 383 929 q 155 928 176 929 m 184 294 l 197 -7 l 104 -12 l 56 1041 l 149 1045 l 151 1022 q 195 1023 173 1023 q 532 963 404 1023 q 709 701 709 882 q 559 459 709 543 q 241 370 441 393 l 562 29 l 494 -35 l 184 294 m 408 -159 l 205 -159 l 205 -94 l 408 -94 l 408 -159 z "},"ṟ":{"ha":408,"x_min":35,"x_max":406,"o":"m 60 50 l 35 765 l 129 768 l 132 677 q 262 747 196 747 q 373 681 331 747 q 406 539 406 629 l 312 539 q 293 632 312 602 q 262 654 279 654 q 203 617 238 654 q 138 507 168 581 l 153 52 l 60 50 m 260 -134 l 56 -134 l 56 -68 l 260 -68 l 260 -134 z "},"Ṣ":{"ha":667,"x_min":29,"x_max":694,"o":"m 307 -7 q 181 17 242 -7 q 84 87 124 40 l 157 147 q 307 87 208 87 q 395 104 353 87 q 464 158 437 121 q 490 254 490 195 q 464 336 490 302 q 396 394 437 369 q 306 444 354 420 q 206 496 255 468 q 117 564 157 525 q 53 656 77 602 q 29 787 29 711 q 52 905 29 848 q 119 1008 74 963 q 342 1090 204 1090 q 555 1014 458 1090 q 694 814 642 946 l 607 781 q 421 983 544 940 q 342 996 382 996 q 184 940 242 996 q 123 787 123 880 q 195 623 123 688 q 348 527 243 578 q 436 480 394 505 q 511 425 478 456 q 584 254 584 359 q 498 55 584 124 q 307 -7 420 -7 m 355 -198 l 256 -198 l 256 -98 l 355 -98 l 355 -198 z "},"ṣ":{"ha":582,"x_min":17,"x_max":581,"o":"m 253 -7 q 66 64 134 -7 l 134 128 q 253 87 174 87 q 363 119 323 87 q 397 196 397 146 q 376 248 397 227 q 322 287 355 270 q 251 321 289 304 q 166 361 208 340 q 91 412 125 382 q 37 483 58 441 q 17 584 17 524 q 36 676 17 631 q 96 755 56 721 q 283 817 168 817 q 374 803 329 817 q 581 610 512 761 l 494 572 q 407 683 461 647 q 283 723 347 723 q 156 684 202 723 q 111 584 111 644 q 137 503 111 535 q 204 448 163 471 q 289 406 245 425 q 387 358 342 385 q 461 294 433 332 q 490 196 490 256 q 423 47 490 102 q 253 -7 355 -7 m 311 -191 l 212 -191 l 212 -91 l 311 -91 l 311 -191 z "},"Ṭ":{"ha":546,"x_min":-4,"x_max":633,"o":"m 262 -7 l 245 902 l -4 902 l -4 996 l 633 996 l 633 902 l 338 902 l 355 -5 l 262 -7 m 359 -197 l 259 -197 l 259 -97 l 359 -97 l 359 -197 z "},"ṭ":{"ha":353,"x_min":-1,"x_max":376,"o":"m 376 23 q 298 36 334 23 q 126 214 180 77 q 79 511 79 334 q 102 765 79 634 l -1 775 l 9 869 l 121 857 q 160 1000 137 928 l 249 971 q 214 848 229 909 l 337 835 l 328 742 l 195 755 q 172 511 172 629 q 214 248 172 359 q 327 125 252 151 q 376 117 349 117 l 376 23 m 303 -168 l 203 -168 l 203 -68 l 303 -68 l 303 -168 z "},"Ẁ":{"ha":975,"x_min":43,"x_max":916,"o":"m 681 -34 q 483 153 545 -34 q 286 -34 419 -34 q 220 -20 251 -34 q 81 162 123 24 q 43 455 43 290 q 72 760 43 603 q 154 1046 100 916 l 240 1010 q 163 742 190 889 q 137 455 137 595 q 171 190 137 304 q 256 66 201 92 q 286 60 269 60 q 403 196 363 60 q 437 500 437 315 l 530 500 q 581 158 530 284 q 681 60 620 60 q 775 158 739 60 q 822 512 822 285 q 784 897 822 699 l 876 913 q 916 512 916 709 q 863 125 916 269 q 681 -34 804 -34 m 426 1243 l 611 1106 l 572 1054 l 387 1190 l 426 1243 z "},"ẁ":{"ha":865,"x_min":28,"x_max":817,"o":"m 602 -39 q 426 95 484 -39 q 250 -39 368 -39 q 170 -20 207 -39 q 60 123 94 21 q 28 336 28 218 q 54 565 28 447 q 129 781 80 683 l 213 739 q 145 544 169 651 q 122 336 122 437 q 148 153 122 232 q 250 54 181 54 q 350 151 317 54 q 380 368 380 237 l 473 368 q 516 123 473 213 q 602 54 549 54 q 683 122 653 54 q 723 378 723 213 q 690 659 723 516 l 781 679 q 817 378 817 526 q 769 84 817 193 q 602 -39 714 -39 m 361 1048 l 547 911 l 507 859 l 323 995 l 361 1048 z "},"Ẃ":{"ha":975,"x_min":43,"x_max":916,"o":"m 681 -34 q 483 153 545 -34 q 286 -34 419 -34 q 220 -20 251 -34 q 81 162 123 24 q 43 455 43 290 q 72 760 43 603 q 154 1046 100 916 l 240 1010 q 163 742 190 889 q 137 455 137 595 q 171 190 137 304 q 256 66 201 92 q 286 60 269 60 q 403 196 363 60 q 437 500 437 315 l 530 500 q 581 158 530 284 q 681 60 620 60 q 775 158 739 60 q 822 512 822 285 q 784 897 822 699 l 876 913 q 916 512 916 709 q 863 125 916 269 q 681 -34 804 -34 m 481 1054 l 443 1106 l 627 1243 l 667 1190 l 481 1054 z "},"ẃ":{"ha":865,"x_min":28,"x_max":817,"o":"m 602 -39 q 426 95 484 -39 q 250 -39 368 -39 q 170 -20 207 -39 q 60 123 94 21 q 28 336 28 218 q 54 565 28 447 q 129 781 80 683 l 213 739 q 145 544 169 651 q 122 336 122 437 q 148 153 122 232 q 250 54 181 54 q 350 151 317 54 q 380 368 380 237 l 473 368 q 516 123 473 213 q 602 54 549 54 q 683 122 653 54 q 723 378 723 213 q 690 659 723 516 l 781 679 q 817 378 817 526 q 769 84 817 193 q 602 -39 714 -39 m 414 859 l 376 911 l 560 1048 l 600 995 l 414 859 z "},"Ẅ":{"ha":975,"x_min":43,"x_max":916,"o":"m 681 -34 q 483 153 545 -34 q 286 -34 419 -34 q 220 -20 251 -34 q 81 162 123 24 q 43 455 43 290 q 72 760 43 603 q 154 1046 100 916 l 240 1010 q 163 742 190 889 q 137 455 137 595 q 171 190 137 304 q 256 66 201 92 q 286 60 269 60 q 403 196 363 60 q 437 500 437 315 l 530 500 q 581 158 530 284 q 681 60 620 60 q 775 158 739 60 q 822 512 822 285 q 784 897 822 699 l 876 913 q 916 512 916 709 q 863 125 916 269 q 681 -34 804 -34 m 516 1072 l 416 1072 l 416 1173 l 516 1173 l 516 1072 m 703 1072 l 604 1072 l 604 1173 l 703 1173 l 703 1072 z "},"ẅ":{"ha":865,"x_min":28,"x_max":817,"o":"m 602 -39 q 426 95 484 -39 q 250 -39 368 -39 q 170 -20 207 -39 q 60 123 94 21 q 28 336 28 218 q 54 565 28 447 q 129 781 80 683 l 213 739 q 145 544 169 651 q 122 336 122 437 q 148 153 122 232 q 250 54 181 54 q 350 151 317 54 q 380 368 380 237 l 473 368 q 516 123 473 213 q 602 54 549 54 q 683 122 653 54 q 723 378 723 213 q 690 659 723 516 l 781 679 q 817 378 817 526 q 769 84 817 193 q 602 -39 714 -39 m 426 852 l 326 852 l 326 952 l 426 952 l 426 852 m 613 852 l 513 852 l 513 952 l 613 952 l 613 852 z "},"Ẉ":{"ha":975,"x_min":43,"x_max":916,"o":"m 681 -34 q 483 153 545 -34 q 286 -34 419 -34 q 220 -20 251 -34 q 81 162 123 24 q 43 455 43 290 q 72 760 43 603 q 154 1046 100 916 l 240 1010 q 163 742 190 889 q 137 455 137 595 q 171 190 137 304 q 256 66 201 92 q 286 60 269 60 q 403 196 363 60 q 437 500 437 315 l 530 500 q 581 158 530 284 q 681 60 620 60 q 775 158 739 60 q 822 512 822 285 q 784 897 822 699 l 876 913 q 916 512 916 709 q 863 125 916 269 q 681 -34 804 -34 m 529 -198 l 429 -198 l 429 -98 l 529 -98 l 529 -198 z "},"ẉ":{"ha":865,"x_min":28,"x_max":817,"o":"m 602 -39 q 426 95 484 -39 q 250 -39 368 -39 q 170 -20 207 -39 q 60 123 94 21 q 28 336 28 218 q 54 565 28 447 q 129 781 80 683 l 213 739 q 145 544 169 651 q 122 336 122 437 q 148 153 122 232 q 250 54 181 54 q 350 151 317 54 q 380 368 380 237 l 473 368 q 516 123 473 213 q 602 54 549 54 q 683 122 653 54 q 723 378 723 213 q 690 659 723 516 l 781 679 q 817 378 817 526 q 769 84 817 193 q 602 -39 714 -39 m 473 -214 l 373 -214 l 373 -114 l 473 -114 l 473 -214 z "},"Ẓ":{"ha":518,"x_min":-30,"x_max":558,"o":"m 508 -20 l 52 -20 q 32 -16 41 -20 q 4 27 4 -2 q 9 46 4 37 l 441 960 l -30 1006 l -20 1099 l 516 1046 q 547 1030 536 1044 q 558 999 558 1016 q 554 979 558 989 l 125 73 l 508 73 l 508 -20 m 317 -203 l 217 -203 l 217 -104 l 317 -104 l 317 -203 z "},"ẓ":{"ha":517,"x_min":-8,"x_max":538,"o":"m 488 -21 l 67 -21 l 67 -20 l 65 -20 q 43 -14 53 -20 q 20 26 20 1 q 27 50 20 38 l 414 699 l -8 737 l 1 830 l 496 785 q 527 768 516 782 q 538 738 538 755 q 532 714 538 726 l 149 73 l 488 73 l 488 -21 m 315 -201 l 215 -201 l 215 -102 l 315 -102 l 315 -201 z "},"Ẽ":{"ha":621,"x_min":75,"x_max":621,"o":"m 168 4 l 75 4 l 75 1056 l 168 1056 l 168 1023 l 617 1044 l 621 951 l 168 929 l 168 487 l 557 469 l 553 375 l 168 393 l 168 132 l 617 154 l 621 60 l 168 39 l 168 4 m 434 1143 q 371 1161 395 1143 q 328 1202 347 1179 q 298 1230 314 1218 q 261 1242 282 1242 q 227 1225 243 1242 q 195 1160 206 1202 l 132 1177 q 179 1269 148 1234 q 261 1308 214 1308 q 329 1289 303 1308 q 376 1246 355 1271 q 402 1221 389 1232 q 434 1209 416 1210 q 468 1227 452 1209 q 501 1293 489 1251 l 564 1275 q 516 1183 548 1217 q 434 1143 481 1143 z "},"ẽ":{"ha":566,"x_min":13,"x_max":544,"o":"m 368 -2 q 218 24 281 -2 q 45 199 95 76 q 13 363 13 276 q 41 515 13 451 q 115 620 69 578 q 215 680 160 661 q 324 700 271 700 q 478 648 418 700 q 544 505 544 591 q 429 301 544 384 q 210 237 340 237 q 127 244 171 237 q 178 162 144 198 q 368 92 245 92 q 416 94 392 92 l 425 1 q 368 -2 394 -2 m 210 332 q 375 378 311 332 q 450 505 450 432 q 417 577 450 547 q 324 606 384 606 q 178 548 240 606 q 107 363 107 482 l 107 343 q 210 332 163 332 m 379 754 q 316 772 340 754 q 273 813 292 790 q 243 841 259 829 q 206 853 227 853 q 172 836 189 853 q 140 770 151 812 l 77 787 q 124 880 93 845 q 206 918 159 918 q 274 900 248 918 q 321 857 300 882 q 348 831 334 842 q 379 820 361 821 q 413 838 397 820 q 446 903 434 861 l 509 886 q 461 793 493 828 q 379 754 427 754 z "},"Ỳ":{"ha":686,"x_min":40,"x_max":667,"o":"m 309 -7 l 300 376 q 115 512 182 395 q 40 865 40 643 q 44 973 40 917 l 138 967 q 134 865 134 916 q 195 559 134 667 q 345 467 248 467 q 507 562 450 467 q 574 869 574 672 q 565 1057 574 964 l 658 1066 q 667 869 667 965 q 587 513 667 646 q 393 376 516 395 l 402 -5 l 309 -7 m 222 1243 l 407 1106 l 368 1054 l 183 1190 l 222 1243 z "},"ỳ":{"ha":568,"x_min":-20,"x_max":580,"o":"m 270 -229 l 180 -202 l 297 188 l -20 714 l 61 762 l 333 309 l 490 831 l 580 804 l 270 -229 m 148 1048 l 333 911 l 294 859 l 109 995 l 148 1048 z "},"Ỵ":{"ha":686,"x_min":40,"x_max":667,"o":"m 309 -7 l 300 376 q 115 512 182 395 q 40 865 40 643 q 44 973 40 917 l 138 967 q 134 865 134 916 q 195 559 134 667 q 345 467 248 467 q 507 562 450 467 q 574 869 574 672 q 565 1057 574 964 l 658 1066 q 667 869 667 965 q 587 513 667 646 q 393 376 516 395 l 402 -5 l 309 -7 m 404 -194 l 304 -194 l 304 -94 l 404 -94 l 404 -194 z "},"ỵ":{"ha":570,"x_min":-17,"x_max":583,"o":"m 273 -229 l 182 -202 l 300 188 l -17 714 l 64 762 l 336 309 l 492 831 l 583 804 l 273 -229 m 583 -168 l 483 -168 l 483 -68 l 583 -68 l 583 -168 z "},"⅓":{"ha":945,"x_min":68,"x_max":877,"o":"m 163 519 l 155 1003 l 94 1000 l 91 1065 q 186 1070 172 1070 q 210 1061 200 1070 q 220 1038 219 1052 l 229 520 l 163 519 m 117 -9 l 68 18 l 667 1061 l 716 1033 l 117 -9 m 699 -10 q 581 22 639 -10 q 498 109 530 51 l 557 138 q 614 79 578 98 q 699 56 655 56 q 783 79 751 56 q 811 127 811 100 q 764 189 811 164 q 601 216 710 216 q 580 224 589 216 q 568 248 568 234 q 574 267 568 258 q 595 281 581 278 q 735 335 688 300 q 779 399 779 368 q 727 462 779 431 q 559 508 671 495 l 566 573 q 823 464 764 551 q 844 399 844 433 q 772 282 844 335 q 746 264 760 273 q 857 193 825 242 q 877 127 877 163 q 821 26 877 68 q 699 -10 773 -10 z "},"⅔":{"ha":1073,"x_min":68,"x_max":1005,"o":"m 336 503 l 106 503 q 73 529 73 503 q 85 558 73 546 q 291 886 291 769 q 243 968 291 938 q 68 1014 187 1004 l 73 1079 q 357 886 357 1057 q 184 568 357 762 l 336 568 l 336 503 m 245 -9 l 196 18 l 795 1061 l 844 1033 l 245 -9 m 827 -10 q 709 22 767 -10 q 627 109 658 51 l 685 138 q 742 79 707 98 q 827 56 783 56 q 911 79 880 56 q 939 127 939 100 q 892 189 939 164 q 729 216 838 216 q 708 224 717 216 q 696 248 696 234 q 702 267 696 258 q 723 281 709 278 q 863 335 816 300 q 907 399 907 368 q 855 462 907 431 q 688 508 800 495 l 694 573 q 951 464 892 551 q 972 399 972 433 q 901 282 972 335 q 874 264 888 273 q 985 193 954 242 q 1005 127 1005 163 q 949 26 1005 68 q 827 -10 901 -10 z "},"≡":{"ha":573,"x_min":34,"x_max":539,"o":"m 34 562 l 34 655 l 539 655 l 539 562 l 34 562 m 34 374 l 34 468 l 539 468 l 539 374 l 34 374 m 34 187 l 34 281 l 539 281 l 539 187 l 34 187 z "},"":{"ha":418,"x_min":34,"x_max":384,"o":"m 211 374 q 72 464 111 416 q 34 553 34 512 q 63 624 34 601 q 115 644 89 644 q 218 568 174 644 q 328 618 286 618 q 379 596 375 618 q 384 568 384 574 q 349 486 384 534 q 211 374 309 430 z "},"":{"ha":722,"x_min":34,"x_max":688,"o":"m 547 651 q 463 744 475 710 q 452 795 452 778 q 460 828 452 814 q 503 851 477 851 q 553 808 536 851 q 625 863 606 863 q 646 864 644 864 q 686 833 678 864 q 688 819 688 826 q 662 749 688 789 q 547 651 630 700 m 211 446 q 72 536 111 488 q 34 626 34 585 q 63 696 34 673 q 115 715 89 715 q 218 641 174 715 q 328 691 286 691 q 379 669 375 691 q 384 640 384 646 q 349 558 384 606 q 211 446 309 503 m 254 153 q 148 226 163 192 q 134 279 134 260 q 145 317 134 300 q 201 350 166 350 q 258 296 238 350 q 332 328 303 328 q 341 327 337 328 q 375 302 372 320 q 377 279 377 283 q 352 218 377 252 q 254 153 323 180 z "},"":{"ha":665,"x_min":34,"x_max":631,"o":"m 154 576 q 49 649 64 614 q 34 702 34 683 q 45 740 34 722 q 102 772 67 772 q 159 718 138 772 q 231 749 202 749 q 275 724 271 749 q 277 701 277 706 q 252 640 277 673 q 154 576 223 602 m 458 393 q 353 509 368 467 q 338 572 338 551 q 350 613 338 596 q 401 642 370 642 q 465 589 441 642 q 553 657 530 656 q 578 658 576 658 q 629 618 618 658 q 631 601 631 610 q 600 515 631 565 q 458 393 560 454 m 210 245 q 117 309 134 279 q 100 359 100 340 q 107 385 100 372 q 153 412 122 412 q 215 366 186 412 q 285 397 258 397 q 300 394 293 397 q 316 367 316 386 q 210 245 316 309 z "}}}
